<?xml version="1.0" encoding="UTF-8"?>
<svg xmlns="http://www.w3.org/2000/svg" xmlns:xlink="http://www.w3.org/1999/xlink" width="600" height="200" viewBox="0 0 600 200">
<defs>
<clipPath id="clip-0">
<path clip-rule="nonzero" d="M 204 148 L 230 148 L 230 171.601562 L 204 171.601562 Z M 204 148 "/>
</clipPath>
<clipPath id="clip-1">
<path clip-rule="nonzero" d="M 380 113 L 406 113 L 406 171.601562 L 380 171.601562 Z M 380 113 "/>
</clipPath>
<clipPath id="clip-2">
<path clip-rule="nonzero" d="M 555 72 L 582 72 L 582 171.601562 L 555 171.601562 Z M 555 72 "/>
</clipPath>
<clipPath id="clip-3">
<path clip-rule="nonzero" d="M 176 126 L 202 126 L 202 171.601562 L 176 171.601562 Z M 176 126 "/>
</clipPath>
<clipPath id="clip-4">
<path clip-rule="nonzero" d="M 352 97 L 378 97 L 378 171.601562 L 352 171.601562 Z M 352 97 "/>
</clipPath>
<clipPath id="clip-5">
<path clip-rule="nonzero" d="M 527 54 L 553 54 L 553 171.601562 L 527 171.601562 Z M 527 54 "/>
</clipPath>
<clipPath id="clip-6">
<path clip-rule="nonzero" d="M 148 113 L 174 113 L 174 171.601562 L 148 171.601562 Z M 148 113 "/>
</clipPath>
<clipPath id="clip-7">
<path clip-rule="nonzero" d="M 323 86 L 350 86 L 350 171.601562 L 323 171.601562 Z M 323 86 "/>
</clipPath>
<clipPath id="clip-8">
<path clip-rule="nonzero" d="M 499 44 L 525 44 L 525 171.601562 L 499 171.601562 Z M 499 44 "/>
</clipPath>
<clipPath id="clip-9">
<path clip-rule="nonzero" d="M 120 95 L 146 95 L 146 171.601562 L 120 171.601562 Z M 120 95 "/>
</clipPath>
<clipPath id="clip-10">
<path clip-rule="nonzero" d="M 295 69 L 322 69 L 322 171.601562 L 295 171.601562 Z M 295 69 "/>
</clipPath>
<clipPath id="clip-11">
<path clip-rule="nonzero" d="M 471 34 L 497 34 L 497 171.601562 L 471 171.601562 Z M 471 34 "/>
</clipPath>
<clipPath id="clip-12">
<path clip-rule="nonzero" d="M 92 84 L 118 84 L 118 171.601562 L 92 171.601562 Z M 92 84 "/>
</clipPath>
<clipPath id="clip-13">
<path clip-rule="nonzero" d="M 267 64 L 293 64 L 293 171.601562 L 267 171.601562 Z M 267 64 "/>
</clipPath>
<clipPath id="clip-14">
<path clip-rule="nonzero" d="M 443 38 L 469 38 L 469 171.601562 L 443 171.601562 Z M 443 38 "/>
</clipPath>
</defs>
<path fill="none" stroke-width="1" stroke-linecap="butt" stroke-linejoin="miter" stroke="rgb(0%, 0%, 0%)" stroke-opacity="0.0980392" stroke-miterlimit="10" d="M 73.5 32 L 73.5 171 "/>
<path fill="none" stroke-width="1" stroke-linecap="butt" stroke-linejoin="miter" stroke="rgb(0%, 0%, 0%)" stroke-opacity="0.0980392" stroke-miterlimit="10" d="M 73.5 172 L 73.5 179.601562 "/>
<path fill="none" stroke-width="1" stroke-linecap="butt" stroke-linejoin="miter" stroke="rgb(0%, 0%, 0%)" stroke-opacity="0.0980392" stroke-miterlimit="10" d="M 248.5 32 L 248.5 171 "/>
<path fill="none" stroke-width="1" stroke-linecap="butt" stroke-linejoin="miter" stroke="rgb(0%, 0%, 0%)" stroke-opacity="0.0980392" stroke-miterlimit="10" d="M 248.5 172 L 248.5 179.601562 "/>
<path fill="none" stroke-width="1" stroke-linecap="butt" stroke-linejoin="miter" stroke="rgb(0%, 0%, 0%)" stroke-opacity="0.0980392" stroke-miterlimit="10" d="M 424.5 32 L 424.5 171 "/>
<path fill="none" stroke-width="1" stroke-linecap="butt" stroke-linejoin="miter" stroke="rgb(0%, 0%, 0%)" stroke-opacity="0.0980392" stroke-miterlimit="10" d="M 424.5 172 L 424.5 179.601562 "/>
<path fill="none" stroke-width="1" stroke-linecap="butt" stroke-linejoin="miter" stroke="rgb(0%, 0%, 0%)" stroke-opacity="0.0980392" stroke-miterlimit="10" d="M 74 171.5 L 600 171.5 "/>
<path fill="none" stroke-width="1" stroke-linecap="butt" stroke-linejoin="miter" stroke="rgb(0%, 0%, 0%)" stroke-opacity="0.0980392" stroke-miterlimit="10" d="M 65.101562 171.5 L 73 171.5 "/>
<path fill="none" stroke-width="1" stroke-linecap="butt" stroke-linejoin="miter" stroke="rgb(0%, 0%, 0%)" stroke-opacity="0.0980392" stroke-miterlimit="10" d="M 74 142.5 L 600 142.5 "/>
<path fill="none" stroke-width="1" stroke-linecap="butt" stroke-linejoin="miter" stroke="rgb(0%, 0%, 0%)" stroke-opacity="0.0980392" stroke-miterlimit="10" d="M 65.101562 142.5 L 73 142.5 "/>
<path fill="none" stroke-width="1" stroke-linecap="butt" stroke-linejoin="miter" stroke="rgb(0%, 0%, 0%)" stroke-opacity="0.0980392" stroke-miterlimit="10" d="M 74 113.5 L 600 113.5 "/>
<path fill="none" stroke-width="1" stroke-linecap="butt" stroke-linejoin="miter" stroke="rgb(0%, 0%, 0%)" stroke-opacity="0.0980392" stroke-miterlimit="10" d="M 65.101562 113.5 L 73 113.5 "/>
<path fill="none" stroke-width="1" stroke-linecap="butt" stroke-linejoin="miter" stroke="rgb(0%, 0%, 0%)" stroke-opacity="0.0980392" stroke-miterlimit="10" d="M 74 83.5 L 600 83.5 "/>
<path fill="none" stroke-width="1" stroke-linecap="butt" stroke-linejoin="miter" stroke="rgb(0%, 0%, 0%)" stroke-opacity="0.0980392" stroke-miterlimit="10" d="M 65.101562 83.5 L 73 83.5 "/>
<path fill="none" stroke-width="1" stroke-linecap="butt" stroke-linejoin="miter" stroke="rgb(0%, 0%, 0%)" stroke-opacity="0.0980392" stroke-miterlimit="10" d="M 74 54.5 L 600 54.5 "/>
<path fill="none" stroke-width="1" stroke-linecap="butt" stroke-linejoin="miter" stroke="rgb(0%, 0%, 0%)" stroke-opacity="0.0980392" stroke-miterlimit="10" d="M 65.101562 54.5 L 73 54.5 "/>
<path fill-rule="nonzero" fill="rgb(40%, 40%, 40%)" fill-opacity="1" d="M 15.359375 122.816406 L 6.769531 119.519531 L 6.769531 118.292969 L 15.359375 114.777344 L 15.359375 116.074219 L 12.757812 117.074219 L 12.757812 120.667969 L 15.359375 121.613281 Z M 11.832031 120.339844 L 11.832031 117.425781 L 9.453125 118.324219 C 8.730469 118.597656 8.136719 118.800781 7.671875 118.933594 C 8.226562 119.042969 8.773438 119.199219 9.3125 119.394531 Z M 15.359375 114.007812 L 9.136719 114.003906 L 9.136719 113.0625 L 10.007812 113.0625 C 9.710938 112.867188 9.464844 112.609375 9.277344 112.285156 C 9.089844 111.960938 8.996094 111.589844 8.996094 111.175781 C 8.996094 110.714844 9.09375 110.339844 9.285156 110.042969 C 9.476562 109.753906 9.742188 109.542969 10.085938 109.417969 C 9.359375 108.925781 8.996094 108.285156 8.996094 107.496094 C 8.996094 106.878906 9.167969 106.40625 9.511719 106.074219 C 9.855469 105.742188 10.382812 105.574219 11.089844 105.574219 L 15.359375 105.574219 L 15.359375 106.625 L 11.441406 106.625 C 11.023438 106.628906 10.71875 106.664062 10.53125 106.726562 C 10.34375 106.796875 10.195312 106.917969 10.082031 107.097656 C 9.96875 107.277344 9.910156 107.488281 9.910156 107.730469 C 9.910156 108.167969 10.058594 108.53125 10.347656 108.820312 C 10.640625 109.109375 11.105469 109.253906 11.746094 109.253906 L 15.359375 109.253906 L 15.359375 110.308594 L 11.316406 110.308594 C 10.847656 110.308594 10.496094 110.394531 10.261719 110.566406 C 10.027344 110.738281 9.910156 111.019531 9.910156 111.410156 C 9.910156 111.707031 9.988281 111.984375 10.144531 112.234375 C 10.300781 112.488281 10.53125 112.667969 10.832031 112.78125 C 11.132812 112.894531 11.566406 112.953125 12.132812 112.949219 L 15.359375 112.953125 Z M 12.25 104.402344 C 11.097656 104.402344 10.242188 104.082031 9.6875 103.441406 C 9.226562 102.90625 8.996094 102.253906 8.996094 101.484375 C 8.996094 100.628906 9.277344 99.929688 9.839844 99.386719 C 10.402344 98.847656 11.175781 98.578125 12.160156 98.574219 C 12.964844 98.578125 13.597656 98.699219 14.050781 98.933594 C 14.511719 99.175781 14.867188 99.523438 15.121094 99.980469 C 15.375 100.441406 15.5 100.941406 15.5 101.484375 C 15.5 102.359375 15.222656 103.066406 14.664062 103.597656 C 14.105469 104.136719 13.300781 104.402344 12.25 104.402344 Z M 12.25 103.316406 C 13.050781 103.320312 13.648438 103.144531 14.039062 102.796875 C 14.4375 102.453125 14.632812 102.015625 14.632812 101.484375 C 14.632812 100.960938 14.433594 100.527344 14.035156 100.179688 C 13.636719 99.832031 13.03125 99.65625 12.214844 99.65625 C 11.445312 99.65625 10.863281 99.832031 10.464844 100.183594 C 10.070312 100.535156 9.871094 100.96875 9.867188 101.484375 C 9.871094 102.011719 10.066406 102.449219 10.460938 102.796875 C 10.859375 103.144531 11.457031 103.320312 12.25 103.316406 Z M 15.359375 93.257812 L 14.445312 93.257812 C 15.148438 93.746094 15.5 94.402344 15.5 95.230469 C 15.5 95.597656 15.429688 95.941406 15.289062 96.257812 C 15.148438 96.578125 14.972656 96.816406 14.761719 96.96875 C 14.550781 97.125 14.289062 97.230469 13.976562 97.292969 C 13.769531 97.335938 13.441406 97.359375 12.992188 97.355469 L 9.136719 97.355469 L 9.136719 96.300781 L 12.585938 96.300781 C 13.140625 96.304688 13.511719 96.28125 13.703125 96.238281 C 13.980469 96.175781 14.199219 96.035156 14.355469 95.816406 C 14.519531 95.601562 14.597656 95.335938 14.59375 95.019531 C 14.597656 94.707031 14.515625 94.410156 14.351562 94.128906 C 14.1875 93.851562 13.96875 93.65625 13.6875 93.539062 C 13.414062 93.425781 13.007812 93.367188 12.472656 93.367188 L 9.136719 93.367188 L 9.136719 92.3125 L 15.359375 92.3125 Z M 15.359375 90.664062 L 9.136719 90.660156 L 9.136719 89.710938 L 10.023438 89.710938 C 9.339844 89.257812 8.996094 88.597656 8.996094 87.730469 C 8.996094 87.363281 9.066406 87.019531 9.199219 86.699219 C 9.335938 86.386719 9.511719 86.148438 9.726562 85.992188 C 9.949219 85.835938 10.207031 85.726562 10.507812 85.664062 C 10.703125 85.625 11.046875 85.605469 11.535156 85.605469 L 15.359375 85.605469 L 15.359375 86.660156 L 11.574219 86.660156 C 11.144531 86.660156 10.824219 86.703125 10.609375 86.785156 C 10.398438 86.867188 10.230469 87.011719 10.101562 87.21875 C 9.976562 87.429688 9.910156 87.675781 9.910156 87.953125 C 9.910156 88.40625 10.054688 88.792969 10.339844 89.117188 C 10.625 89.445312 11.164062 89.609375 11.960938 89.605469 L 15.359375 89.609375 Z M 14.417969 81.6875 L 15.347656 81.535156 C 15.410156 81.832031 15.441406 82.097656 15.441406 82.332031 C 15.441406 82.714844 15.382812 83.011719 15.261719 83.222656 C 15.140625 83.433594 14.980469 83.582031 14.785156 83.667969 C 14.589844 83.753906 14.175781 83.796875 13.539062 83.796875 L 9.957031 83.796875 L 9.957031 84.570312 L 9.136719 84.570312 L 9.136719 83.796875 L 7.59375 83.796875 L 6.960938 82.746094 L 9.136719 82.746094 L 9.136719 81.6875 L 9.957031 81.6875 L 9.957031 82.746094 L 13.597656 82.75 C 13.898438 82.753906 14.089844 82.734375 14.175781 82.695312 C 14.261719 82.65625 14.332031 82.597656 14.382812 82.511719 C 14.433594 82.429688 14.457031 82.308594 14.457031 82.148438 C 14.457031 82.039062 14.445312 81.882812 14.417969 81.6875 Z M 4.496094 122.800781 "/>
<path fill-rule="nonzero" fill="rgb(100%, 38.823529%, 51.764706%)" fill-opacity="1" d="M 68.304688 10 L 108.304688 10 L 108.304688 22 L 68.304688 22 Z M 68.304688 10 "/>
<path fill-rule="nonzero" fill="rgb(40%, 40%, 40%)" fill-opacity="1" d="M 119.171875 20.160156 L 119.171875 19.246094 C 118.683594 19.949219 118.027344 20.300781 117.199219 20.300781 C 116.832031 20.300781 116.488281 20.230469 116.171875 20.089844 C 115.851562 19.949219 115.613281 19.773438 115.460938 19.558594 C 115.304688 19.347656 115.199219 19.085938 115.136719 18.777344 C 115.089844 18.570312 115.066406 18.242188 115.070312 17.792969 L 115.070312 13.9375 L 116.125 13.9375 L 116.125 17.386719 C 116.121094 17.941406 116.144531 18.3125 116.191406 18.503906 C 116.253906 18.78125 116.394531 19 116.613281 19.15625 C 116.828125 19.320312 117.09375 19.398438 117.410156 19.394531 C 117.722656 19.398438 118.019531 19.316406 118.300781 19.152344 C 118.578125 18.988281 118.773438 18.769531 118.890625 18.488281 C 119.003906 18.210938 119.0625 17.804688 119.0625 17.269531 L 119.0625 13.9375 L 120.117188 13.9375 L 120.117188 20.160156 Z M 121.765625 20.160156 L 121.765625 13.9375 L 122.71875 13.9375 L 122.71875 14.824219 C 123.171875 14.140625 123.832031 13.796875 124.695312 13.796875 C 125.066406 13.796875 125.410156 13.867188 125.730469 14 C 126.042969 14.136719 126.28125 14.3125 126.4375 14.527344 C 126.59375 14.75 126.703125 15.007812 126.765625 15.308594 C 126.804688 15.503906 126.824219 15.847656 126.824219 16.332031 L 126.824219 20.160156 L 125.769531 20.160156 L 125.769531 16.375 C 125.769531 15.945312 125.726562 15.625 125.644531 15.410156 C 125.5625 15.199219 125.417969 15.03125 125.210938 14.902344 C 125 14.777344 124.753906 14.710938 124.476562 14.710938 C 124.023438 14.710938 123.636719 14.855469 123.308594 15.140625 C 122.980469 15.425781 122.816406 15.964844 122.820312 16.761719 L 122.820312 20.160156 Z M 128.449219 12.785156 L 128.449219 11.570312 L 129.503906 11.570312 L 129.503906 12.785156 Z M 128.449219 20.160156 L 128.449219 13.9375 L 129.503906 13.9375 L 129.503906 20.160156 Z M 130.917969 20.675781 L 131.945312 20.828125 C 131.984375 21.140625 132.105469 21.371094 132.300781 21.519531 C 132.5625 21.714844 132.917969 21.8125 133.375 21.8125 C 133.859375 21.8125 134.238281 21.714844 134.503906 21.519531 C 134.769531 21.324219 134.949219 21.050781 135.042969 20.699219 C 135.097656 20.484375 135.121094 20.035156 135.117188 19.347656 C 134.65625 19.890625 134.082031 20.160156 133.398438 20.160156 C 132.539062 20.160156 131.878906 19.851562 131.410156 19.234375 C 130.941406 18.617188 130.707031 17.878906 130.707031 17.011719 C 130.707031 16.421875 130.8125 15.875 131.027344 15.371094 C 131.242188 14.871094 131.554688 14.480469 131.964844 14.207031 C 132.371094 13.933594 132.851562 13.796875 133.402344 13.796875 C 134.136719 13.796875 134.742188 14.09375 135.21875 14.6875 L 135.21875 13.9375 L 136.191406 13.9375 L 136.191406 19.316406 C 136.191406 20.285156 136.089844 20.96875 135.894531 21.375 C 135.695312 21.773438 135.382812 22.09375 134.957031 22.332031 C 134.527344 22.5625 134.003906 22.679688 133.378906 22.683594 C 132.636719 22.679688 132.035156 22.511719 131.578125 22.183594 C 131.121094 21.847656 130.902344 21.347656 130.917969 20.675781 Z M 131.789062 16.9375 C 131.785156 17.753906 131.949219 18.351562 132.277344 18.722656 C 132.601562 19.101562 133.007812 19.289062 133.496094 19.285156 C 133.980469 19.289062 134.386719 19.101562 134.714844 18.726562 C 135.042969 18.355469 135.207031 17.769531 135.207031 16.972656 C 135.207031 16.214844 135.035156 15.640625 134.699219 15.25 C 134.359375 14.863281 133.953125 14.671875 133.476562 14.667969 C 133.003906 14.671875 132.605469 14.863281 132.28125 15.242188 C 131.949219 15.625 131.785156 16.1875 131.789062 16.9375 Z M 137.773438 20.160156 L 137.773438 13.9375 L 138.71875 13.9375 L 138.71875 14.878906 C 138.960938 14.441406 139.183594 14.148438 139.390625 14.007812 C 139.59375 13.867188 139.820312 13.796875 140.070312 13.796875 C 140.421875 13.796875 140.785156 13.910156 141.152344 14.136719 L 140.789062 15.113281 C 140.53125 14.964844 140.273438 14.886719 140.015625 14.886719 C 139.785156 14.886719 139.578125 14.957031 139.394531 15.09375 C 139.207031 15.234375 139.074219 15.425781 139 15.671875 C 138.882812 16.046875 138.824219 16.457031 138.828125 16.902344 L 138.828125 20.160156 Z M 145.839844 19.394531 C 145.449219 19.726562 145.070312 19.960938 144.710938 20.097656 C 144.34375 20.234375 143.957031 20.300781 143.550781 20.300781 C 142.863281 20.300781 142.339844 20.136719 141.972656 19.800781 C 141.605469 19.472656 141.421875 19.042969 141.421875 18.519531 C 141.421875 18.214844 141.488281 17.9375 141.628906 17.6875 C 141.765625 17.4375 141.949219 17.234375 142.175781 17.078125 C 142.398438 16.925781 142.652344 16.8125 142.933594 16.730469 C 143.140625 16.683594 143.453125 16.628906 143.871094 16.574219 C 144.722656 16.472656 145.347656 16.351562 145.753906 16.210938 C 145.753906 16.070312 145.757812 15.980469 145.757812 15.933594 C 145.757812 15.511719 145.65625 15.207031 145.457031 15.027344 C 145.1875 14.789062 144.789062 14.671875 144.257812 14.667969 C 143.757812 14.671875 143.390625 14.757812 143.15625 14.929688 C 142.921875 15.105469 142.746094 15.414062 142.636719 15.855469 L 141.605469 15.714844 C 141.695312 15.273438 141.851562 14.917969 142.066406 14.644531 C 142.277344 14.378906 142.585938 14.167969 142.996094 14.019531 C 143.398438 13.871094 143.871094 13.796875 144.410156 13.796875 C 144.941406 13.796875 145.371094 13.859375 145.703125 13.984375 C 146.035156 14.109375 146.28125 14.269531 146.4375 14.457031 C 146.59375 14.648438 146.703125 14.886719 146.765625 15.175781 C 146.796875 15.355469 146.8125 15.679688 146.816406 16.144531 L 146.816406 17.550781 C 146.8125 18.535156 146.835938 19.15625 146.882812 19.414062 C 146.929688 19.675781 147.019531 19.921875 147.152344 20.160156 L 146.050781 20.160156 C 145.941406 19.941406 145.871094 19.6875 145.839844 19.394531 Z M 145.753906 17.035156 C 145.363281 17.195312 144.789062 17.328125 144.027344 17.433594 C 143.59375 17.5 143.289062 17.570312 143.109375 17.644531 C 142.929688 17.726562 142.789062 17.839844 142.691406 17.988281 C 142.59375 18.140625 142.546875 18.308594 142.546875 18.488281 C 142.546875 18.773438 142.652344 19.007812 142.863281 19.191406 C 143.074219 19.382812 143.386719 19.476562 143.800781 19.472656 C 144.207031 19.476562 144.566406 19.386719 144.882812 19.207031 C 145.199219 19.03125 145.433594 18.789062 145.582031 18.480469 C 145.695312 18.242188 145.75 17.890625 145.753906 17.425781 Z M 148.453125 20.160156 L 148.453125 13.9375 L 149.398438 13.9375 L 149.398438 14.808594 C 149.59375 14.511719 149.851562 14.265625 150.175781 14.078125 C 150.5 13.890625 150.871094 13.796875 151.285156 13.796875 C 151.746094 13.796875 152.121094 13.894531 152.417969 14.085938 C 152.707031 14.277344 152.917969 14.542969 153.042969 14.886719 C 153.535156 14.160156 154.175781 13.796875 154.964844 13.796875 C 155.582031 13.796875 156.054688 13.96875 156.386719 14.3125 C 156.71875 14.65625 156.886719 15.183594 156.886719 15.886719 L 156.886719 20.160156 L 155.835938 20.160156 L 155.835938 16.238281 C 155.832031 15.820312 155.796875 15.515625 155.734375 15.328125 C 155.664062 15.144531 155.542969 14.996094 155.363281 14.882812 C 155.183594 14.769531 154.972656 14.710938 154.730469 14.710938 C 154.292969 14.710938 153.929688 14.859375 153.640625 15.148438 C 153.351562 15.441406 153.207031 15.90625 153.207031 16.542969 L 153.207031 20.160156 L 152.152344 20.160156 L 152.152344 16.117188 C 152.152344 15.648438 152.066406 15.296875 151.894531 15.0625 C 151.722656 14.828125 151.441406 14.710938 151.050781 14.710938 C 150.753906 14.710938 150.476562 14.789062 150.226562 14.945312 C 149.972656 15.101562 149.792969 15.332031 149.679688 15.632812 C 149.5625 15.933594 149.503906 16.367188 149.507812 16.933594 L 149.507812 20.160156 Z M 114.304688 9.296875 "/>
<path fill-rule="nonzero" fill="rgb(21.176471%, 63.529412%, 92.156863%)" fill-opacity="1" d="M 167.660156 10 L 207.660156 10 L 207.660156 22 L 167.660156 22 Z M 167.660156 10 "/>
<path fill-rule="nonzero" fill="rgb(40%, 40%, 40%)" fill-opacity="1" d="M 215.425781 20.160156 L 214.445312 20.160156 L 214.445312 11.570312 L 215.5 11.570312 L 215.5 14.636719 C 215.945312 14.078125 216.511719 13.796875 217.207031 13.796875 C 217.582031 13.796875 217.945312 13.875 218.289062 14.03125 C 218.632812 14.1875 218.914062 14.40625 219.132812 14.679688 C 219.351562 14.960938 219.523438 15.296875 219.652344 15.691406 C 219.773438 16.085938 219.835938 16.507812 219.839844 16.957031 C 219.835938 18.023438 219.574219 18.847656 219.050781 19.429688 C 218.523438 20.011719 217.890625 20.300781 217.152344 20.300781 C 216.417969 20.300781 215.839844 19.996094 215.425781 19.378906 Z M 215.410156 17.003906 C 215.40625 17.75 215.507812 18.289062 215.714844 18.621094 C 216.046875 19.164062 216.496094 19.433594 217.066406 19.433594 C 217.519531 19.433594 217.917969 19.234375 218.257812 18.832031 C 218.589844 18.433594 218.757812 17.835938 218.761719 17.042969 C 218.757812 16.230469 218.597656 15.632812 218.277344 15.246094 C 217.957031 14.859375 217.566406 14.664062 217.113281 14.664062 C 216.644531 14.664062 216.246094 14.867188 215.914062 15.265625 C 215.574219 15.667969 215.40625 16.246094 215.410156 17.003906 Z M 221.132812 12.785156 L 221.132812 11.570312 L 222.1875 11.570312 L 222.1875 12.785156 Z M 221.132812 20.160156 L 221.132812 13.9375 L 222.1875 13.9375 L 222.1875 20.160156 Z M 223.597656 20.675781 L 224.625 20.828125 C 224.664062 21.140625 224.785156 21.371094 224.980469 21.519531 C 225.242188 21.714844 225.597656 21.8125 226.054688 21.8125 C 226.539062 21.8125 226.917969 21.714844 227.183594 21.519531 C 227.449219 21.324219 227.628906 21.050781 227.722656 20.699219 C 227.777344 20.484375 227.800781 20.035156 227.796875 19.347656 C 227.335938 19.890625 226.761719 20.160156 226.078125 20.160156 C 225.21875 20.160156 224.558594 19.851562 224.089844 19.234375 C 223.621094 18.617188 223.386719 17.878906 223.386719 17.011719 C 223.386719 16.421875 223.492188 15.875 223.707031 15.371094 C 223.921875 14.871094 224.234375 14.480469 224.644531 14.207031 C 225.050781 13.933594 225.53125 13.796875 226.082031 13.796875 C 226.816406 13.796875 227.421875 14.09375 227.898438 14.6875 L 227.898438 13.9375 L 228.871094 13.9375 L 228.871094 19.316406 C 228.871094 20.285156 228.769531 20.96875 228.574219 21.375 C 228.375 21.773438 228.0625 22.09375 227.636719 22.332031 C 227.207031 22.5625 226.683594 22.679688 226.058594 22.683594 C 225.316406 22.679688 224.714844 22.511719 224.257812 22.183594 C 223.800781 21.847656 223.582031 21.347656 223.597656 20.675781 Z M 224.46875 16.9375 C 224.464844 17.753906 224.628906 18.351562 224.957031 18.722656 C 225.28125 19.101562 225.6875 19.289062 226.175781 19.285156 C 226.660156 19.289062 227.066406 19.101562 227.394531 18.726562 C 227.722656 18.355469 227.886719 17.769531 227.886719 16.972656 C 227.886719 16.214844 227.714844 15.640625 227.378906 15.25 C 227.039062 14.863281 226.632812 14.671875 226.15625 14.667969 C 225.683594 14.671875 225.285156 14.863281 224.960938 15.242188 C 224.628906 15.625 224.464844 16.1875 224.46875 16.9375 Z M 230.453125 20.160156 L 230.453125 13.9375 L 231.398438 13.9375 L 231.398438 14.878906 C 231.640625 14.441406 231.863281 14.148438 232.070312 14.007812 C 232.273438 13.867188 232.5 13.796875 232.75 13.796875 C 233.101562 13.796875 233.464844 13.910156 233.832031 14.136719 L 233.46875 15.113281 C 233.210938 14.964844 232.953125 14.886719 232.695312 14.886719 C 232.464844 14.886719 232.257812 14.957031 232.074219 15.09375 C 231.886719 15.234375 231.753906 15.425781 231.679688 15.671875 C 231.5625 16.046875 231.503906 16.457031 231.507812 16.902344 L 231.507812 20.160156 Z M 238.523438 19.394531 C 238.132812 19.726562 237.753906 19.960938 237.394531 20.097656 C 237.027344 20.234375 236.640625 20.300781 236.234375 20.300781 C 235.546875 20.300781 235.023438 20.136719 234.65625 19.800781 C 234.289062 19.472656 234.105469 19.042969 234.105469 18.519531 C 234.105469 18.214844 234.171875 17.9375 234.3125 17.6875 C 234.449219 17.4375 234.632812 17.234375 234.859375 17.078125 C 235.082031 16.925781 235.335938 16.8125 235.617188 16.730469 C 235.824219 16.683594 236.136719 16.628906 236.554688 16.574219 C 237.40625 16.472656 238.03125 16.351562 238.4375 16.210938 C 238.4375 16.070312 238.441406 15.980469 238.441406 15.933594 C 238.441406 15.511719 238.339844 15.207031 238.140625 15.027344 C 237.871094 14.789062 237.472656 14.671875 236.941406 14.667969 C 236.441406 14.671875 236.074219 14.757812 235.839844 14.929688 C 235.605469 15.105469 235.429688 15.414062 235.320312 15.855469 L 234.289062 15.714844 C 234.378906 15.273438 234.535156 14.917969 234.75 14.644531 C 234.960938 14.378906 235.269531 14.167969 235.679688 14.019531 C 236.082031 13.871094 236.554688 13.796875 237.09375 13.796875 C 237.625 13.796875 238.054688 13.859375 238.386719 13.984375 C 238.71875 14.109375 238.964844 14.269531 239.121094 14.457031 C 239.277344 14.648438 239.386719 14.886719 239.449219 15.175781 C 239.480469 15.355469 239.496094 15.679688 239.5 16.144531 L 239.5 17.550781 C 239.496094 18.535156 239.519531 19.15625 239.566406 19.414062 C 239.613281 19.675781 239.703125 19.921875 239.835938 20.160156 L 238.734375 20.160156 C 238.625 19.941406 238.554688 19.6875 238.523438 19.394531 Z M 238.4375 17.035156 C 238.046875 17.195312 237.472656 17.328125 236.710938 17.433594 C 236.277344 17.5 235.972656 17.570312 235.792969 17.644531 C 235.613281 17.726562 235.472656 17.839844 235.375 17.988281 C 235.277344 18.140625 235.230469 18.308594 235.230469 18.488281 C 235.230469 18.773438 235.335938 19.007812 235.546875 19.191406 C 235.757812 19.382812 236.070312 19.476562 236.484375 19.472656 C 236.890625 19.476562 237.25 19.386719 237.566406 19.207031 C 237.882812 19.03125 238.117188 18.789062 238.265625 18.480469 C 238.378906 18.242188 238.433594 17.890625 238.4375 17.425781 Z M 241.132812 20.160156 L 241.132812 13.9375 L 242.078125 13.9375 L 242.078125 14.808594 C 242.273438 14.511719 242.53125 14.265625 242.855469 14.078125 C 243.179688 13.890625 243.550781 13.796875 243.964844 13.796875 C 244.425781 13.796875 244.800781 13.894531 245.097656 14.085938 C 245.386719 14.277344 245.597656 14.542969 245.722656 14.886719 C 246.214844 14.160156 246.855469 13.796875 247.644531 13.796875 C 248.261719 13.796875 248.734375 13.96875 249.066406 14.3125 C 249.398438 14.65625 249.566406 15.183594 249.566406 15.886719 L 249.566406 20.160156 L 248.515625 20.160156 L 248.515625 16.238281 C 248.511719 15.820312 248.476562 15.515625 248.414062 15.328125 C 248.34375 15.144531 248.222656 14.996094 248.042969 14.882812 C 247.863281 14.769531 247.652344 14.710938 247.410156 14.710938 C 246.972656 14.710938 246.609375 14.859375 246.320312 15.148438 C 246.03125 15.441406 245.886719 15.90625 245.886719 16.542969 L 245.886719 20.160156 L 244.832031 20.160156 L 244.832031 16.117188 C 244.832031 15.648438 244.746094 15.296875 244.574219 15.0625 C 244.402344 14.828125 244.121094 14.710938 243.730469 14.710938 C 243.433594 14.710938 243.15625 14.789062 242.90625 14.945312 C 242.652344 15.101562 242.472656 15.332031 242.359375 15.632812 C 242.242188 15.933594 242.183594 16.367188 242.1875 16.933594 L 242.1875 20.160156 Z M 213.660156 9.296875 "/>
<path fill-rule="nonzero" fill="rgb(100%, 80.784314%, 33.72549%)" fill-opacity="1" d="M 260.339844 10 L 300.339844 10 L 300.339844 22 L 260.339844 22 Z M 260.339844 10 "/>
<path fill-rule="nonzero" fill="rgb(40%, 40%, 40%)" fill-opacity="1" d="M 309.433594 19.214844 L 309.585938 20.148438 C 309.289062 20.210938 309.023438 20.242188 308.789062 20.242188 C 308.40625 20.242188 308.109375 20.183594 307.898438 20.0625 C 307.6875 19.941406 307.539062 19.78125 307.453125 19.582031 C 307.367188 19.386719 307.324219 18.972656 307.324219 18.339844 L 307.324219 14.757812 L 306.550781 14.757812 L 306.550781 13.9375 L 307.324219 13.9375 L 307.324219 12.394531 L 308.371094 11.761719 L 308.371094 13.9375 L 309.433594 13.9375 L 309.433594 14.757812 L 308.371094 14.757812 L 308.371094 18.394531 C 308.367188 18.699219 308.386719 18.890625 308.425781 18.976562 C 308.464844 19.0625 308.523438 19.132812 308.609375 19.183594 C 308.691406 19.234375 308.8125 19.257812 308.972656 19.257812 C 309.082031 19.257812 309.238281 19.246094 309.433594 19.214844 Z M 310.453125 20.160156 L 310.453125 13.9375 L 311.398438 13.9375 L 311.398438 14.878906 C 311.640625 14.441406 311.863281 14.148438 312.070312 14.007812 C 312.273438 13.867188 312.5 13.796875 312.75 13.796875 C 313.101562 13.796875 313.464844 13.910156 313.832031 14.136719 L 313.46875 15.113281 C 313.210938 14.964844 312.953125 14.886719 312.695312 14.886719 C 312.464844 14.886719 312.257812 14.957031 312.074219 15.09375 C 311.886719 15.234375 311.753906 15.425781 311.679688 15.671875 C 311.5625 16.046875 311.503906 16.457031 311.507812 16.902344 L 311.507812 20.160156 Z M 314.46875 12.785156 L 314.46875 11.570312 L 315.523438 11.570312 L 315.523438 12.785156 Z M 314.46875 20.160156 L 314.46875 13.9375 L 315.523438 13.9375 L 315.523438 20.160156 Z M 316.933594 20.675781 L 317.960938 20.828125 C 318 21.140625 318.121094 21.371094 318.316406 21.519531 C 318.578125 21.714844 318.933594 21.8125 319.390625 21.8125 C 319.875 21.8125 320.253906 21.714844 320.519531 21.519531 C 320.785156 21.324219 320.964844 21.050781 321.058594 20.699219 C 321.113281 20.484375 321.136719 20.035156 321.132812 19.347656 C 320.671875 19.890625 320.097656 20.160156 319.414062 20.160156 C 318.554688 20.160156 317.894531 19.851562 317.425781 19.234375 C 316.957031 18.617188 316.722656 17.878906 316.722656 17.011719 C 316.722656 16.421875 316.828125 15.875 317.042969 15.371094 C 317.257812 14.871094 317.570312 14.480469 317.980469 14.207031 C 318.386719 13.933594 318.867188 13.796875 319.417969 13.796875 C 320.152344 13.796875 320.757812 14.09375 321.234375 14.6875 L 321.234375 13.9375 L 322.207031 13.9375 L 322.207031 19.316406 C 322.207031 20.285156 322.105469 20.96875 321.910156 21.375 C 321.710938 21.773438 321.398438 22.09375 320.972656 22.332031 C 320.542969 22.5625 320.019531 22.679688 319.394531 22.683594 C 318.652344 22.679688 318.050781 22.511719 317.59375 22.183594 C 317.136719 21.847656 316.917969 21.347656 316.933594 20.675781 Z M 317.804688 16.9375 C 317.800781 17.753906 317.964844 18.351562 318.292969 18.722656 C 318.617188 19.101562 319.023438 19.289062 319.511719 19.285156 C 319.996094 19.289062 320.402344 19.101562 320.730469 18.726562 C 321.058594 18.355469 321.222656 17.769531 321.222656 16.972656 C 321.222656 16.214844 321.050781 15.640625 320.714844 15.25 C 320.375 14.863281 319.96875 14.671875 319.492188 14.667969 C 319.019531 14.671875 318.621094 14.863281 318.296875 15.242188 C 317.964844 15.625 317.800781 16.1875 317.804688 16.9375 Z M 323.789062 20.160156 L 323.789062 13.9375 L 324.734375 13.9375 L 324.734375 14.878906 C 324.976562 14.441406 325.199219 14.148438 325.40625 14.007812 C 325.609375 13.867188 325.835938 13.796875 326.085938 13.796875 C 326.4375 13.796875 326.800781 13.910156 327.167969 14.136719 L 326.804688 15.113281 C 326.546875 14.964844 326.289062 14.886719 326.03125 14.886719 C 325.800781 14.886719 325.59375 14.957031 325.410156 15.09375 C 325.222656 15.234375 325.089844 15.425781 325.015625 15.671875 C 324.898438 16.046875 324.839844 16.457031 324.84375 16.902344 L 324.84375 20.160156 Z M 331.859375 19.394531 C 331.46875 19.726562 331.089844 19.960938 330.730469 20.097656 C 330.363281 20.234375 329.976562 20.300781 329.570312 20.300781 C 328.882812 20.300781 328.359375 20.136719 327.992188 19.800781 C 327.625 19.472656 327.441406 19.042969 327.441406 18.519531 C 327.441406 18.214844 327.507812 17.9375 327.648438 17.6875 C 327.785156 17.4375 327.96875 17.234375 328.195312 17.078125 C 328.417969 16.925781 328.671875 16.8125 328.953125 16.730469 C 329.160156 16.683594 329.472656 16.628906 329.890625 16.574219 C 330.742188 16.472656 331.367188 16.351562 331.773438 16.210938 C 331.773438 16.070312 331.777344 15.980469 331.777344 15.933594 C 331.777344 15.511719 331.675781 15.207031 331.476562 15.027344 C 331.207031 14.789062 330.808594 14.671875 330.277344 14.667969 C 329.777344 14.671875 329.410156 14.757812 329.175781 14.929688 C 328.941406 15.105469 328.765625 15.414062 328.65625 15.855469 L 327.625 15.714844 C 327.714844 15.273438 327.871094 14.917969 328.085938 14.644531 C 328.296875 14.378906 328.605469 14.167969 329.015625 14.019531 C 329.417969 13.871094 329.890625 13.796875 330.429688 13.796875 C 330.960938 13.796875 331.390625 13.859375 331.722656 13.984375 C 332.054688 14.109375 332.300781 14.269531 332.457031 14.457031 C 332.613281 14.648438 332.722656 14.886719 332.785156 15.175781 C 332.816406 15.355469 332.832031 15.679688 332.835938 16.144531 L 332.835938 17.550781 C 332.832031 18.535156 332.855469 19.15625 332.902344 19.414062 C 332.949219 19.675781 333.039062 19.921875 333.171875 20.160156 L 332.070312 20.160156 C 331.960938 19.941406 331.890625 19.6875 331.859375 19.394531 Z M 331.773438 17.035156 C 331.382812 17.195312 330.808594 17.328125 330.046875 17.433594 C 329.613281 17.5 329.308594 17.570312 329.128906 17.644531 C 328.949219 17.726562 328.808594 17.839844 328.710938 17.988281 C 328.613281 18.140625 328.566406 18.308594 328.566406 18.488281 C 328.566406 18.773438 328.671875 19.007812 328.882812 19.191406 C 329.09375 19.382812 329.40625 19.476562 329.820312 19.472656 C 330.226562 19.476562 330.585938 19.386719 330.902344 19.207031 C 331.21875 19.03125 331.453125 18.789062 331.601562 18.480469 C 331.714844 18.242188 331.769531 17.890625 331.773438 17.425781 Z M 334.46875 20.160156 L 334.46875 13.9375 L 335.414062 13.9375 L 335.414062 14.808594 C 335.609375 14.511719 335.867188 14.265625 336.191406 14.078125 C 336.515625 13.890625 336.886719 13.796875 337.300781 13.796875 C 337.761719 13.796875 338.136719 13.894531 338.433594 14.085938 C 338.722656 14.277344 338.933594 14.542969 339.058594 14.886719 C 339.550781 14.160156 340.191406 13.796875 340.980469 13.796875 C 341.597656 13.796875 342.070312 13.96875 342.402344 14.3125 C 342.734375 14.65625 342.902344 15.183594 342.902344 15.886719 L 342.902344 20.160156 L 341.851562 20.160156 L 341.851562 16.238281 C 341.847656 15.820312 341.8125 15.515625 341.75 15.328125 C 341.679688 15.144531 341.558594 14.996094 341.378906 14.882812 C 341.199219 14.769531 340.988281 14.710938 340.746094 14.710938 C 340.308594 14.710938 339.945312 14.859375 339.65625 15.148438 C 339.367188 15.441406 339.222656 15.90625 339.222656 16.542969 L 339.222656 20.160156 L 338.167969 20.160156 L 338.167969 16.117188 C 338.167969 15.648438 338.082031 15.296875 337.910156 15.0625 C 337.738281 14.828125 337.457031 14.710938 337.066406 14.710938 C 336.769531 14.710938 336.492188 14.789062 336.242188 14.945312 C 335.988281 15.101562 335.808594 15.332031 335.695312 15.632812 C 335.578125 15.933594 335.519531 16.367188 335.523438 16.933594 L 335.523438 20.160156 Z M 306.339844 9.296875 "/>
<path fill-rule="nonzero" fill="rgb(29.411765%, 75.294118%, 75.294118%)" fill-opacity="1" d="M 353.675781 10 L 393.675781 10 L 393.675781 22 L 353.675781 22 Z M 353.675781 10 "/>
<path fill-rule="nonzero" fill="rgb(40%, 40%, 40%)" fill-opacity="1" d="M 403.554688 20.160156 L 403.554688 18.105469 L 399.828125 18.105469 L 399.828125 17.136719 L 403.746094 11.570312 L 404.609375 11.570312 L 404.609375 17.136719 L 405.769531 17.136719 L 405.769531 18.105469 L 404.609375 18.105469 L 404.609375 20.160156 Z M 403.554688 17.136719 L 403.554688 13.261719 L 400.863281 17.136719 Z M 406.734375 17.582031 L 406.734375 16.519531 L 409.972656 16.519531 L 409.972656 17.582031 Z M 410.941406 20.675781 L 411.96875 20.828125 C 412.007812 21.140625 412.128906 21.371094 412.324219 21.519531 C 412.585938 21.714844 412.941406 21.8125 413.398438 21.8125 C 413.882812 21.8125 414.261719 21.714844 414.527344 21.519531 C 414.792969 21.324219 414.972656 21.050781 415.066406 20.699219 C 415.121094 20.484375 415.144531 20.035156 415.140625 19.347656 C 414.679688 19.890625 414.105469 20.160156 413.421875 20.160156 C 412.5625 20.160156 411.902344 19.851562 411.433594 19.234375 C 410.964844 18.617188 410.730469 17.878906 410.730469 17.011719 C 410.730469 16.421875 410.835938 15.875 411.050781 15.371094 C 411.265625 14.871094 411.578125 14.480469 411.988281 14.207031 C 412.394531 13.933594 412.875 13.796875 413.425781 13.796875 C 414.160156 13.796875 414.765625 14.09375 415.242188 14.6875 L 415.242188 13.9375 L 416.214844 13.9375 L 416.214844 19.316406 C 416.214844 20.285156 416.113281 20.96875 415.917969 21.375 C 415.71875 21.773438 415.40625 22.09375 414.980469 22.332031 C 414.550781 22.5625 414.027344 22.679688 413.402344 22.683594 C 412.660156 22.679688 412.058594 22.511719 411.601562 22.183594 C 411.144531 21.847656 410.925781 21.347656 410.941406 20.675781 Z M 411.8125 16.9375 C 411.808594 17.753906 411.972656 18.351562 412.300781 18.722656 C 412.625 19.101562 413.03125 19.289062 413.519531 19.285156 C 414.003906 19.289062 414.410156 19.101562 414.738281 18.726562 C 415.066406 18.355469 415.230469 17.769531 415.230469 16.972656 C 415.230469 16.214844 415.058594 15.640625 414.722656 15.25 C 414.382812 14.863281 413.976562 14.671875 413.5 14.667969 C 413.027344 14.671875 412.628906 14.863281 412.304688 15.242188 C 411.972656 15.625 411.808594 16.1875 411.8125 16.9375 Z M 417.800781 20.160156 L 417.800781 13.9375 L 418.746094 13.9375 L 418.746094 14.878906 C 418.988281 14.441406 419.210938 14.148438 419.417969 14.007812 C 419.621094 13.867188 419.847656 13.796875 420.097656 13.796875 C 420.449219 13.796875 420.8125 13.910156 421.179688 14.136719 L 420.816406 15.113281 C 420.558594 14.964844 420.300781 14.886719 420.042969 14.886719 C 419.8125 14.886719 419.605469 14.957031 419.421875 15.09375 C 419.234375 15.234375 419.101562 15.425781 419.027344 15.671875 C 418.910156 16.046875 418.851562 16.457031 418.855469 16.902344 L 418.855469 20.160156 Z M 425.867188 19.394531 C 425.476562 19.726562 425.097656 19.960938 424.738281 20.097656 C 424.371094 20.234375 423.984375 20.300781 423.578125 20.300781 C 422.890625 20.300781 422.367188 20.136719 422 19.800781 C 421.632812 19.472656 421.449219 19.042969 421.449219 18.519531 C 421.449219 18.214844 421.515625 17.9375 421.65625 17.6875 C 421.792969 17.4375 421.976562 17.234375 422.203125 17.078125 C 422.425781 16.925781 422.679688 16.8125 422.960938 16.730469 C 423.167969 16.683594 423.480469 16.628906 423.898438 16.574219 C 424.75 16.472656 425.375 16.351562 425.78125 16.210938 C 425.78125 16.070312 425.785156 15.980469 425.785156 15.933594 C 425.785156 15.511719 425.683594 15.207031 425.484375 15.027344 C 425.214844 14.789062 424.816406 14.671875 424.285156 14.667969 C 423.785156 14.671875 423.417969 14.757812 423.183594 14.929688 C 422.949219 15.105469 422.773438 15.414062 422.664062 15.855469 L 421.632812 15.714844 C 421.722656 15.273438 421.878906 14.917969 422.09375 14.644531 C 422.304688 14.378906 422.613281 14.167969 423.023438 14.019531 C 423.425781 13.871094 423.898438 13.796875 424.4375 13.796875 C 424.96875 13.796875 425.398438 13.859375 425.730469 13.984375 C 426.0625 14.109375 426.308594 14.269531 426.464844 14.457031 C 426.621094 14.648438 426.730469 14.886719 426.792969 15.175781 C 426.824219 15.355469 426.839844 15.679688 426.84375 16.144531 L 426.84375 17.550781 C 426.839844 18.535156 426.863281 19.15625 426.910156 19.414062 C 426.957031 19.675781 427.046875 19.921875 427.179688 20.160156 L 426.078125 20.160156 C 425.96875 19.941406 425.898438 19.6875 425.867188 19.394531 Z M 425.78125 17.035156 C 425.390625 17.195312 424.816406 17.328125 424.054688 17.433594 C 423.621094 17.5 423.316406 17.570312 423.136719 17.644531 C 422.957031 17.726562 422.816406 17.839844 422.71875 17.988281 C 422.621094 18.140625 422.574219 18.308594 422.574219 18.488281 C 422.574219 18.773438 422.679688 19.007812 422.890625 19.191406 C 423.101562 19.382812 423.414062 19.476562 423.828125 19.472656 C 424.234375 19.476562 424.59375 19.386719 424.910156 19.207031 C 425.226562 19.03125 425.460938 18.789062 425.609375 18.480469 C 425.722656 18.242188 425.777344 17.890625 425.78125 17.425781 Z M 428.476562 20.160156 L 428.476562 13.9375 L 429.421875 13.9375 L 429.421875 14.808594 C 429.617188 14.511719 429.875 14.265625 430.199219 14.078125 C 430.523438 13.890625 430.894531 13.796875 431.308594 13.796875 C 431.769531 13.796875 432.144531 13.894531 432.441406 14.085938 C 432.730469 14.277344 432.941406 14.542969 433.066406 14.886719 C 433.558594 14.160156 434.199219 13.796875 434.988281 13.796875 C 435.605469 13.796875 436.078125 13.96875 436.410156 14.3125 C 436.742188 14.65625 436.910156 15.183594 436.910156 15.886719 L 436.910156 20.160156 L 435.859375 20.160156 L 435.859375 16.238281 C 435.855469 15.820312 435.820312 15.515625 435.757812 15.328125 C 435.6875 15.144531 435.566406 14.996094 435.386719 14.882812 C 435.207031 14.769531 434.996094 14.710938 434.753906 14.710938 C 434.316406 14.710938 433.953125 14.859375 433.664062 15.148438 C 433.375 15.441406 433.230469 15.90625 433.230469 16.542969 L 433.230469 20.160156 L 432.175781 20.160156 L 432.175781 16.117188 C 432.175781 15.648438 432.089844 15.296875 431.917969 15.0625 C 431.746094 14.828125 431.464844 14.710938 431.074219 14.710938 C 430.777344 14.710938 430.5 14.789062 430.25 14.945312 C 429.996094 15.101562 429.816406 15.332031 429.703125 15.632812 C 429.585938 15.933594 429.527344 16.367188 429.53125 16.933594 L 429.53125 20.160156 Z M 399.675781 9.296875 "/>
<path fill-rule="nonzero" fill="rgb(60%, 40%, 100%)" fill-opacity="1" d="M 447.683594 10 L 487.683594 10 L 487.683594 22 L 447.683594 22 Z M 447.683594 10 "/>
<path fill-rule="nonzero" fill="rgb(40%, 40%, 40%)" fill-opacity="1" d="M 494.183594 17.910156 L 495.289062 17.816406 C 495.367188 18.355469 495.554688 18.761719 495.859375 19.035156 C 496.15625 19.308594 496.519531 19.445312 496.941406 19.441406 C 497.449219 19.445312 497.878906 19.253906 498.230469 18.867188 C 498.582031 18.488281 498.757812 17.980469 498.757812 17.339844 C 498.757812 16.746094 498.585938 16.269531 498.25 15.917969 C 497.910156 15.570312 497.46875 15.398438 496.925781 15.394531 C 496.582031 15.398438 496.277344 15.476562 496.003906 15.628906 C 495.730469 15.785156 495.515625 15.984375 495.359375 16.230469 L 494.371094 16.097656 L 495.199219 11.6875 L 499.472656 11.6875 L 499.472656 12.695312 L 496.042969 12.695312 L 495.582031 15.003906 C 496.097656 14.644531 496.636719 14.464844 497.207031 14.464844 C 497.953125 14.464844 498.585938 14.726562 499.105469 15.246094 C 499.617188 15.765625 499.875 16.433594 499.878906 17.246094 C 499.875 18.027344 499.648438 18.699219 499.199219 19.261719 C 498.644531 19.960938 497.894531 20.304688 496.941406 20.308594 C 496.160156 20.304688 495.519531 20.089844 495.027344 19.652344 C 494.527344 19.21875 494.246094 18.636719 494.183594 17.910156 Z M 500.742188 17.582031 L 500.742188 16.519531 L 503.980469 16.519531 L 503.980469 17.582031 Z M 504.949219 20.675781 L 505.976562 20.828125 C 506.015625 21.140625 506.136719 21.371094 506.332031 21.519531 C 506.59375 21.714844 506.949219 21.8125 507.40625 21.8125 C 507.890625 21.8125 508.269531 21.714844 508.535156 21.519531 C 508.800781 21.324219 508.980469 21.050781 509.074219 20.699219 C 509.128906 20.484375 509.152344 20.035156 509.148438 19.347656 C 508.6875 19.890625 508.113281 20.160156 507.429688 20.160156 C 506.570312 20.160156 505.910156 19.851562 505.441406 19.234375 C 504.972656 18.617188 504.738281 17.878906 504.738281 17.011719 C 504.738281 16.421875 504.84375 15.875 505.058594 15.371094 C 505.273438 14.871094 505.585938 14.480469 505.996094 14.207031 C 506.402344 13.933594 506.882812 13.796875 507.433594 13.796875 C 508.167969 13.796875 508.773438 14.09375 509.25 14.6875 L 509.25 13.9375 L 510.222656 13.9375 L 510.222656 19.316406 C 510.222656 20.285156 510.121094 20.96875 509.925781 21.375 C 509.726562 21.773438 509.414062 22.09375 508.988281 22.332031 C 508.558594 22.5625 508.035156 22.679688 507.410156 22.683594 C 506.667969 22.679688 506.066406 22.511719 505.609375 22.183594 C 505.152344 21.847656 504.933594 21.347656 504.949219 20.675781 Z M 505.820312 16.9375 C 505.816406 17.753906 505.980469 18.351562 506.308594 18.722656 C 506.632812 19.101562 507.039062 19.289062 507.527344 19.285156 C 508.011719 19.289062 508.417969 19.101562 508.746094 18.726562 C 509.074219 18.355469 509.238281 17.769531 509.238281 16.972656 C 509.238281 16.214844 509.066406 15.640625 508.730469 15.25 C 508.390625 14.863281 507.984375 14.671875 507.507812 14.667969 C 507.035156 14.671875 506.636719 14.863281 506.3125 15.242188 C 505.980469 15.625 505.816406 16.1875 505.820312 16.9375 Z M 511.808594 20.160156 L 511.808594 13.9375 L 512.753906 13.9375 L 512.753906 14.878906 C 512.996094 14.441406 513.21875 14.148438 513.425781 14.007812 C 513.628906 13.867188 513.855469 13.796875 514.105469 13.796875 C 514.457031 13.796875 514.820312 13.910156 515.1875 14.136719 L 514.824219 15.113281 C 514.566406 14.964844 514.308594 14.886719 514.050781 14.886719 C 513.820312 14.886719 513.613281 14.957031 513.429688 15.09375 C 513.242188 15.234375 513.109375 15.425781 513.035156 15.671875 C 512.917969 16.046875 512.859375 16.457031 512.863281 16.902344 L 512.863281 20.160156 Z M 519.875 19.394531 C 519.484375 19.726562 519.105469 19.960938 518.746094 20.097656 C 518.378906 20.234375 517.992188 20.300781 517.585938 20.300781 C 516.898438 20.300781 516.375 20.136719 516.007812 19.800781 C 515.640625 19.472656 515.457031 19.042969 515.457031 18.519531 C 515.457031 18.214844 515.523438 17.9375 515.664062 17.6875 C 515.800781 17.4375 515.984375 17.234375 516.210938 17.078125 C 516.433594 16.925781 516.6875 16.8125 516.96875 16.730469 C 517.175781 16.683594 517.488281 16.628906 517.90625 16.574219 C 518.757812 16.472656 519.382812 16.351562 519.789062 16.210938 C 519.789062 16.070312 519.792969 15.980469 519.792969 15.933594 C 519.792969 15.511719 519.691406 15.207031 519.492188 15.027344 C 519.222656 14.789062 518.824219 14.671875 518.292969 14.667969 C 517.792969 14.671875 517.425781 14.757812 517.191406 14.929688 C 516.957031 15.105469 516.78125 15.414062 516.671875 15.855469 L 515.640625 15.714844 C 515.730469 15.273438 515.886719 14.917969 516.101562 14.644531 C 516.3125 14.378906 516.621094 14.167969 517.03125 14.019531 C 517.433594 13.871094 517.90625 13.796875 518.445312 13.796875 C 518.976562 13.796875 519.40625 13.859375 519.738281 13.984375 C 520.070312 14.109375 520.316406 14.269531 520.472656 14.457031 C 520.628906 14.648438 520.738281 14.886719 520.800781 15.175781 C 520.832031 15.355469 520.847656 15.679688 520.851562 16.144531 L 520.851562 17.550781 C 520.847656 18.535156 520.871094 19.15625 520.917969 19.414062 C 520.964844 19.675781 521.054688 19.921875 521.1875 20.160156 L 520.085938 20.160156 C 519.976562 19.941406 519.90625 19.6875 519.875 19.394531 Z M 519.789062 17.035156 C 519.398438 17.195312 518.824219 17.328125 518.0625 17.433594 C 517.628906 17.5 517.324219 17.570312 517.144531 17.644531 C 516.964844 17.726562 516.824219 17.839844 516.726562 17.988281 C 516.628906 18.140625 516.582031 18.308594 516.582031 18.488281 C 516.582031 18.773438 516.6875 19.007812 516.898438 19.191406 C 517.109375 19.382812 517.421875 19.476562 517.835938 19.472656 C 518.242188 19.476562 518.601562 19.386719 518.917969 19.207031 C 519.234375 19.03125 519.46875 18.789062 519.617188 18.480469 C 519.730469 18.242188 519.785156 17.890625 519.789062 17.425781 Z M 522.484375 20.160156 L 522.484375 13.9375 L 523.429688 13.9375 L 523.429688 14.808594 C 523.625 14.511719 523.882812 14.265625 524.207031 14.078125 C 524.53125 13.890625 524.902344 13.796875 525.316406 13.796875 C 525.777344 13.796875 526.152344 13.894531 526.449219 14.085938 C 526.738281 14.277344 526.949219 14.542969 527.074219 14.886719 C 527.566406 14.160156 528.207031 13.796875 528.996094 13.796875 C 529.613281 13.796875 530.085938 13.96875 530.417969 14.3125 C 530.75 14.65625 530.917969 15.183594 530.917969 15.886719 L 530.917969 20.160156 L 529.867188 20.160156 L 529.867188 16.238281 C 529.863281 15.820312 529.828125 15.515625 529.765625 15.328125 C 529.695312 15.144531 529.574219 14.996094 529.394531 14.882812 C 529.214844 14.769531 529.003906 14.710938 528.761719 14.710938 C 528.324219 14.710938 527.960938 14.859375 527.671875 15.148438 C 527.382812 15.441406 527.238281 15.90625 527.238281 16.542969 L 527.238281 20.160156 L 526.183594 20.160156 L 526.183594 16.117188 C 526.183594 15.648438 526.097656 15.296875 525.925781 15.0625 C 525.753906 14.828125 525.472656 14.710938 525.082031 14.710938 C 524.785156 14.710938 524.507812 14.789062 524.257812 14.945312 C 524.003906 15.101562 523.824219 15.332031 523.710938 15.632812 C 523.59375 15.933594 523.535156 16.367188 523.539062 16.933594 L 523.539062 20.160156 Z M 493.683594 9.296875 "/>
<path fill="none" stroke-width="1" stroke-linecap="butt" stroke-linejoin="miter" stroke="rgb(0%, 0%, 0%)" stroke-opacity="0.0980392" stroke-miterlimit="10" d="M 73 171.5 L 601 171.5 "/>
<path fill-rule="nonzero" fill="rgb(40%, 40%, 40%)" fill-opacity="1" d="M 150.261719 190.203125 L 144.574219 192.636719 L 144.574219 191.585938 L 149.082031 189.71875 L 144.574219 187.867188 L 144.574219 186.820312 L 150.261719 189.21875 Z M 155.394531 193.960938 L 154.339844 193.960938 L 154.339844 187.242188 C 154.085938 187.484375 153.753906 187.726562 153.339844 187.964844 C 152.925781 188.210938 152.554688 188.390625 152.230469 188.511719 L 152.230469 187.492188 C 152.820312 187.21875 153.335938 186.882812 153.777344 186.484375 C 154.21875 186.089844 154.53125 185.707031 154.714844 185.335938 L 155.394531 185.335938 Z M 158.492188 193.960938 L 158.492188 185.371094 L 160.203125 185.371094 L 162.234375 191.453125 C 162.417969 192.023438 162.554688 192.449219 162.648438 192.726562 C 162.742188 192.417969 162.894531 191.957031 163.101562 191.347656 L 165.160156 185.371094 L 166.6875 185.371094 L 166.6875 193.960938 L 165.59375 193.960938 L 165.59375 186.773438 L 163.097656 193.960938 L 162.070312 193.960938 L 159.585938 186.648438 L 159.585938 193.960938 Z M 168.679688 188.9375 L 168.679688 187.738281 L 169.878906 187.738281 L 169.878906 188.9375 Z M 168.679688 193.960938 L 168.679688 192.757812 L 169.878906 192.757812 L 169.878906 193.960938 Z M 175.398438 193.960938 L 174.34375 193.960938 L 174.34375 187.242188 C 174.089844 187.484375 173.757812 187.726562 173.34375 187.964844 C 172.929688 188.210938 172.558594 188.390625 172.234375 188.511719 L 172.234375 187.492188 C 172.824219 187.21875 173.339844 186.882812 173.78125 186.484375 C 174.222656 186.089844 174.535156 185.707031 174.71875 185.335938 L 175.398438 185.335938 Z M 143.917969 183.097656 "/>
<path fill-rule="nonzero" fill="rgb(40%, 40%, 40%)" fill-opacity="1" d="M 319.894531 190.203125 L 314.207031 192.636719 L 314.207031 191.585938 L 318.714844 189.71875 L 314.207031 187.867188 L 314.207031 186.820312 L 319.894531 189.21875 Z M 326.597656 192.945312 L 326.597656 193.960938 L 320.921875 193.960938 C 320.914062 193.707031 320.953125 193.464844 321.042969 193.226562 C 321.1875 192.84375 321.417969 192.460938 321.738281 192.085938 C 322.050781 191.710938 322.511719 191.277344 323.121094 190.785156 C 324.050781 190.019531 324.683594 189.414062 325.011719 188.96875 C 325.339844 188.523438 325.503906 188.101562 325.503906 187.695312 C 325.503906 187.28125 325.351562 186.929688 325.054688 186.640625 C 324.75 186.359375 324.363281 186.214844 323.886719 186.210938 C 323.378906 186.214844 322.972656 186.367188 322.667969 186.667969 C 322.363281 186.976562 322.207031 187.398438 322.207031 187.929688 L 321.121094 187.820312 C 321.191406 187.015625 321.46875 186.402344 321.957031 185.972656 C 322.4375 185.550781 323.089844 185.335938 323.910156 185.335938 C 324.730469 185.335938 325.382812 185.566406 325.867188 186.023438 C 326.347656 186.480469 326.585938 187.046875 326.589844 187.71875 C 326.585938 188.066406 326.515625 188.402344 326.378906 188.734375 C 326.234375 189.070312 326 189.421875 325.675781 189.785156 C 325.347656 190.15625 324.808594 190.660156 324.050781 191.296875 C 323.417969 191.832031 323.011719 192.191406 322.832031 192.378906 C 322.652344 192.566406 322.503906 192.757812 322.386719 192.945312 Z M 327.734375 189.726562 C 327.730469 188.714844 327.835938 187.898438 328.046875 187.273438 C 328.253906 186.65625 328.5625 186.175781 328.976562 185.839844 C 329.382812 185.503906 329.902344 185.335938 330.53125 185.335938 C 330.992188 185.335938 331.398438 185.429688 331.746094 185.613281 C 332.089844 185.800781 332.375 186.070312 332.605469 186.417969 C 332.828125 186.769531 333.007812 187.195312 333.140625 187.695312 C 333.269531 188.199219 333.332031 188.875 333.335938 189.726562 C 333.332031 190.734375 333.230469 191.546875 333.023438 192.164062 C 332.8125 192.785156 332.5 193.265625 332.09375 193.601562 C 331.679688 193.941406 331.160156 194.105469 330.53125 194.109375 C 329.699219 194.105469 329.050781 193.8125 328.582031 193.21875 C 328.015625 192.503906 327.730469 191.339844 327.734375 189.726562 Z M 328.816406 189.726562 C 328.816406 191.136719 328.980469 192.074219 329.308594 192.542969 C 329.636719 193.011719 330.042969 193.246094 330.53125 193.242188 C 331.011719 193.246094 331.417969 193.011719 331.753906 192.539062 C 332.082031 192.074219 332.25 191.136719 332.25 189.726562 C 332.25 188.3125 332.082031 187.371094 331.753906 186.90625 C 331.417969 186.445312 331.007812 186.214844 330.523438 186.210938 C 330.035156 186.214844 329.648438 186.417969 329.359375 186.824219 C 328.996094 187.347656 328.816406 188.316406 328.816406 189.726562 Z M 334.40625 189.726562 C 334.402344 188.714844 334.507812 187.898438 334.71875 187.273438 C 334.925781 186.65625 335.234375 186.175781 335.648438 185.839844 C 336.054688 185.503906 336.574219 185.335938 337.203125 185.335938 C 337.664062 185.335938 338.070312 185.429688 338.417969 185.613281 C 338.761719 185.800781 339.046875 186.070312 339.277344 186.417969 C 339.5 186.769531 339.679688 187.195312 339.8125 187.695312 C 339.941406 188.199219 340.003906 188.875 340.007812 189.726562 C 340.003906 190.734375 339.902344 191.546875 339.695312 192.164062 C 339.484375 192.785156 339.171875 193.265625 338.765625 193.601562 C 338.351562 193.941406 337.832031 194.105469 337.203125 194.109375 C 336.371094 194.105469 335.722656 193.8125 335.253906 193.21875 C 334.6875 192.503906 334.402344 191.339844 334.40625 189.726562 Z M 335.488281 189.726562 C 335.488281 191.136719 335.652344 192.074219 335.980469 192.542969 C 336.308594 193.011719 336.714844 193.246094 337.203125 193.242188 C 337.683594 193.246094 338.089844 193.011719 338.425781 192.539062 C 338.753906 192.074219 338.921875 191.136719 338.921875 189.726562 C 338.921875 188.3125 338.753906 187.371094 338.425781 186.90625 C 338.089844 186.445312 337.679688 186.214844 337.195312 186.210938 C 336.707031 186.214844 336.320312 186.417969 336.03125 186.824219 C 335.667969 187.347656 335.488281 188.316406 335.488281 189.726562 Z M 341.457031 193.960938 L 341.457031 185.371094 L 342.59375 185.371094 L 342.59375 189.632812 L 346.859375 185.371094 L 348.398438 185.371094 L 344.796875 188.851562 L 348.558594 193.960938 L 347.058594 193.960938 L 344 189.613281 L 342.59375 190.984375 L 342.59375 193.960938 Z M 349.671875 188.9375 L 349.671875 187.738281 L 350.871094 187.738281 L 350.871094 188.9375 Z M 349.671875 193.960938 L 349.671875 192.757812 L 350.871094 192.757812 L 350.871094 193.960938 Z M 356.386719 193.960938 L 355.332031 193.960938 L 355.332031 187.242188 C 355.078125 187.484375 354.746094 187.726562 354.332031 187.964844 C 353.917969 188.210938 353.546875 188.390625 353.222656 188.511719 L 353.222656 187.492188 C 353.8125 187.21875 354.328125 186.882812 354.769531 186.484375 C 355.210938 186.089844 355.523438 185.707031 355.707031 185.335938 L 356.386719 185.335938 Z M 313.550781 183.097656 "/>
<path fill-rule="nonzero" fill="rgb(40%, 40%, 40%)" fill-opacity="1" d="M 499.527344 190.203125 L 493.839844 192.636719 L 493.839844 191.585938 L 498.347656 189.71875 L 493.839844 187.867188 L 493.839844 186.820312 L 499.527344 189.21875 Z M 504.660156 193.960938 L 503.605469 193.960938 L 503.605469 187.242188 C 503.351562 187.484375 503.019531 187.726562 502.605469 187.964844 C 502.191406 188.210938 501.820312 188.390625 501.496094 188.511719 L 501.496094 187.492188 C 502.085938 187.21875 502.601562 186.882812 503.042969 186.484375 C 503.484375 186.089844 503.796875 185.707031 503.980469 185.335938 L 504.660156 185.335938 Z M 507.367188 191.710938 L 508.472656 191.617188 C 508.550781 192.15625 508.738281 192.5625 509.042969 192.835938 C 509.339844 193.109375 509.703125 193.246094 510.125 193.242188 C 510.632812 193.246094 511.0625 193.054688 511.414062 192.667969 C 511.765625 192.289062 511.941406 191.78125 511.941406 191.140625 C 511.941406 190.546875 511.769531 190.070312 511.433594 189.71875 C 511.09375 189.371094 510.652344 189.199219 510.109375 189.195312 C 509.765625 189.199219 509.460938 189.277344 509.1875 189.429688 C 508.914062 189.585938 508.699219 189.785156 508.542969 190.03125 L 507.554688 189.898438 L 508.382812 185.488281 L 512.65625 185.488281 L 512.65625 186.496094 L 509.226562 186.496094 L 508.765625 188.804688 C 509.28125 188.445312 509.820312 188.265625 510.390625 188.265625 C 511.136719 188.265625 511.769531 188.527344 512.289062 189.046875 C 512.800781 189.566406 513.058594 190.234375 513.0625 191.046875 C 513.058594 191.828125 512.832031 192.5 512.382812 193.0625 C 511.828125 193.761719 511.078125 194.105469 510.125 194.109375 C 509.34375 194.105469 508.703125 193.890625 508.210938 193.453125 C 507.710938 193.019531 507.429688 192.4375 507.367188 191.710938 Z M 514.417969 193.960938 L 514.417969 185.371094 L 515.554688 185.371094 L 515.554688 189.632812 L 519.820312 185.371094 L 521.359375 185.371094 L 517.757812 188.851562 L 521.519531 193.960938 L 520.019531 193.960938 L 516.960938 189.613281 L 515.554688 190.984375 L 515.554688 193.960938 Z M 522.628906 188.9375 L 522.628906 187.738281 L 523.828125 187.738281 L 523.828125 188.9375 Z M 522.628906 193.960938 L 522.628906 192.757812 L 523.828125 192.757812 L 523.828125 193.960938 Z M 529.34375 193.960938 L 528.289062 193.960938 L 528.289062 187.242188 C 528.035156 187.484375 527.703125 187.726562 527.289062 187.964844 C 526.875 188.210938 526.503906 188.390625 526.179688 188.511719 L 526.179688 187.492188 C 526.769531 187.21875 527.285156 186.882812 527.726562 186.484375 C 528.167969 186.089844 528.480469 185.707031 528.664062 185.335938 L 529.34375 185.335938 Z M 493.183594 183.097656 "/>
<path fill="none" stroke-width="1" stroke-linecap="butt" stroke-linejoin="miter" stroke="rgb(0%, 0%, 0%)" stroke-opacity="0.0980392" stroke-miterlimit="10" d="M 73.5 32 L 73.5 172 "/>
<path fill-rule="nonzero" fill="rgb(40%, 40%, 40%)" fill-opacity="1" d="M 59.570312 175.761719 L 58.515625 175.761719 L 58.515625 169.042969 C 58.261719 169.285156 57.929688 169.527344 57.515625 169.765625 C 57.101562 170.011719 56.730469 170.191406 56.40625 170.3125 L 56.40625 169.292969 C 56.996094 169.019531 57.511719 168.683594 57.953125 168.285156 C 58.394531 167.890625 58.707031 167.507812 58.890625 167.136719 L 59.570312 167.136719 Z M 55.101562 164.898438 "/>
<path fill-rule="nonzero" fill="rgb(40%, 40%, 40%)" fill-opacity="1" d="M 52.570312 146.542969 L 51.515625 146.542969 L 51.515625 139.824219 C 51.261719 140.066406 50.929688 140.308594 50.515625 140.546875 C 50.101562 140.792969 49.730469 140.972656 49.40625 141.09375 L 49.40625 140.074219 C 49.996094 139.800781 50.511719 139.464844 50.953125 139.066406 C 51.394531 138.671875 51.707031 138.289062 51.890625 137.917969 L 52.570312 137.917969 Z M 55.273438 142.308594 C 55.269531 141.296875 55.375 140.480469 55.585938 139.855469 C 55.792969 139.238281 56.101562 138.757812 56.515625 138.421875 C 56.921875 138.085938 57.441406 137.917969 58.070312 137.917969 C 58.53125 137.917969 58.9375 138.011719 59.285156 138.195312 C 59.628906 138.382812 59.914062 138.652344 60.144531 139 C 60.367188 139.351562 60.546875 139.777344 60.679688 140.277344 C 60.808594 140.78125 60.871094 141.457031 60.875 142.308594 C 60.871094 143.316406 60.769531 144.128906 60.5625 144.746094 C 60.351562 145.367188 60.039062 145.847656 59.632812 146.183594 C 59.21875 146.523438 58.699219 146.6875 58.070312 146.691406 C 57.238281 146.6875 56.589844 146.394531 56.121094 145.800781 C 55.554688 145.085938 55.269531 143.921875 55.273438 142.308594 Z M 56.355469 142.308594 C 56.355469 143.71875 56.519531 144.65625 56.847656 145.125 C 57.175781 145.59375 57.582031 145.828125 58.070312 145.824219 C 58.550781 145.828125 58.957031 145.59375 59.292969 145.121094 C 59.621094 144.65625 59.789062 143.71875 59.789062 142.308594 C 59.789062 140.894531 59.621094 139.953125 59.292969 139.488281 C 58.957031 139.027344 58.546875 138.796875 58.0625 138.792969 C 57.574219 138.796875 57.1875 139 56.898438 139.40625 C 56.535156 139.929688 56.355469 140.898438 56.355469 142.308594 Z M 48.101562 135.679688 "/>
<path fill-rule="nonzero" fill="rgb(40%, 40%, 40%)" fill-opacity="1" d="M 45.570312 117.328125 L 44.515625 117.328125 L 44.515625 110.609375 C 44.261719 110.851562 43.929688 111.09375 43.515625 111.332031 C 43.101562 111.578125 42.730469 111.757812 42.40625 111.878906 L 42.40625 110.859375 C 42.996094 110.585938 43.511719 110.25 43.953125 109.851562 C 44.394531 109.457031 44.707031 109.074219 44.890625 108.703125 L 45.570312 108.703125 Z M 48.273438 113.09375 C 48.269531 112.082031 48.375 111.265625 48.585938 110.640625 C 48.792969 110.023438 49.101562 109.542969 49.515625 109.207031 C 49.921875 108.871094 50.441406 108.703125 51.070312 108.703125 C 51.53125 108.703125 51.9375 108.796875 52.285156 108.980469 C 52.628906 109.167969 52.914062 109.4375 53.144531 109.785156 C 53.367188 110.136719 53.546875 110.5625 53.679688 111.0625 C 53.808594 111.566406 53.871094 112.242188 53.875 113.09375 C 53.871094 114.101562 53.769531 114.914062 53.5625 115.53125 C 53.351562 116.152344 53.039062 116.632812 52.632812 116.96875 C 52.21875 117.308594 51.699219 117.472656 51.070312 117.476562 C 50.238281 117.472656 49.589844 117.179688 49.121094 116.585938 C 48.554688 115.871094 48.269531 114.707031 48.273438 113.09375 Z M 49.355469 113.09375 C 49.355469 114.503906 49.519531 115.441406 49.847656 115.910156 C 50.175781 116.378906 50.582031 116.613281 51.070312 116.609375 C 51.550781 116.613281 51.957031 116.378906 52.292969 115.90625 C 52.621094 115.441406 52.789062 114.503906 52.789062 113.09375 C 52.789062 111.679688 52.621094 110.738281 52.292969 110.273438 C 51.957031 109.8125 51.546875 109.582031 51.0625 109.578125 C 50.574219 109.582031 50.1875 109.785156 49.898438 110.191406 C 49.535156 110.714844 49.355469 111.683594 49.355469 113.09375 Z M 54.949219 113.09375 C 54.945312 112.082031 55.050781 111.265625 55.261719 110.640625 C 55.46875 110.023438 55.777344 109.542969 56.191406 109.207031 C 56.597656 108.871094 57.117188 108.703125 57.746094 108.703125 C 58.207031 108.703125 58.613281 108.796875 58.960938 108.980469 C 59.304688 109.167969 59.589844 109.4375 59.820312 109.785156 C 60.042969 110.136719 60.222656 110.5625 60.355469 111.0625 C 60.484375 111.566406 60.546875 112.242188 60.550781 113.09375 C 60.546875 114.101562 60.445312 114.914062 60.238281 115.53125 C 60.027344 116.152344 59.714844 116.632812 59.308594 116.96875 C 58.894531 117.308594 58.375 117.472656 57.746094 117.476562 C 56.914062 117.472656 56.265625 117.179688 55.796875 116.585938 C 55.230469 115.871094 54.945312 114.707031 54.949219 113.09375 Z M 56.03125 113.09375 C 56.03125 114.503906 56.195312 115.441406 56.523438 115.910156 C 56.851562 116.378906 57.257812 116.613281 57.746094 116.609375 C 58.226562 116.613281 58.632812 116.378906 58.96875 115.90625 C 59.296875 115.441406 59.464844 114.503906 59.464844 113.09375 C 59.464844 111.679688 59.296875 110.738281 58.96875 110.273438 C 58.632812 109.8125 58.222656 109.582031 57.738281 109.578125 C 57.25 109.582031 56.863281 109.785156 56.574219 110.191406 C 56.210938 110.714844 56.03125 111.683594 56.03125 113.09375 Z M 41.101562 106.464844 "/>
<path fill-rule="nonzero" fill="rgb(40%, 40%, 40%)" fill-opacity="1" d="M 35.570312 88.109375 L 34.515625 88.109375 L 34.515625 81.390625 C 34.261719 81.632812 33.929688 81.875 33.515625 82.113281 C 33.101562 82.359375 32.730469 82.539062 32.40625 82.660156 L 32.40625 81.640625 C 32.996094 81.367188 33.511719 81.03125 33.953125 80.632812 C 34.394531 80.238281 34.707031 79.855469 34.890625 79.484375 L 35.570312 79.484375 Z M 38.839844 88.109375 L 38.839844 86.90625 L 40.039062 86.90625 L 40.039062 88.109375 C 40.035156 88.550781 39.957031 88.90625 39.804688 89.179688 C 39.644531 89.449219 39.398438 89.660156 39.0625 89.808594 L 38.769531 89.359375 C 38.988281 89.257812 39.152344 89.113281 39.261719 88.925781 C 39.367188 88.730469 39.425781 88.460938 39.4375 88.109375 Z M 41.609375 83.875 C 41.605469 82.863281 41.710938 82.046875 41.921875 81.421875 C 42.128906 80.804688 42.4375 80.324219 42.851562 79.988281 C 43.257812 79.652344 43.777344 79.484375 44.40625 79.484375 C 44.867188 79.484375 45.273438 79.578125 45.621094 79.761719 C 45.964844 79.949219 46.25 80.21875 46.480469 80.566406 C 46.703125 80.917969 46.882812 81.34375 47.015625 81.84375 C 47.144531 82.347656 47.207031 83.023438 47.210938 83.875 C 47.207031 84.882812 47.105469 85.695312 46.898438 86.3125 C 46.6875 86.933594 46.375 87.414062 45.96875 87.75 C 45.554688 88.089844 45.035156 88.253906 44.40625 88.257812 C 43.574219 88.253906 42.925781 87.960938 42.457031 87.367188 C 41.890625 86.652344 41.605469 85.488281 41.609375 83.875 Z M 42.691406 83.875 C 42.691406 85.285156 42.855469 86.222656 43.183594 86.691406 C 43.511719 87.160156 43.917969 87.394531 44.40625 87.390625 C 44.886719 87.394531 45.292969 87.160156 45.628906 86.6875 C 45.957031 86.222656 46.125 85.285156 46.125 83.875 C 46.125 82.460938 45.957031 81.519531 45.628906 81.054688 C 45.292969 80.59375 44.882812 80.363281 44.398438 80.359375 C 43.910156 80.363281 43.523438 80.566406 43.234375 80.972656 C 42.871094 81.496094 42.691406 82.464844 42.691406 83.875 Z M 48.28125 83.875 C 48.277344 82.863281 48.382812 82.046875 48.59375 81.421875 C 48.800781 80.804688 49.109375 80.324219 49.523438 79.988281 C 49.929688 79.652344 50.449219 79.484375 51.078125 79.484375 C 51.539062 79.484375 51.945312 79.578125 52.292969 79.761719 C 52.636719 79.949219 52.921875 80.21875 53.152344 80.566406 C 53.375 80.917969 53.554688 81.34375 53.6875 81.84375 C 53.816406 82.347656 53.878906 83.023438 53.882812 83.875 C 53.878906 84.882812 53.777344 85.695312 53.570312 86.3125 C 53.359375 86.933594 53.046875 87.414062 52.640625 87.75 C 52.226562 88.089844 51.707031 88.253906 51.078125 88.257812 C 50.246094 88.253906 49.597656 87.960938 49.128906 87.367188 C 48.5625 86.652344 48.277344 85.488281 48.28125 83.875 Z M 49.363281 83.875 C 49.363281 85.285156 49.527344 86.222656 49.855469 86.691406 C 50.183594 87.160156 50.589844 87.394531 51.078125 87.390625 C 51.558594 87.394531 51.964844 87.160156 52.300781 86.6875 C 52.628906 86.222656 52.796875 85.285156 52.796875 83.875 C 52.796875 82.460938 52.628906 81.519531 52.300781 81.054688 C 51.964844 80.59375 51.554688 80.363281 51.070312 80.359375 C 50.582031 80.363281 50.195312 80.566406 49.90625 80.972656 C 49.542969 81.496094 49.363281 82.464844 49.363281 83.875 Z M 54.957031 83.875 C 54.953125 82.863281 55.058594 82.046875 55.269531 81.421875 C 55.476562 80.804688 55.785156 80.324219 56.199219 79.988281 C 56.605469 79.652344 57.125 79.484375 57.753906 79.484375 C 58.214844 79.484375 58.621094 79.578125 58.96875 79.761719 C 59.3125 79.949219 59.597656 80.21875 59.828125 80.566406 C 60.050781 80.917969 60.230469 81.34375 60.363281 81.84375 C 60.492188 82.347656 60.554688 83.023438 60.558594 83.875 C 60.554688 84.882812 60.453125 85.695312 60.246094 86.3125 C 60.035156 86.933594 59.722656 87.414062 59.316406 87.75 C 58.902344 88.089844 58.382812 88.253906 57.753906 88.257812 C 56.921875 88.253906 56.273438 87.960938 55.804688 87.367188 C 55.238281 86.652344 54.953125 85.488281 54.957031 83.875 Z M 56.039062 83.875 C 56.039062 85.285156 56.203125 86.222656 56.53125 86.691406 C 56.859375 87.160156 57.265625 87.394531 57.753906 87.390625 C 58.234375 87.394531 58.640625 87.160156 58.976562 86.6875 C 59.304688 86.222656 59.472656 85.285156 59.472656 83.875 C 59.472656 82.460938 59.304688 81.519531 58.976562 81.054688 C 58.640625 80.59375 58.230469 80.363281 57.746094 80.359375 C 57.257812 80.363281 56.871094 80.566406 56.582031 80.972656 C 56.21875 81.496094 56.039062 82.464844 56.039062 83.875 Z M 31.101562 77.246094 "/>
<path fill-rule="nonzero" fill="rgb(40%, 40%, 40%)" fill-opacity="1" d="M 29.570312 58.894531 L 28.515625 58.894531 L 28.515625 52.175781 C 28.261719 52.417969 27.929688 52.660156 27.515625 52.898438 C 27.101562 53.144531 26.730469 53.324219 26.40625 53.445312 L 26.40625 52.425781 C 26.996094 52.152344 27.511719 51.816406 27.953125 51.417969 C 28.394531 51.023438 28.707031 50.640625 28.890625 50.269531 L 29.570312 50.269531 Z M 32.273438 54.660156 C 32.269531 53.648438 32.375 52.832031 32.585938 52.207031 C 32.792969 51.589844 33.101562 51.109375 33.515625 50.773438 C 33.921875 50.4375 34.441406 50.269531 35.070312 50.269531 C 35.53125 50.269531 35.9375 50.363281 36.285156 50.546875 C 36.628906 50.734375 36.914062 51.003906 37.144531 51.351562 C 37.367188 51.703125 37.546875 52.128906 37.679688 52.628906 C 37.808594 53.132812 37.871094 53.808594 37.875 54.660156 C 37.871094 55.667969 37.769531 56.480469 37.5625 57.097656 C 37.351562 57.71875 37.039062 58.199219 36.632812 58.535156 C 36.21875 58.875 35.699219 59.039062 35.070312 59.042969 C 34.238281 59.039062 33.589844 58.746094 33.121094 58.152344 C 32.554688 57.4375 32.269531 56.273438 32.273438 54.660156 Z M 33.355469 54.660156 C 33.355469 56.070312 33.519531 57.007812 33.847656 57.476562 C 34.175781 57.945312 34.582031 58.179688 35.070312 58.175781 C 35.550781 58.179688 35.957031 57.945312 36.292969 57.472656 C 36.621094 57.007812 36.789062 56.070312 36.789062 54.660156 C 36.789062 53.246094 36.621094 52.304688 36.292969 51.839844 C 35.957031 51.378906 35.546875 51.148438 35.0625 51.144531 C 34.574219 51.148438 34.1875 51.351562 33.898438 51.757812 C 33.535156 52.28125 33.355469 53.25 33.355469 54.660156 Z M 39.515625 58.894531 L 39.515625 57.691406 L 40.714844 57.691406 L 40.714844 58.894531 C 40.710938 59.335938 40.632812 59.691406 40.480469 59.964844 C 40.320312 60.234375 40.074219 60.445312 39.738281 60.59375 L 39.445312 60.144531 C 39.664062 60.042969 39.828125 59.898438 39.9375 59.710938 C 40.042969 59.515625 40.101562 59.246094 40.113281 58.894531 Z M 42.28125 54.660156 C 42.277344 53.648438 42.382812 52.832031 42.59375 52.207031 C 42.800781 51.589844 43.109375 51.109375 43.523438 50.773438 C 43.929688 50.4375 44.449219 50.269531 45.078125 50.269531 C 45.539062 50.269531 45.945312 50.363281 46.292969 50.546875 C 46.636719 50.734375 46.921875 51.003906 47.152344 51.351562 C 47.375 51.703125 47.554688 52.128906 47.6875 52.628906 C 47.816406 53.132812 47.878906 53.808594 47.882812 54.660156 C 47.878906 55.667969 47.777344 56.480469 47.570312 57.097656 C 47.359375 57.71875 47.046875 58.199219 46.640625 58.535156 C 46.226562 58.875 45.707031 59.039062 45.078125 59.042969 C 44.246094 59.039062 43.597656 58.746094 43.128906 58.152344 C 42.5625 57.4375 42.277344 56.273438 42.28125 54.660156 Z M 43.363281 54.660156 C 43.363281 56.070312 43.527344 57.007812 43.855469 57.476562 C 44.183594 57.945312 44.589844 58.179688 45.078125 58.175781 C 45.558594 58.179688 45.964844 57.945312 46.300781 57.472656 C 46.628906 57.007812 46.796875 56.070312 46.796875 54.660156 C 46.796875 53.246094 46.628906 52.304688 46.300781 51.839844 C 45.964844 51.378906 45.554688 51.148438 45.070312 51.144531 C 44.582031 51.148438 44.195312 51.351562 43.90625 51.757812 C 43.542969 52.28125 43.363281 53.25 43.363281 54.660156 Z M 48.957031 54.660156 C 48.953125 53.648438 49.058594 52.832031 49.269531 52.207031 C 49.476562 51.589844 49.785156 51.109375 50.199219 50.773438 C 50.605469 50.4375 51.125 50.269531 51.753906 50.269531 C 52.214844 50.269531 52.621094 50.363281 52.96875 50.546875 C 53.3125 50.734375 53.597656 51.003906 53.828125 51.351562 C 54.050781 51.703125 54.230469 52.128906 54.363281 52.628906 C 54.492188 53.132812 54.554688 53.808594 54.558594 54.660156 C 54.554688 55.667969 54.453125 56.480469 54.246094 57.097656 C 54.035156 57.71875 53.722656 58.199219 53.316406 58.535156 C 52.902344 58.875 52.382812 59.039062 51.753906 59.042969 C 50.921875 59.039062 50.273438 58.746094 49.804688 58.152344 C 49.238281 57.4375 48.953125 56.273438 48.957031 54.660156 Z M 50.039062 54.660156 C 50.039062 56.070312 50.203125 57.007812 50.53125 57.476562 C 50.859375 57.945312 51.265625 58.179688 51.753906 58.175781 C 52.234375 58.179688 52.640625 57.945312 52.976562 57.472656 C 53.304688 57.007812 53.472656 56.070312 53.472656 54.660156 C 53.472656 53.246094 53.304688 52.304688 52.976562 51.839844 C 52.640625 51.378906 52.230469 51.148438 51.746094 51.144531 C 51.257812 51.148438 50.871094 51.351562 50.582031 51.757812 C 50.21875 52.28125 50.039062 53.25 50.039062 54.660156 Z M 55.632812 54.660156 C 55.628906 53.648438 55.734375 52.832031 55.945312 52.207031 C 56.152344 51.589844 56.460938 51.109375 56.875 50.773438 C 57.28125 50.4375 57.800781 50.269531 58.429688 50.269531 C 58.890625 50.269531 59.296875 50.363281 59.644531 50.546875 C 59.988281 50.734375 60.273438 51.003906 60.503906 51.351562 C 60.726562 51.703125 60.90625 52.128906 61.039062 52.628906 C 61.167969 53.132812 61.230469 53.808594 61.234375 54.660156 C 61.230469 55.667969 61.128906 56.480469 60.921875 57.097656 C 60.710938 57.71875 60.398438 58.199219 59.992188 58.535156 C 59.578125 58.875 59.058594 59.039062 58.429688 59.042969 C 57.597656 59.039062 56.949219 58.746094 56.480469 58.152344 C 55.914062 57.4375 55.628906 56.273438 55.632812 54.660156 Z M 56.714844 54.660156 C 56.714844 56.070312 56.878906 57.007812 57.207031 57.476562 C 57.535156 57.945312 57.941406 58.179688 58.429688 58.175781 C 58.910156 58.179688 59.316406 57.945312 59.652344 57.472656 C 59.980469 57.007812 60.148438 56.070312 60.148438 54.660156 C 60.148438 53.246094 59.980469 52.304688 59.652344 51.839844 C 59.316406 51.378906 58.90625 51.148438 58.421875 51.144531 C 57.933594 51.148438 57.546875 51.351562 57.257812 51.757812 C 56.894531 52.28125 56.714844 53.25 56.714844 54.660156 Z M 25.101562 48.03125 "/>
<g clip-path="url(#clip-0)">
<path fill-rule="nonzero" fill="rgb(60%, 40%, 100%)" fill-opacity="1" d="M 207.476562 148.867188 C 205.820312 148.867188 204.476562 150.207031 204.476562 151.867188 L 204.476562 171.601562 L 229.765625 171.601562 L 229.765625 151.867188 C 229.765625 150.207031 228.425781 148.867188 226.765625 148.867188 L 207.476562 148.867188 "/>
</g>
<g clip-path="url(#clip-1)">
<path fill-rule="nonzero" fill="rgb(60%, 40%, 100%)" fill-opacity="1" d="M 383.109375 113.554688 C 381.453125 113.554688 380.109375 114.898438 380.109375 116.554688 L 380.109375 171.601562 L 405.398438 171.601562 L 405.398438 116.554688 C 405.398438 114.898438 404.054688 113.554688 402.398438 113.554688 L 383.109375 113.554688 "/>
</g>
<g clip-path="url(#clip-2)">
<path fill-rule="nonzero" fill="rgb(60%, 40%, 100%)" fill-opacity="1" d="M 558.742188 72.324219 C 557.082031 72.324219 555.742188 73.667969 555.742188 75.324219 L 555.742188 171.601562 L 581.03125 171.601562 L 581.03125 75.324219 C 581.03125 73.667969 579.6875 72.324219 578.03125 72.324219 L 558.742188 72.324219 "/>
</g>
<g clip-path="url(#clip-3)">
<path fill-rule="nonzero" fill="rgb(29.411765%, 75.294118%, 75.294118%)" fill-opacity="1" d="M 179.375 126.488281 C 177.71875 126.488281 176.375 127.832031 176.375 129.488281 L 176.375 171.601562 L 201.664062 171.601562 L 201.664062 129.488281 C 201.664062 127.832031 200.324219 126.488281 198.664062 126.488281 L 179.375 126.488281 "/>
</g>
<g clip-path="url(#clip-4)">
<path fill-rule="nonzero" fill="rgb(29.411765%, 75.294118%, 75.294118%)" fill-opacity="1" d="M 355.007812 97.640625 C 353.351562 97.640625 352.007812 98.984375 352.007812 100.640625 L 352.007812 171.601562 L 377.296875 171.601562 L 377.296875 100.640625 C 377.296875 98.984375 375.957031 97.640625 374.296875 97.640625 L 355.007812 97.640625 "/>
</g>
<g clip-path="url(#clip-5)">
<path fill-rule="nonzero" fill="rgb(29.411765%, 75.294118%, 75.294118%)" fill-opacity="1" d="M 530.640625 54.863281 C 528.984375 54.863281 527.640625 56.207031 527.640625 57.863281 L 527.640625 171.601562 L 552.929688 171.601562 L 552.929688 57.863281 C 552.929688 56.207031 551.585938 54.863281 549.929688 54.863281 L 530.640625 54.863281 "/>
</g>
<g clip-path="url(#clip-6)">
<path fill-rule="nonzero" fill="rgb(100%, 80.784314%, 33.72549%)" fill-opacity="1" d="M 151.273438 113.953125 C 149.617188 113.953125 148.273438 115.296875 148.273438 116.953125 L 148.273438 171.601562 L 173.566406 171.601562 L 173.566406 116.953125 C 173.566406 115.296875 172.222656 113.953125 170.566406 113.953125 L 151.273438 113.953125 "/>
</g>
<g clip-path="url(#clip-7)">
<path fill-rule="nonzero" fill="rgb(100%, 80.784314%, 33.72549%)" fill-opacity="1" d="M 326.90625 86.78125 C 325.25 86.78125 323.90625 88.125 323.90625 89.78125 L 323.90625 171.601562 L 349.195312 171.601562 L 349.195312 89.78125 C 349.195312 88.125 347.855469 86.78125 346.195312 86.78125 L 326.90625 86.78125 "/>
</g>
<g clip-path="url(#clip-8)">
<path fill-rule="nonzero" fill="rgb(100%, 80.784314%, 33.72549%)" fill-opacity="1" d="M 502.539062 44.167969 C 500.882812 44.167969 499.539062 45.507812 499.539062 47.167969 L 499.539062 171.601562 L 524.828125 171.601562 L 524.828125 47.167969 C 524.828125 45.507812 523.484375 44.167969 521.828125 44.167969 L 502.539062 44.167969 "/>
</g>
<g clip-path="url(#clip-9)">
<path fill-rule="nonzero" fill="rgb(21.176471%, 63.529412%, 92.156863%)" fill-opacity="1" d="M 123.171875 95.578125 C 121.515625 95.578125 120.171875 96.921875 120.171875 98.578125 L 120.171875 171.601562 L 145.464844 171.601562 L 145.464844 98.578125 C 145.464844 96.921875 144.121094 95.578125 142.464844 95.578125 L 123.171875 95.578125 "/>
</g>
<g clip-path="url(#clip-10)">
<path fill-rule="nonzero" fill="rgb(21.176471%, 63.529412%, 92.156863%)" fill-opacity="1" d="M 298.804688 69.191406 C 297.148438 69.191406 295.804688 70.535156 295.804688 72.191406 L 295.804688 171.601562 L 321.097656 171.601562 L 321.097656 72.191406 C 321.097656 70.535156 319.753906 69.191406 318.097656 69.191406 L 298.804688 69.191406 "/>
</g>
<g clip-path="url(#clip-11)">
<path fill-rule="nonzero" fill="rgb(21.176471%, 63.529412%, 92.156863%)" fill-opacity="1" d="M 474.4375 34.0625 C 472.78125 34.0625 471.4375 35.40625 471.4375 37.0625 L 471.4375 171.601562 L 496.726562 171.601562 L 496.726562 37.0625 C 496.726562 35.40625 495.386719 34.0625 493.726562 34.0625 L 474.4375 34.0625 "/>
</g>
<g clip-path="url(#clip-12)">
<path fill-rule="nonzero" fill="rgb(100%, 38.823529%, 51.764706%)" fill-opacity="1" d="M 95.070312 84.601562 C 93.414062 84.601562 92.070312 85.945312 92.070312 87.601562 L 92.070312 171.601562 L 117.363281 171.601562 L 117.363281 87.601562 C 117.363281 85.945312 116.019531 84.601562 114.363281 84.601562 L 95.070312 84.601562 "/>
</g>
<g clip-path="url(#clip-13)">
<path fill-rule="nonzero" fill="rgb(100%, 38.823529%, 51.764706%)" fill-opacity="1" d="M 270.703125 64.585938 C 269.046875 64.585938 267.703125 65.929688 267.703125 67.585938 L 267.703125 171.601562 L 292.996094 171.601562 L 292.996094 67.585938 C 292.996094 65.929688 291.652344 64.585938 289.996094 64.585938 L 270.703125 64.585938 "/>
</g>
<g clip-path="url(#clip-14)">
<path fill-rule="nonzero" fill="rgb(100%, 38.823529%, 51.764706%)" fill-opacity="1" d="M 446.335938 38.839844 C 444.679688 38.839844 443.335938 40.183594 443.335938 41.839844 L 443.335938 171.601562 L 468.628906 171.601562 L 468.628906 41.839844 C 468.628906 40.183594 467.285156 38.839844 465.628906 38.839844 L 446.335938 38.839844 "/>
</g>
</svg>
