<?xml version="1.0" encoding="UTF-8"?>
<svg xmlns="http://www.w3.org/2000/svg" xmlns:xlink="http://www.w3.org/1999/xlink" width="600" height="400" viewBox="0 0 600 400">
<defs>
<clipPath id="clip-0">
<path clip-rule="nonzero" d="M 177 126 L 492 126 L 492 349.199219 L 177 349.199219 Z M 177 126 "/>
</clipPath>
<clipPath id="clip-1">
<path clip-rule="nonzero" d="M 135 27 L 505 27 L 505 319 L 135 319 Z M 135 27 "/>
</clipPath>
<clipPath id="clip-2">
<path clip-rule="nonzero" d="M 206 27 L 591.988281 27 L 591.988281 322 L 206 322 Z M 206 27 "/>
</clipPath>
</defs>
<path fill="none" stroke-width="1" stroke-linecap="butt" stroke-linejoin="miter" stroke="rgb(0%, 0%, 0%)" stroke-opacity="0.0980392" stroke-miterlimit="10" d="M 59.5 32 L 59.5 349 "/>
<path fill="none" stroke-width="1" stroke-linecap="butt" stroke-linejoin="miter" stroke="rgb(0%, 0%, 0%)" stroke-opacity="0.0980392" stroke-miterlimit="10" d="M 59.5 350 L 59.5 357.199219 "/>
<path fill="none" stroke-width="1" stroke-linecap="butt" stroke-linejoin="miter" stroke="rgb(0%, 0%, 0%)" stroke-opacity="0.0980392" stroke-miterlimit="10" d="M 128.5 32 L 128.5 349 "/>
<path fill="none" stroke-width="1" stroke-linecap="butt" stroke-linejoin="miter" stroke="rgb(0%, 0%, 0%)" stroke-opacity="0.0980392" stroke-miterlimit="10" d="M 128.5 350 L 128.5 357.199219 "/>
<path fill="none" stroke-width="1" stroke-linecap="butt" stroke-linejoin="miter" stroke="rgb(0%, 0%, 0%)" stroke-opacity="0.0980392" stroke-miterlimit="10" d="M 169.5 32 L 169.5 349 "/>
<path fill="none" stroke-width="1" stroke-linecap="butt" stroke-linejoin="miter" stroke="rgb(0%, 0%, 0%)" stroke-opacity="0.0980392" stroke-miterlimit="10" d="M 169.5 350 L 169.5 357.199219 "/>
<path fill="none" stroke-width="1" stroke-linecap="butt" stroke-linejoin="miter" stroke="rgb(0%, 0%, 0%)" stroke-opacity="0.0980392" stroke-miterlimit="10" d="M 197.5 32 L 197.5 349 "/>
<path fill="none" stroke-width="1" stroke-linecap="butt" stroke-linejoin="miter" stroke="rgb(0%, 0%, 0%)" stroke-opacity="0.0980392" stroke-miterlimit="10" d="M 197.5 350 L 197.5 357.199219 "/>
<path fill="none" stroke-width="1" stroke-linecap="butt" stroke-linejoin="miter" stroke="rgb(0%, 0%, 0%)" stroke-opacity="0.0980392" stroke-miterlimit="10" d="M 219.5 32 L 219.5 349 "/>
<path fill="none" stroke-width="1" stroke-linecap="butt" stroke-linejoin="miter" stroke="rgb(0%, 0%, 0%)" stroke-opacity="0.0980392" stroke-miterlimit="10" d="M 219.5 350 L 219.5 357.199219 "/>
<path fill="none" stroke-width="1" stroke-linecap="butt" stroke-linejoin="miter" stroke="rgb(0%, 0%, 0%)" stroke-opacity="0.0980392" stroke-miterlimit="10" d="M 238.5 32 L 238.5 349 "/>
<path fill="none" stroke-width="1" stroke-linecap="butt" stroke-linejoin="miter" stroke="rgb(0%, 0%, 0%)" stroke-opacity="0.0980392" stroke-miterlimit="10" d="M 238.5 350 L 238.5 357.199219 "/>
<path fill="none" stroke-width="1" stroke-linecap="butt" stroke-linejoin="miter" stroke="rgb(0%, 0%, 0%)" stroke-opacity="0.0980392" stroke-miterlimit="10" d="M 253.5 32 L 253.5 349 "/>
<path fill="none" stroke-width="1" stroke-linecap="butt" stroke-linejoin="miter" stroke="rgb(0%, 0%, 0%)" stroke-opacity="0.0980392" stroke-miterlimit="10" d="M 253.5 350 L 253.5 357.199219 "/>
<path fill="none" stroke-width="1" stroke-linecap="butt" stroke-linejoin="miter" stroke="rgb(0%, 0%, 0%)" stroke-opacity="0.0980392" stroke-miterlimit="10" d="M 266.5 32 L 266.5 349 "/>
<path fill="none" stroke-width="1" stroke-linecap="butt" stroke-linejoin="miter" stroke="rgb(0%, 0%, 0%)" stroke-opacity="0.0980392" stroke-miterlimit="10" d="M 266.5 350 L 266.5 357.199219 "/>
<path fill="none" stroke-width="1" stroke-linecap="butt" stroke-linejoin="miter" stroke="rgb(0%, 0%, 0%)" stroke-opacity="0.0980392" stroke-miterlimit="10" d="M 278.5 32 L 278.5 349 "/>
<path fill="none" stroke-width="1" stroke-linecap="butt" stroke-linejoin="miter" stroke="rgb(0%, 0%, 0%)" stroke-opacity="0.0980392" stroke-miterlimit="10" d="M 278.5 350 L 278.5 357.199219 "/>
<path fill="none" stroke-width="1" stroke-linecap="butt" stroke-linejoin="miter" stroke="rgb(0%, 0%, 0%)" stroke-opacity="0.0980392" stroke-miterlimit="10" d="M 288.5 32 L 288.5 349 "/>
<path fill="none" stroke-width="1" stroke-linecap="butt" stroke-linejoin="miter" stroke="rgb(0%, 0%, 0%)" stroke-opacity="0.0980392" stroke-miterlimit="10" d="M 288.5 350 L 288.5 357.199219 "/>
<path fill="none" stroke-width="1" stroke-linecap="butt" stroke-linejoin="miter" stroke="rgb(0%, 0%, 0%)" stroke-opacity="0.0980392" stroke-miterlimit="10" d="M 357.5 32 L 357.5 349 "/>
<path fill="none" stroke-width="1" stroke-linecap="butt" stroke-linejoin="miter" stroke="rgb(0%, 0%, 0%)" stroke-opacity="0.0980392" stroke-miterlimit="10" d="M 357.5 350 L 357.5 357.199219 "/>
<path fill="none" stroke-width="1" stroke-linecap="butt" stroke-linejoin="miter" stroke="rgb(0%, 0%, 0%)" stroke-opacity="0.0980392" stroke-miterlimit="10" d="M 398.5 32 L 398.5 349 "/>
<path fill="none" stroke-width="1" stroke-linecap="butt" stroke-linejoin="miter" stroke="rgb(0%, 0%, 0%)" stroke-opacity="0.0980392" stroke-miterlimit="10" d="M 398.5 350 L 398.5 357.199219 "/>
<path fill="none" stroke-width="1" stroke-linecap="butt" stroke-linejoin="miter" stroke="rgb(0%, 0%, 0%)" stroke-opacity="0.0980392" stroke-miterlimit="10" d="M 426.5 32 L 426.5 349 "/>
<path fill="none" stroke-width="1" stroke-linecap="butt" stroke-linejoin="miter" stroke="rgb(0%, 0%, 0%)" stroke-opacity="0.0980392" stroke-miterlimit="10" d="M 426.5 350 L 426.5 357.199219 "/>
<path fill="none" stroke-width="1" stroke-linecap="butt" stroke-linejoin="miter" stroke="rgb(0%, 0%, 0%)" stroke-opacity="0.0980392" stroke-miterlimit="10" d="M 449.5 32 L 449.5 349 "/>
<path fill="none" stroke-width="1" stroke-linecap="butt" stroke-linejoin="miter" stroke="rgb(0%, 0%, 0%)" stroke-opacity="0.0980392" stroke-miterlimit="10" d="M 449.5 350 L 449.5 357.199219 "/>
<path fill="none" stroke-width="1" stroke-linecap="butt" stroke-linejoin="miter" stroke="rgb(0%, 0%, 0%)" stroke-opacity="0.0980392" stroke-miterlimit="10" d="M 467.5 32 L 467.5 349 "/>
<path fill="none" stroke-width="1" stroke-linecap="butt" stroke-linejoin="miter" stroke="rgb(0%, 0%, 0%)" stroke-opacity="0.0980392" stroke-miterlimit="10" d="M 467.5 350 L 467.5 357.199219 "/>
<path fill="none" stroke-width="1" stroke-linecap="butt" stroke-linejoin="miter" stroke="rgb(0%, 0%, 0%)" stroke-opacity="0.0980392" stroke-miterlimit="10" d="M 482.5 32 L 482.5 349 "/>
<path fill="none" stroke-width="1" stroke-linecap="butt" stroke-linejoin="miter" stroke="rgb(0%, 0%, 0%)" stroke-opacity="0.0980392" stroke-miterlimit="10" d="M 482.5 350 L 482.5 357.199219 "/>
<path fill="none" stroke-width="1" stroke-linecap="butt" stroke-linejoin="miter" stroke="rgb(0%, 0%, 0%)" stroke-opacity="0.0980392" stroke-miterlimit="10" d="M 495.5 32 L 495.5 349 "/>
<path fill="none" stroke-width="1" stroke-linecap="butt" stroke-linejoin="miter" stroke="rgb(0%, 0%, 0%)" stroke-opacity="0.0980392" stroke-miterlimit="10" d="M 495.5 350 L 495.5 357.199219 "/>
<path fill="none" stroke-width="1" stroke-linecap="butt" stroke-linejoin="miter" stroke="rgb(0%, 0%, 0%)" stroke-opacity="0.0980392" stroke-miterlimit="10" d="M 507.5 32 L 507.5 349 "/>
<path fill="none" stroke-width="1" stroke-linecap="butt" stroke-linejoin="miter" stroke="rgb(0%, 0%, 0%)" stroke-opacity="0.0980392" stroke-miterlimit="10" d="M 507.5 350 L 507.5 357.199219 "/>
<path fill="none" stroke-width="1" stroke-linecap="butt" stroke-linejoin="miter" stroke="rgb(0%, 0%, 0%)" stroke-opacity="0.0980392" stroke-miterlimit="10" d="M 518.5 32 L 518.5 349 "/>
<path fill="none" stroke-width="1" stroke-linecap="butt" stroke-linejoin="miter" stroke="rgb(0%, 0%, 0%)" stroke-opacity="0.0980392" stroke-miterlimit="10" d="M 518.5 350 L 518.5 357.199219 "/>
<path fill="none" stroke-width="1" stroke-linecap="butt" stroke-linejoin="miter" stroke="rgb(0%, 0%, 0%)" stroke-opacity="0.0980392" stroke-miterlimit="10" d="M 586.5 32 L 586.5 349 "/>
<path fill="none" stroke-width="1" stroke-linecap="butt" stroke-linejoin="miter" stroke="rgb(0%, 0%, 0%)" stroke-opacity="0.0980392" stroke-miterlimit="10" d="M 586.5 350 L 586.5 357.199219 "/>
<path fill-rule="nonzero" fill="rgb(40%, 40%, 40%)" fill-opacity="1" d="M 317.292969 392.960938 L 317.292969 384.441406 L 319.027344 384.441406 L 319.027344 391.515625 L 323.339844 391.515625 L 323.339844 392.960938 Z M 326.996094 384.335938 C 327.824219 384.335938 328.472656 384.632812 328.945312 385.226562 C 329.503906 385.929688 329.785156 387.097656 329.785156 388.726562 C 329.785156 390.355469 329.503906 391.523438 328.941406 392.226562 C 328.472656 392.816406 327.824219 393.105469 326.996094 393.109375 C 326.160156 393.105469 325.484375 392.789062 324.972656 392.144531 C 324.460938 391.503906 324.207031 390.355469 324.207031 388.707031 C 324.207031 387.089844 324.488281 385.925781 325.050781 385.214844 C 325.515625 384.628906 326.164062 384.335938 326.996094 384.335938 Z M 326.996094 385.703125 C 326.792969 385.707031 326.613281 385.769531 326.460938 385.894531 C 326.300781 386.019531 326.179688 386.246094 326.101562 386.574219 C 325.984375 387 325.929688 387.71875 325.929688 388.726562 C 325.929688 389.734375 325.980469 390.425781 326.082031 390.800781 C 326.183594 391.179688 326.308594 391.429688 326.464844 391.554688 C 326.613281 391.679688 326.792969 391.742188 326.996094 391.742188 C 327.195312 391.742188 327.371094 391.679688 327.53125 391.550781 C 327.683594 391.425781 327.804688 391.199219 327.890625 390.867188 C 328.003906 390.449219 328.0625 389.734375 328.0625 388.726562 C 328.0625 387.71875 328.011719 387.027344 327.910156 386.648438 C 327.808594 386.273438 327.679688 386.019531 327.527344 385.894531 C 327.371094 385.769531 327.195312 385.707031 326.996094 385.703125 Z M 316.371094 382.097656 "/>
<path fill="none" stroke-width="1" stroke-linecap="butt" stroke-linejoin="miter" stroke="rgb(0%, 0%, 0%)" stroke-opacity="0.0980392" stroke-miterlimit="10" d="M 60 349.5 L 586.988281 349.5 "/>
<path fill="none" stroke-width="1" stroke-linecap="butt" stroke-linejoin="miter" stroke="rgb(0%, 0%, 0%)" stroke-opacity="0.0980392" stroke-miterlimit="10" d="M 51.753906 349.5 L 59 349.5 "/>
<path fill="none" stroke-width="1" stroke-linecap="butt" stroke-linejoin="miter" stroke="rgb(0%, 0%, 0%)" stroke-opacity="0.0980392" stroke-miterlimit="10" d="M 60 321.5 L 586.988281 321.5 "/>
<path fill="none" stroke-width="1" stroke-linecap="butt" stroke-linejoin="miter" stroke="rgb(0%, 0%, 0%)" stroke-opacity="0.0980392" stroke-miterlimit="10" d="M 51.753906 321.5 L 59 321.5 "/>
<path fill="none" stroke-width="1" stroke-linecap="butt" stroke-linejoin="miter" stroke="rgb(0%, 0%, 0%)" stroke-opacity="0.0980392" stroke-miterlimit="10" d="M 60 297.5 L 586.988281 297.5 "/>
<path fill="none" stroke-width="1" stroke-linecap="butt" stroke-linejoin="miter" stroke="rgb(0%, 0%, 0%)" stroke-opacity="0.0980392" stroke-miterlimit="10" d="M 51.753906 297.5 L 59 297.5 "/>
<path fill="none" stroke-width="1" stroke-linecap="butt" stroke-linejoin="miter" stroke="rgb(0%, 0%, 0%)" stroke-opacity="0.0980392" stroke-miterlimit="10" d="M 60 277.5 L 586.988281 277.5 "/>
<path fill="none" stroke-width="1" stroke-linecap="butt" stroke-linejoin="miter" stroke="rgb(0%, 0%, 0%)" stroke-opacity="0.0980392" stroke-miterlimit="10" d="M 51.753906 277.5 L 59 277.5 "/>
<path fill="none" stroke-width="1" stroke-linecap="butt" stroke-linejoin="miter" stroke="rgb(0%, 0%, 0%)" stroke-opacity="0.0980392" stroke-miterlimit="10" d="M 60 259.5 L 586.988281 259.5 "/>
<path fill="none" stroke-width="1" stroke-linecap="butt" stroke-linejoin="miter" stroke="rgb(0%, 0%, 0%)" stroke-opacity="0.0980392" stroke-miterlimit="10" d="M 51.753906 259.5 L 59 259.5 "/>
<path fill="none" stroke-width="1" stroke-linecap="butt" stroke-linejoin="miter" stroke="rgb(0%, 0%, 0%)" stroke-opacity="0.0980392" stroke-miterlimit="10" d="M 60 243.5 L 586.988281 243.5 "/>
<path fill="none" stroke-width="1" stroke-linecap="butt" stroke-linejoin="miter" stroke="rgb(0%, 0%, 0%)" stroke-opacity="0.0980392" stroke-miterlimit="10" d="M 51.753906 243.5 L 59 243.5 "/>
<path fill="none" stroke-width="1" stroke-linecap="butt" stroke-linejoin="miter" stroke="rgb(0%, 0%, 0%)" stroke-opacity="0.0980392" stroke-miterlimit="10" d="M 60 137.5 L 586.988281 137.5 "/>
<path fill="none" stroke-width="1" stroke-linecap="butt" stroke-linejoin="miter" stroke="rgb(0%, 0%, 0%)" stroke-opacity="0.0980392" stroke-miterlimit="10" d="M 51.753906 137.5 L 59 137.5 "/>
<path fill="none" stroke-width="1" stroke-linecap="butt" stroke-linejoin="miter" stroke="rgb(0%, 0%, 0%)" stroke-opacity="0.0980392" stroke-miterlimit="10" d="M 60 75.5 L 586.988281 75.5 "/>
<path fill="none" stroke-width="1" stroke-linecap="butt" stroke-linejoin="miter" stroke="rgb(0%, 0%, 0%)" stroke-opacity="0.0980392" stroke-miterlimit="10" d="M 51.753906 75.5 L 59 75.5 "/>
<path fill="none" stroke-width="1" stroke-linecap="butt" stroke-linejoin="miter" stroke="rgb(0%, 0%, 0%)" stroke-opacity="0.0980392" stroke-miterlimit="10" d="M 60 32.5 L 586.988281 32.5 "/>
<path fill="none" stroke-width="1" stroke-linecap="butt" stroke-linejoin="miter" stroke="rgb(0%, 0%, 0%)" stroke-opacity="0.0980392" stroke-miterlimit="10" d="M 51.753906 32.5 L 59 32.5 "/>
<path fill-rule="nonzero" fill="rgb(40%, 40%, 40%)" fill-opacity="1" d="M 15.359375 206.710938 L 6.769531 206.710938 L 6.769531 205.023438 L 12.507812 201.507812 L 6.769531 201.507812 L 6.769531 199.894531 L 15.359375 199.898438 L 15.359375 201.636719 L 9.757812 205.097656 L 15.359375 205.101562 Z M 15.359375 198.085938 L 6.769531 198.085938 L 6.769531 195.492188 L 12.628906 193.933594 L 6.769531 192.390625 L 6.769531 189.789062 L 15.359375 189.789062 L 15.359375 191.402344 L 8.597656 191.402344 L 15.359375 193.109375 L 15.359375 194.777344 L 8.597656 196.476562 L 15.359375 196.476562 Z M 12.5625 188.503906 L 12.398438 186.816406 C 12.96875 186.714844 13.382812 186.511719 13.648438 186.199219 C 13.914062 185.894531 14.046875 185.472656 14.046875 184.941406 C 14.046875 184.382812 13.929688 183.964844 13.695312 183.679688 C 13.460938 183.398438 13.183594 183.253906 12.863281 183.253906 C 12.660156 183.253906 12.488281 183.316406 12.347656 183.433594 C 12.207031 183.554688 12.082031 183.761719 11.972656 184.054688 C 11.902344 184.261719 11.777344 184.722656 11.597656 185.445312 C 11.367188 186.375 11.085938 187.027344 10.75 187.402344 C 10.277344 187.929688 9.699219 188.195312 9.019531 188.191406 C 8.582031 188.195312 8.175781 188.070312 7.792969 187.820312 C 7.414062 187.574219 7.121094 187.21875 6.921875 186.75 C 6.726562 186.285156 6.628906 185.71875 6.625 185.058594 C 6.628906 183.980469 6.863281 183.171875 7.332031 182.625 C 7.804688 182.082031 8.4375 181.792969 9.226562 181.765625 L 9.300781 183.5 C 8.863281 183.574219 8.546875 183.734375 8.351562 183.976562 C 8.15625 184.222656 8.058594 184.589844 8.058594 185.074219 C 8.058594 185.582031 8.164062 185.976562 8.367188 186.257812 C 8.507812 186.445312 8.683594 186.535156 8.902344 186.535156 C 9.105469 186.535156 9.28125 186.449219 9.421875 186.277344 C 9.609375 186.058594 9.800781 185.527344 10 184.683594 C 10.199219 183.839844 10.40625 183.21875 10.617188 182.8125 C 10.835938 182.410156 11.125 182.09375 11.492188 181.863281 C 11.859375 181.636719 12.316406 181.519531 12.859375 181.519531 C 13.355469 181.519531 13.816406 181.65625 14.242188 181.929688 C 14.675781 182.203125 14.996094 182.589844 15.199219 183.089844 C 15.410156 183.589844 15.511719 184.214844 15.511719 184.960938 C 15.511719 186.046875 15.261719 186.878906 14.761719 187.460938 C 14.261719 188.042969 13.53125 188.390625 12.5625 188.503906 Z M 15.359375 180.0625 L 6.769531 180.0625 L 6.769531 173.695312 L 8.222656 173.695312 L 8.222656 178.328125 L 10.125 178.328125 L 10.125 174.015625 L 11.574219 174.015625 L 11.574219 178.328125 L 13.914062 178.328125 L 13.914062 173.53125 L 15.359375 173.53125 Z M 4.496094 207.601562 "/>
<path fill-rule="nonzero" fill="rgb(100%, 38.823529%, 51.764706%)" fill-opacity="1" stroke-width="3" stroke-linecap="butt" stroke-linejoin="miter" stroke="rgb(100%, 38.823529%, 51.764706%)" stroke-opacity="1" stroke-miterlimit="10" d="M 40.25 10 L 80.25 10 L 80.25 22 L 40.25 22 Z M 40.25 10 "/>
<path fill-rule="nonzero" fill="rgb(40%, 40%, 40%)" fill-opacity="1" d="M 88.769531 20.160156 L 86.402344 13.9375 L 87.515625 13.9375 L 88.851562 17.664062 C 88.996094 18.070312 89.128906 18.488281 89.25 18.917969 C 89.34375 18.589844 89.472656 18.195312 89.640625 17.734375 L 91.023438 13.9375 L 92.109375 13.9375 L 89.753906 20.160156 Z M 97.101562 19.394531 C 96.710938 19.726562 96.332031 19.960938 95.972656 20.097656 C 95.605469 20.234375 95.21875 20.300781 94.8125 20.300781 C 94.125 20.300781 93.601562 20.136719 93.234375 19.800781 C 92.867188 19.472656 92.683594 19.042969 92.683594 18.519531 C 92.683594 18.214844 92.75 17.9375 92.890625 17.6875 C 93.027344 17.4375 93.210938 17.234375 93.4375 17.078125 C 93.660156 16.925781 93.914062 16.8125 94.195312 16.730469 C 94.402344 16.683594 94.714844 16.628906 95.132812 16.574219 C 95.984375 16.472656 96.609375 16.351562 97.015625 16.210938 C 97.015625 16.070312 97.019531 15.980469 97.019531 15.933594 C 97.019531 15.511719 96.917969 15.207031 96.71875 15.027344 C 96.449219 14.789062 96.050781 14.671875 95.519531 14.667969 C 95.019531 14.671875 94.652344 14.757812 94.417969 14.929688 C 94.183594 15.105469 94.007812 15.414062 93.898438 15.855469 L 92.867188 15.714844 C 92.957031 15.273438 93.113281 14.917969 93.328125 14.644531 C 93.539062 14.378906 93.847656 14.167969 94.257812 14.019531 C 94.660156 13.871094 95.132812 13.796875 95.671875 13.796875 C 96.203125 13.796875 96.632812 13.859375 96.964844 13.984375 C 97.296875 14.109375 97.542969 14.269531 97.699219 14.457031 C 97.855469 14.648438 97.964844 14.886719 98.027344 15.175781 C 98.058594 15.355469 98.074219 15.679688 98.078125 16.144531 L 98.078125 17.550781 C 98.074219 18.535156 98.097656 19.15625 98.144531 19.414062 C 98.191406 19.675781 98.28125 19.921875 98.414062 20.160156 L 97.3125 20.160156 C 97.203125 19.941406 97.132812 19.6875 97.101562 19.394531 Z M 97.015625 17.035156 C 96.625 17.195312 96.050781 17.328125 95.289062 17.433594 C 94.855469 17.5 94.550781 17.570312 94.371094 17.644531 C 94.191406 17.726562 94.050781 17.839844 93.953125 17.988281 C 93.855469 18.140625 93.808594 18.308594 93.808594 18.488281 C 93.808594 18.773438 93.914062 19.007812 94.125 19.191406 C 94.335938 19.382812 94.648438 19.476562 95.0625 19.472656 C 95.46875 19.476562 95.828125 19.386719 96.144531 19.207031 C 96.460938 19.03125 96.695312 18.789062 96.84375 18.480469 C 96.957031 18.242188 97.011719 17.890625 97.015625 17.425781 Z M 99.710938 20.160156 L 99.710938 13.9375 L 100.664062 13.9375 L 100.664062 14.824219 C 101.117188 14.140625 101.777344 13.796875 102.640625 13.796875 C 103.011719 13.796875 103.355469 13.867188 103.675781 14 C 103.988281 14.136719 104.226562 14.3125 104.382812 14.527344 C 104.539062 14.75 104.648438 15.007812 104.710938 15.308594 C 104.75 15.503906 104.769531 15.847656 104.769531 16.332031 L 104.769531 20.160156 L 103.714844 20.160156 L 103.714844 16.375 C 103.714844 15.945312 103.671875 15.625 103.589844 15.410156 C 103.507812 15.199219 103.363281 15.03125 103.15625 14.902344 C 102.945312 14.777344 102.699219 14.710938 102.421875 14.710938 C 101.96875 14.710938 101.582031 14.855469 101.253906 15.140625 C 100.925781 15.425781 100.761719 15.964844 100.765625 16.761719 L 100.765625 20.160156 Z M 106.394531 12.785156 L 106.394531 11.570312 L 107.449219 11.570312 L 107.449219 12.785156 Z M 106.394531 20.160156 L 106.394531 13.9375 L 107.449219 13.9375 L 107.449219 20.160156 Z M 109.03125 20.160156 L 109.03125 11.570312 L 110.085938 11.570312 L 110.085938 20.160156 Z M 111.695312 20.160156 L 111.695312 11.570312 L 112.75 11.570312 L 112.75 20.160156 Z M 118.445312 19.394531 C 118.054688 19.726562 117.675781 19.960938 117.316406 20.097656 C 116.949219 20.234375 116.5625 20.300781 116.15625 20.300781 C 115.46875 20.300781 114.945312 20.136719 114.578125 19.800781 C 114.210938 19.472656 114.027344 19.042969 114.027344 18.519531 C 114.027344 18.214844 114.09375 17.9375 114.234375 17.6875 C 114.371094 17.4375 114.554688 17.234375 114.78125 17.078125 C 115.003906 16.925781 115.257812 16.8125 115.539062 16.730469 C 115.746094 16.683594 116.058594 16.628906 116.476562 16.574219 C 117.328125 16.472656 117.953125 16.351562 118.359375 16.210938 C 118.359375 16.070312 118.363281 15.980469 118.363281 15.933594 C 118.363281 15.511719 118.261719 15.207031 118.0625 15.027344 C 117.792969 14.789062 117.394531 14.671875 116.863281 14.667969 C 116.363281 14.671875 115.996094 14.757812 115.761719 14.929688 C 115.527344 15.105469 115.351562 15.414062 115.242188 15.855469 L 114.210938 15.714844 C 114.300781 15.273438 114.457031 14.917969 114.671875 14.644531 C 114.882812 14.378906 115.191406 14.167969 115.601562 14.019531 C 116.003906 13.871094 116.476562 13.796875 117.015625 13.796875 C 117.546875 13.796875 117.976562 13.859375 118.308594 13.984375 C 118.640625 14.109375 118.886719 14.269531 119.042969 14.457031 C 119.199219 14.648438 119.308594 14.886719 119.371094 15.175781 C 119.402344 15.355469 119.417969 15.679688 119.421875 16.144531 L 119.421875 17.550781 C 119.417969 18.535156 119.441406 19.15625 119.488281 19.414062 C 119.535156 19.675781 119.625 19.921875 119.757812 20.160156 L 118.65625 20.160156 C 118.546875 19.941406 118.476562 19.6875 118.445312 19.394531 Z M 118.359375 17.035156 C 117.96875 17.195312 117.394531 17.328125 116.632812 17.433594 C 116.199219 17.5 115.894531 17.570312 115.714844 17.644531 C 115.535156 17.726562 115.394531 17.839844 115.296875 17.988281 C 115.199219 18.140625 115.152344 18.308594 115.152344 18.488281 C 115.152344 18.773438 115.257812 19.007812 115.46875 19.191406 C 115.679688 19.382812 115.992188 19.476562 116.40625 19.472656 C 116.8125 19.476562 117.171875 19.386719 117.488281 19.207031 C 117.804688 19.03125 118.039062 18.789062 118.1875 18.480469 C 118.300781 18.242188 118.355469 17.890625 118.359375 17.425781 Z M 86.25 9.296875 "/>
<path fill-rule="nonzero" fill="rgb(21.176471%, 63.529412%, 92.156863%)" fill-opacity="1" stroke-width="3" stroke-linecap="butt" stroke-linejoin="miter" stroke="rgb(21.176471%, 63.529412%, 92.156863%)" stroke-opacity="1" stroke-miterlimit="10" d="M 130.269531 10 L 170.269531 10 L 170.269531 22 L 130.269531 22 Z M 130.269531 10 "/>
<path fill-rule="nonzero" fill="rgb(40%, 40%, 40%)" fill-opacity="1" d="M 178.789062 20.160156 L 176.421875 13.9375 L 177.535156 13.9375 L 178.871094 17.664062 C 179.015625 18.070312 179.148438 18.488281 179.269531 18.917969 C 179.363281 18.589844 179.492188 18.195312 179.660156 17.734375 L 181.042969 13.9375 L 182.128906 13.9375 L 179.773438 20.160156 Z M 187.121094 19.394531 C 186.730469 19.726562 186.351562 19.960938 185.992188 20.097656 C 185.625 20.234375 185.238281 20.300781 184.832031 20.300781 C 184.144531 20.300781 183.621094 20.136719 183.253906 19.800781 C 182.886719 19.472656 182.703125 19.042969 182.703125 18.519531 C 182.703125 18.214844 182.769531 17.9375 182.910156 17.6875 C 183.046875 17.4375 183.230469 17.234375 183.457031 17.078125 C 183.679688 16.925781 183.933594 16.8125 184.214844 16.730469 C 184.421875 16.683594 184.734375 16.628906 185.152344 16.574219 C 186.003906 16.472656 186.628906 16.351562 187.035156 16.210938 C 187.035156 16.070312 187.039062 15.980469 187.039062 15.933594 C 187.039062 15.511719 186.9375 15.207031 186.738281 15.027344 C 186.46875 14.789062 186.070312 14.671875 185.539062 14.667969 C 185.039062 14.671875 184.671875 14.757812 184.4375 14.929688 C 184.203125 15.105469 184.027344 15.414062 183.917969 15.855469 L 182.886719 15.714844 C 182.976562 15.273438 183.132812 14.917969 183.347656 14.644531 C 183.558594 14.378906 183.867188 14.167969 184.277344 14.019531 C 184.679688 13.871094 185.152344 13.796875 185.691406 13.796875 C 186.222656 13.796875 186.652344 13.859375 186.984375 13.984375 C 187.316406 14.109375 187.5625 14.269531 187.71875 14.457031 C 187.875 14.648438 187.984375 14.886719 188.046875 15.175781 C 188.078125 15.355469 188.09375 15.679688 188.097656 16.144531 L 188.097656 17.550781 C 188.09375 18.535156 188.117188 19.15625 188.164062 19.414062 C 188.210938 19.675781 188.300781 19.921875 188.433594 20.160156 L 187.332031 20.160156 C 187.222656 19.941406 187.152344 19.6875 187.121094 19.394531 Z M 187.035156 17.035156 C 186.644531 17.195312 186.070312 17.328125 185.308594 17.433594 C 184.875 17.5 184.570312 17.570312 184.390625 17.644531 C 184.210938 17.726562 184.070312 17.839844 183.972656 17.988281 C 183.875 18.140625 183.828125 18.308594 183.828125 18.488281 C 183.828125 18.773438 183.933594 19.007812 184.144531 19.191406 C 184.355469 19.382812 184.667969 19.476562 185.082031 19.472656 C 185.488281 19.476562 185.847656 19.386719 186.164062 19.207031 C 186.480469 19.03125 186.714844 18.789062 186.863281 18.480469 C 186.976562 18.242188 187.03125 17.890625 187.035156 17.425781 Z M 189.734375 20.160156 L 189.734375 13.9375 L 190.6875 13.9375 L 190.6875 14.824219 C 191.140625 14.140625 191.800781 13.796875 192.664062 13.796875 C 193.035156 13.796875 193.378906 13.867188 193.699219 14 C 194.011719 14.136719 194.25 14.3125 194.40625 14.527344 C 194.5625 14.75 194.671875 15.007812 194.734375 15.308594 C 194.773438 15.503906 194.792969 15.847656 194.792969 16.332031 L 194.792969 20.160156 L 193.738281 20.160156 L 193.738281 16.375 C 193.738281 15.945312 193.695312 15.625 193.613281 15.410156 C 193.53125 15.199219 193.386719 15.03125 193.179688 14.902344 C 192.96875 14.777344 192.722656 14.710938 192.445312 14.710938 C 191.992188 14.710938 191.605469 14.855469 191.277344 15.140625 C 190.949219 15.425781 190.785156 15.964844 190.789062 16.761719 L 190.789062 20.160156 Z M 196.414062 12.785156 L 196.414062 11.570312 L 197.46875 11.570312 L 197.46875 12.785156 Z M 196.414062 20.160156 L 196.414062 13.9375 L 197.46875 13.9375 L 197.46875 20.160156 Z M 199.046875 20.160156 L 199.046875 11.570312 L 200.101562 11.570312 L 200.101562 20.160156 Z M 201.714844 20.160156 L 201.714844 11.570312 L 202.769531 11.570312 L 202.769531 20.160156 Z M 208.46875 19.394531 C 208.078125 19.726562 207.699219 19.960938 207.339844 20.097656 C 206.972656 20.234375 206.585938 20.300781 206.179688 20.300781 C 205.492188 20.300781 204.96875 20.136719 204.601562 19.800781 C 204.234375 19.472656 204.050781 19.042969 204.050781 18.519531 C 204.050781 18.214844 204.117188 17.9375 204.257812 17.6875 C 204.394531 17.4375 204.578125 17.234375 204.804688 17.078125 C 205.027344 16.925781 205.28125 16.8125 205.5625 16.730469 C 205.769531 16.683594 206.082031 16.628906 206.5 16.574219 C 207.351562 16.472656 207.976562 16.351562 208.382812 16.210938 C 208.382812 16.070312 208.386719 15.980469 208.386719 15.933594 C 208.386719 15.511719 208.285156 15.207031 208.085938 15.027344 C 207.816406 14.789062 207.417969 14.671875 206.886719 14.667969 C 206.386719 14.671875 206.019531 14.757812 205.785156 14.929688 C 205.550781 15.105469 205.375 15.414062 205.265625 15.855469 L 204.234375 15.714844 C 204.324219 15.273438 204.480469 14.917969 204.695312 14.644531 C 204.90625 14.378906 205.214844 14.167969 205.625 14.019531 C 206.027344 13.871094 206.5 13.796875 207.039062 13.796875 C 207.570312 13.796875 208 13.859375 208.332031 13.984375 C 208.664062 14.109375 208.910156 14.269531 209.066406 14.457031 C 209.222656 14.648438 209.332031 14.886719 209.394531 15.175781 C 209.425781 15.355469 209.441406 15.679688 209.445312 16.144531 L 209.445312 17.550781 C 209.441406 18.535156 209.464844 19.15625 209.511719 19.414062 C 209.558594 19.675781 209.648438 19.921875 209.78125 20.160156 L 208.679688 20.160156 C 208.570312 19.941406 208.5 19.6875 208.46875 19.394531 Z M 208.382812 17.035156 C 207.992188 17.195312 207.417969 17.328125 206.65625 17.433594 C 206.222656 17.5 205.917969 17.570312 205.738281 17.644531 C 205.558594 17.726562 205.417969 17.839844 205.320312 17.988281 C 205.222656 18.140625 205.175781 18.308594 205.175781 18.488281 C 205.175781 18.773438 205.28125 19.007812 205.492188 19.191406 C 205.703125 19.382812 206.015625 19.476562 206.429688 19.472656 C 206.835938 19.476562 207.195312 19.386719 207.511719 19.207031 C 207.828125 19.03125 208.0625 18.789062 208.210938 18.480469 C 208.324219 18.242188 208.378906 17.890625 208.382812 17.425781 Z M 216.632812 18.769531 L 216.632812 16.417969 L 214.292969 16.417969 L 214.292969 15.433594 L 216.632812 15.433594 L 216.632812 13.09375 L 217.625 13.09375 L 217.625 15.433594 L 219.964844 15.433594 L 219.964844 16.417969 L 217.625 16.417969 L 217.625 18.769531 Z M 224.730469 20.160156 L 224.730469 11.570312 L 225.785156 11.570312 L 225.785156 20.160156 Z M 227.03125 17.050781 C 227.03125 15.898438 227.351562 15.042969 227.992188 14.488281 C 228.527344 14.027344 229.179688 13.796875 229.949219 13.796875 C 230.804688 13.796875 231.503906 14.078125 232.046875 14.640625 C 232.585938 15.203125 232.855469 15.976562 232.859375 16.960938 C 232.855469 17.761719 232.734375 18.394531 232.5 18.851562 C 232.257812 19.3125 231.910156 19.667969 231.453125 19.921875 C 230.992188 20.175781 230.492188 20.300781 229.949219 20.300781 C 229.074219 20.300781 228.367188 20.023438 227.835938 19.464844 C 227.296875 18.90625 227.03125 18.101562 227.03125 17.050781 Z M 228.117188 17.050781 C 228.113281 17.851562 228.289062 18.449219 228.636719 18.839844 C 228.980469 19.238281 229.417969 19.433594 229.949219 19.433594 C 230.472656 19.433594 230.90625 19.234375 231.253906 18.835938 C 231.601562 18.4375 231.777344 17.832031 231.777344 17.011719 C 231.777344 16.246094 231.601562 15.664062 231.25 15.265625 C 230.898438 14.871094 230.464844 14.671875 229.949219 14.667969 C 229.417969 14.671875 228.980469 14.867188 228.636719 15.261719 C 228.289062 15.660156 228.113281 16.257812 228.117188 17.050781 Z M 233.703125 17.050781 C 233.703125 15.898438 234.023438 15.042969 234.664062 14.488281 C 235.199219 14.027344 235.851562 13.796875 236.621094 13.796875 C 237.476562 13.796875 238.175781 14.078125 238.71875 14.640625 C 239.257812 15.203125 239.527344 15.976562 239.53125 16.960938 C 239.527344 17.761719 239.40625 18.394531 239.171875 18.851562 C 238.929688 19.3125 238.582031 19.667969 238.125 19.921875 C 237.664062 20.175781 237.164062 20.300781 236.621094 20.300781 C 235.746094 20.300781 235.039062 20.023438 234.507812 19.464844 C 233.96875 18.90625 233.703125 18.101562 233.703125 17.050781 Z M 234.789062 17.050781 C 234.785156 17.851562 234.960938 18.449219 235.308594 18.839844 C 235.652344 19.238281 236.089844 19.433594 236.621094 19.433594 C 237.144531 19.433594 237.578125 19.234375 237.925781 18.835938 C 238.273438 18.4375 238.449219 17.832031 238.449219 17.011719 C 238.449219 16.246094 238.273438 15.664062 237.921875 15.265625 C 237.570312 14.871094 237.136719 14.671875 236.621094 14.667969 C 236.089844 14.671875 235.652344 14.867188 235.308594 15.261719 C 234.960938 15.660156 234.785156 16.257812 234.789062 17.050781 Z M 240.773438 20.160156 L 240.773438 11.570312 L 241.828125 11.570312 L 241.828125 16.46875 L 244.324219 13.9375 L 245.6875 13.9375 L 243.3125 16.246094 L 245.929688 20.160156 L 244.628906 20.160156 L 242.570312 16.980469 L 241.828125 17.691406 L 241.828125 20.160156 Z M 250.84375 20.160156 L 250.84375 19.246094 C 250.355469 19.949219 249.699219 20.300781 248.871094 20.300781 C 248.503906 20.300781 248.160156 20.230469 247.84375 20.089844 C 247.523438 19.949219 247.285156 19.773438 247.132812 19.558594 C 246.976562 19.347656 246.871094 19.085938 246.808594 18.777344 C 246.761719 18.570312 246.738281 18.242188 246.742188 17.792969 L 246.742188 13.9375 L 247.796875 13.9375 L 247.796875 17.386719 C 247.792969 17.941406 247.816406 18.3125 247.863281 18.503906 C 247.925781 18.78125 248.066406 19 248.285156 19.15625 C 248.5 19.320312 248.765625 19.398438 249.082031 19.394531 C 249.394531 19.398438 249.691406 19.316406 249.972656 19.152344 C 250.25 18.988281 250.445312 18.769531 250.5625 18.488281 C 250.675781 18.210938 250.734375 17.804688 250.734375 17.269531 L 250.734375 13.9375 L 251.789062 13.9375 L 251.789062 20.160156 Z M 253.441406 22.542969 L 253.441406 13.9375 L 254.402344 13.9375 L 254.402344 14.746094 C 254.628906 14.429688 254.886719 14.195312 255.171875 14.035156 C 255.453125 13.878906 255.796875 13.796875 256.207031 13.796875 C 256.734375 13.796875 257.203125 13.933594 257.613281 14.207031 C 258.015625 14.480469 258.324219 14.867188 258.535156 15.367188 C 258.742188 15.867188 258.84375 16.414062 258.847656 17.003906 C 258.84375 17.640625 258.730469 18.214844 258.503906 18.722656 C 258.273438 19.238281 257.941406 19.628906 257.507812 19.894531 C 257.070312 20.167969 256.613281 20.300781 256.132812 20.300781 C 255.78125 20.300781 255.464844 20.226562 255.1875 20.078125 C 254.90625 19.929688 254.675781 19.742188 254.496094 19.515625 L 254.496094 22.542969 Z M 254.398438 17.082031 C 254.398438 17.886719 254.558594 18.476562 254.882812 18.859375 C 255.207031 19.242188 255.601562 19.433594 256.0625 19.433594 C 256.53125 19.433594 256.929688 19.238281 257.265625 18.839844 C 257.597656 18.449219 257.765625 17.832031 257.769531 16.996094 C 257.765625 16.207031 257.601562 15.613281 257.277344 15.214844 C 256.949219 14.820312 256.5625 14.625 256.109375 14.621094 C 255.65625 14.625 255.257812 14.835938 254.914062 15.253906 C 254.570312 15.675781 254.398438 16.285156 254.398438 17.082031 Z M 176.269531 9.296875 "/>
<path fill-rule="nonzero" fill="rgb(100%, 80.784314%, 33.72549%)" fill-opacity="1" stroke-width="3" stroke-linecap="butt" stroke-linejoin="miter" stroke="rgb(100%, 80.784314%, 33.72549%)" stroke-opacity="1" stroke-miterlimit="10" d="M 269.328125 10 L 309.328125 10 L 309.328125 22 L 269.328125 22 Z M 269.328125 10 "/>
<path fill-rule="nonzero" fill="rgb(40%, 40%, 40%)" fill-opacity="1" d="M 315.925781 20.675781 L 316.953125 20.828125 C 316.992188 21.140625 317.113281 21.371094 317.308594 21.519531 C 317.570312 21.714844 317.925781 21.8125 318.382812 21.8125 C 318.867188 21.8125 319.246094 21.714844 319.511719 21.519531 C 319.777344 21.324219 319.957031 21.050781 320.050781 20.699219 C 320.105469 20.484375 320.128906 20.035156 320.125 19.347656 C 319.664062 19.890625 319.089844 20.160156 318.40625 20.160156 C 317.546875 20.160156 316.886719 19.851562 316.417969 19.234375 C 315.949219 18.617188 315.714844 17.878906 315.714844 17.011719 C 315.714844 16.421875 315.820312 15.875 316.035156 15.371094 C 316.25 14.871094 316.5625 14.480469 316.972656 14.207031 C 317.378906 13.933594 317.859375 13.796875 318.410156 13.796875 C 319.144531 13.796875 319.75 14.09375 320.226562 14.6875 L 320.226562 13.9375 L 321.199219 13.9375 L 321.199219 19.316406 C 321.199219 20.285156 321.097656 20.96875 320.902344 21.375 C 320.703125 21.773438 320.390625 22.09375 319.964844 22.332031 C 319.535156 22.5625 319.011719 22.679688 318.386719 22.683594 C 317.644531 22.679688 317.042969 22.511719 316.585938 22.183594 C 316.128906 21.847656 315.910156 21.347656 315.925781 20.675781 Z M 316.796875 16.9375 C 316.792969 17.753906 316.957031 18.351562 317.285156 18.722656 C 317.609375 19.101562 318.015625 19.289062 318.503906 19.285156 C 318.988281 19.289062 319.394531 19.101562 319.722656 18.726562 C 320.050781 18.355469 320.214844 17.769531 320.214844 16.972656 C 320.214844 16.214844 320.042969 15.640625 319.707031 15.25 C 319.367188 14.863281 318.960938 14.671875 318.484375 14.667969 C 318.011719 14.671875 317.613281 14.863281 317.289062 15.242188 C 316.957031 15.625 316.792969 16.1875 316.796875 16.9375 Z M 326.851562 19.394531 C 326.460938 19.726562 326.082031 19.960938 325.722656 20.097656 C 325.355469 20.234375 324.96875 20.300781 324.5625 20.300781 C 323.875 20.300781 323.351562 20.136719 322.984375 19.800781 C 322.617188 19.472656 322.433594 19.042969 322.433594 18.519531 C 322.433594 18.214844 322.5 17.9375 322.640625 17.6875 C 322.777344 17.4375 322.960938 17.234375 323.1875 17.078125 C 323.410156 16.925781 323.664062 16.8125 323.945312 16.730469 C 324.152344 16.683594 324.464844 16.628906 324.882812 16.574219 C 325.734375 16.472656 326.359375 16.351562 326.765625 16.210938 C 326.765625 16.070312 326.769531 15.980469 326.769531 15.933594 C 326.769531 15.511719 326.667969 15.207031 326.46875 15.027344 C 326.199219 14.789062 325.800781 14.671875 325.269531 14.667969 C 324.769531 14.671875 324.402344 14.757812 324.167969 14.929688 C 323.933594 15.105469 323.757812 15.414062 323.648438 15.855469 L 322.617188 15.714844 C 322.707031 15.273438 322.863281 14.917969 323.078125 14.644531 C 323.289062 14.378906 323.597656 14.167969 324.007812 14.019531 C 324.410156 13.871094 324.882812 13.796875 325.421875 13.796875 C 325.953125 13.796875 326.382812 13.859375 326.714844 13.984375 C 327.046875 14.109375 327.292969 14.269531 327.449219 14.457031 C 327.605469 14.648438 327.714844 14.886719 327.777344 15.175781 C 327.808594 15.355469 327.824219 15.679688 327.828125 16.144531 L 327.828125 17.550781 C 327.824219 18.535156 327.847656 19.15625 327.894531 19.414062 C 327.941406 19.675781 328.03125 19.921875 328.164062 20.160156 L 327.0625 20.160156 C 326.953125 19.941406 326.882812 19.6875 326.851562 19.394531 Z M 326.765625 17.035156 C 326.375 17.195312 325.800781 17.328125 325.039062 17.433594 C 324.605469 17.5 324.300781 17.570312 324.121094 17.644531 C 323.941406 17.726562 323.800781 17.839844 323.703125 17.988281 C 323.605469 18.140625 323.558594 18.308594 323.558594 18.488281 C 323.558594 18.773438 323.664062 19.007812 323.875 19.191406 C 324.085938 19.382812 324.398438 19.476562 324.8125 19.472656 C 325.21875 19.476562 325.578125 19.386719 325.894531 19.207031 C 326.210938 19.03125 326.445312 18.789062 326.59375 18.480469 C 326.707031 18.242188 326.761719 17.890625 326.765625 17.425781 Z M 331.769531 19.214844 L 331.921875 20.148438 C 331.625 20.210938 331.359375 20.242188 331.125 20.242188 C 330.742188 20.242188 330.445312 20.183594 330.234375 20.0625 C 330.023438 19.941406 329.875 19.78125 329.789062 19.582031 C 329.703125 19.386719 329.660156 18.972656 329.660156 18.339844 L 329.660156 14.757812 L 328.886719 14.757812 L 328.886719 13.9375 L 329.660156 13.9375 L 329.660156 12.394531 L 330.707031 11.761719 L 330.707031 13.9375 L 331.769531 13.9375 L 331.769531 14.757812 L 330.707031 14.757812 L 330.707031 18.394531 C 330.703125 18.699219 330.722656 18.890625 330.761719 18.976562 C 330.800781 19.0625 330.859375 19.132812 330.945312 19.183594 C 331.027344 19.234375 331.148438 19.257812 331.308594 19.257812 C 331.417969 19.257812 331.574219 19.246094 331.769531 19.214844 Z M 337.058594 18.15625 L 338.148438 18.292969 C 337.976562 18.929688 337.65625 19.421875 337.191406 19.773438 C 336.726562 20.125 336.132812 20.300781 335.414062 20.300781 C 334.5 20.300781 333.777344 20.023438 333.246094 19.460938 C 332.707031 18.90625 332.441406 18.117188 332.445312 17.101562 C 332.441406 16.054688 332.710938 15.242188 333.253906 14.664062 C 333.789062 14.085938 334.488281 13.796875 335.351562 13.796875 C 336.183594 13.796875 336.863281 14.082031 337.390625 14.648438 C 337.917969 15.214844 338.183594 16.011719 338.183594 17.035156 C 338.183594 17.101562 338.179688 17.195312 338.179688 17.316406 L 333.539062 17.316406 C 333.570312 18.003906 333.765625 18.527344 334.117188 18.890625 C 334.464844 19.253906 334.898438 19.433594 335.417969 19.433594 C 335.804688 19.433594 336.132812 19.332031 336.410156 19.128906 C 336.679688 18.925781 336.898438 18.601562 337.058594 18.15625 Z M 333.59375 16.449219 L 337.070312 16.449219 C 337.023438 15.933594 336.890625 15.539062 336.671875 15.273438 C 336.335938 14.867188 335.898438 14.664062 335.367188 14.664062 C 334.878906 14.664062 334.472656 14.828125 334.144531 15.152344 C 333.8125 15.476562 333.628906 15.910156 333.59375 16.449219 Z M 343.511719 20.160156 L 343.511719 19.375 C 343.113281 19.992188 342.53125 20.300781 341.769531 20.300781 C 341.273438 20.300781 340.816406 20.164062 340.402344 19.890625 C 339.980469 19.617188 339.660156 19.238281 339.433594 18.746094 C 339.207031 18.261719 339.09375 17.695312 339.09375 17.054688 C 339.09375 16.433594 339.195312 15.871094 339.402344 15.363281 C 339.609375 14.859375 339.921875 14.472656 340.335938 14.203125 C 340.75 13.933594 341.210938 13.796875 341.722656 13.796875 C 342.09375 13.796875 342.429688 13.878906 342.726562 14.035156 C 343.019531 14.195312 343.257812 14.398438 343.441406 14.652344 L 343.441406 11.570312 L 344.488281 11.570312 L 344.488281 20.160156 Z M 340.175781 17.054688 C 340.171875 17.851562 340.339844 18.449219 340.679688 18.84375 C 341.011719 19.238281 341.410156 19.433594 341.871094 19.433594 C 342.332031 19.433594 342.722656 19.246094 343.042969 18.867188 C 343.363281 18.492188 343.523438 17.917969 343.527344 17.144531 C 343.523438 16.292969 343.359375 15.667969 343.035156 15.265625 C 342.703125 14.871094 342.300781 14.671875 341.824219 14.667969 C 341.355469 14.671875 340.960938 14.863281 340.648438 15.242188 C 340.328125 15.628906 340.171875 16.230469 340.175781 17.054688 Z M 315.328125 9.296875 "/>
<path fill-rule="nonzero" fill="rgb(29.411765%, 75.294118%, 75.294118%)" fill-opacity="1" stroke-width="3" stroke-linecap="butt" stroke-linejoin="miter" stroke="rgb(29.411765%, 75.294118%, 75.294118%)" stroke-opacity="1" stroke-miterlimit="10" d="M 355.355469 10 L 395.355469 10 L 395.355469 22 L 355.355469 22 Z M 355.355469 10 "/>
<path fill-rule="nonzero" fill="rgb(40%, 40%, 40%)" fill-opacity="1" d="M 404.449219 19.214844 L 404.601562 20.148438 C 404.304688 20.210938 404.039062 20.242188 403.804688 20.242188 C 403.421875 20.242188 403.125 20.183594 402.914062 20.0625 C 402.703125 19.941406 402.554688 19.78125 402.46875 19.582031 C 402.382812 19.386719 402.339844 18.972656 402.339844 18.339844 L 402.339844 14.757812 L 401.566406 14.757812 L 401.566406 13.9375 L 402.339844 13.9375 L 402.339844 12.394531 L 403.386719 11.761719 L 403.386719 13.9375 L 404.449219 13.9375 L 404.449219 14.757812 L 403.386719 14.757812 L 403.386719 18.394531 C 403.382812 18.699219 403.402344 18.890625 403.441406 18.976562 C 403.480469 19.0625 403.539062 19.132812 403.625 19.183594 C 403.707031 19.234375 403.828125 19.257812 403.988281 19.257812 C 404.097656 19.257812 404.253906 19.246094 404.449219 19.214844 Z M 405.085938 17.050781 C 405.085938 15.898438 405.40625 15.042969 406.046875 14.488281 C 406.582031 14.027344 407.234375 13.796875 408.003906 13.796875 C 408.859375 13.796875 409.558594 14.078125 410.101562 14.640625 C 410.640625 15.203125 410.910156 15.976562 410.914062 16.960938 C 410.910156 17.761719 410.789062 18.394531 410.554688 18.851562 C 410.3125 19.3125 409.964844 19.667969 409.507812 19.921875 C 409.046875 20.175781 408.546875 20.300781 408.003906 20.300781 C 407.128906 20.300781 406.421875 20.023438 405.890625 19.464844 C 405.351562 18.90625 405.085938 18.101562 405.085938 17.050781 Z M 406.171875 17.050781 C 406.167969 17.851562 406.34375 18.449219 406.691406 18.839844 C 407.035156 19.238281 407.472656 19.433594 408.003906 19.433594 C 408.527344 19.433594 408.960938 19.234375 409.308594 18.835938 C 409.65625 18.4375 409.832031 17.832031 409.832031 17.011719 C 409.832031 16.246094 409.65625 15.664062 409.304688 15.265625 C 408.953125 14.871094 408.519531 14.671875 408.003906 14.667969 C 407.472656 14.671875 407.035156 14.867188 406.691406 15.261719 C 406.34375 15.660156 406.167969 16.257812 406.171875 17.050781 Z M 412.152344 22.542969 L 412.152344 13.9375 L 413.113281 13.9375 L 413.113281 14.746094 C 413.339844 14.429688 413.597656 14.195312 413.882812 14.035156 C 414.164062 13.878906 414.507812 13.796875 414.917969 13.796875 C 415.445312 13.796875 415.914062 13.933594 416.324219 14.207031 C 416.726562 14.480469 417.035156 14.867188 417.246094 15.367188 C 417.453125 15.867188 417.554688 16.414062 417.558594 17.003906 C 417.554688 17.640625 417.441406 18.214844 417.214844 18.722656 C 416.984375 19.238281 416.652344 19.628906 416.21875 19.894531 C 415.78125 20.167969 415.324219 20.300781 414.84375 20.300781 C 414.492188 20.300781 414.175781 20.226562 413.898438 20.078125 C 413.617188 19.929688 413.386719 19.742188 413.207031 19.515625 L 413.207031 22.542969 Z M 413.109375 17.082031 C 413.109375 17.886719 413.269531 18.476562 413.59375 18.859375 C 413.917969 19.242188 414.3125 19.433594 414.773438 19.433594 C 415.242188 19.433594 415.640625 19.238281 415.976562 18.839844 C 416.308594 18.449219 416.476562 17.832031 416.480469 16.996094 C 416.476562 16.207031 416.3125 15.613281 415.988281 15.214844 C 415.660156 14.820312 415.273438 14.625 414.820312 14.621094 C 414.367188 14.625 413.96875 14.835938 413.625 15.253906 C 413.28125 15.675781 413.109375 16.285156 413.109375 17.082031 Z M 418.421875 17.582031 L 418.421875 16.519531 L 421.660156 16.519531 L 421.660156 17.582031 Z M 422.828125 20.160156 L 422.828125 11.570312 L 423.882812 11.570312 L 423.882812 16.46875 L 426.378906 13.9375 L 427.742188 13.9375 L 425.367188 16.246094 L 427.984375 20.160156 L 426.683594 20.160156 L 424.625 16.980469 L 423.882812 17.691406 L 423.882812 20.160156 Z M 401.355469 9.296875 "/>
<path fill-rule="nonzero" fill="rgb(60%, 40%, 100%)" fill-opacity="1" stroke-width="3" stroke-linecap="butt" stroke-linejoin="miter" stroke="rgb(60%, 40%, 100%)" stroke-opacity="1" stroke-miterlimit="10" d="M 438.035156 10 L 478.035156 10 L 478.035156 22 L 438.035156 22 Z M 438.035156 10 "/>
<path fill-rule="nonzero" fill="rgb(40%, 40%, 40%)" fill-opacity="1" d="M 487.128906 19.214844 L 487.28125 20.148438 C 486.984375 20.210938 486.71875 20.242188 486.484375 20.242188 C 486.101562 20.242188 485.804688 20.183594 485.59375 20.0625 C 485.382812 19.941406 485.234375 19.78125 485.148438 19.582031 C 485.0625 19.386719 485.019531 18.972656 485.019531 18.339844 L 485.019531 14.757812 L 484.246094 14.757812 L 484.246094 13.9375 L 485.019531 13.9375 L 485.019531 12.394531 L 486.066406 11.761719 L 486.066406 13.9375 L 487.128906 13.9375 L 487.128906 14.757812 L 486.066406 14.757812 L 486.066406 18.394531 C 486.0625 18.699219 486.082031 18.890625 486.121094 18.976562 C 486.160156 19.0625 486.21875 19.132812 486.304688 19.183594 C 486.386719 19.234375 486.507812 19.257812 486.667969 19.257812 C 486.777344 19.257812 486.933594 19.246094 487.128906 19.214844 Z M 487.765625 17.050781 C 487.765625 15.898438 488.085938 15.042969 488.726562 14.488281 C 489.261719 14.027344 489.914062 13.796875 490.683594 13.796875 C 491.539062 13.796875 492.238281 14.078125 492.78125 14.640625 C 493.320312 15.203125 493.589844 15.976562 493.59375 16.960938 C 493.589844 17.761719 493.46875 18.394531 493.234375 18.851562 C 492.992188 19.3125 492.644531 19.667969 492.1875 19.921875 C 491.726562 20.175781 491.226562 20.300781 490.683594 20.300781 C 489.808594 20.300781 489.101562 20.023438 488.570312 19.464844 C 488.03125 18.90625 487.765625 18.101562 487.765625 17.050781 Z M 488.851562 17.050781 C 488.847656 17.851562 489.023438 18.449219 489.371094 18.839844 C 489.714844 19.238281 490.152344 19.433594 490.683594 19.433594 C 491.207031 19.433594 491.640625 19.234375 491.988281 18.835938 C 492.335938 18.4375 492.511719 17.832031 492.511719 17.011719 C 492.511719 16.246094 492.335938 15.664062 491.984375 15.265625 C 491.632812 14.871094 491.199219 14.671875 490.683594 14.667969 C 490.152344 14.671875 489.714844 14.867188 489.371094 15.261719 C 489.023438 15.660156 488.847656 16.257812 488.851562 17.050781 Z M 494.832031 22.542969 L 494.832031 13.9375 L 495.792969 13.9375 L 495.792969 14.746094 C 496.019531 14.429688 496.277344 14.195312 496.5625 14.035156 C 496.84375 13.878906 497.1875 13.796875 497.597656 13.796875 C 498.125 13.796875 498.59375 13.933594 499.003906 14.207031 C 499.40625 14.480469 499.714844 14.867188 499.925781 15.367188 C 500.132812 15.867188 500.234375 16.414062 500.238281 17.003906 C 500.234375 17.640625 500.121094 18.214844 499.894531 18.722656 C 499.664062 19.238281 499.332031 19.628906 498.898438 19.894531 C 498.460938 20.167969 498.003906 20.300781 497.523438 20.300781 C 497.171875 20.300781 496.855469 20.226562 496.578125 20.078125 C 496.296875 19.929688 496.066406 19.742188 495.886719 19.515625 L 495.886719 22.542969 Z M 495.789062 17.082031 C 495.789062 17.886719 495.949219 18.476562 496.273438 18.859375 C 496.597656 19.242188 496.992188 19.433594 497.453125 19.433594 C 497.921875 19.433594 498.320312 19.238281 498.65625 18.839844 C 498.988281 18.449219 499.15625 17.832031 499.160156 16.996094 C 499.15625 16.207031 498.992188 15.613281 498.667969 15.214844 C 498.339844 14.820312 497.953125 14.625 497.5 14.621094 C 497.046875 14.625 496.648438 14.835938 496.304688 15.253906 C 495.960938 15.675781 495.789062 16.285156 495.789062 17.082031 Z M 501.101562 17.582031 L 501.101562 16.519531 L 504.339844 16.519531 L 504.339844 17.582031 Z M 505.507812 20.160156 L 505.507812 11.570312 L 506.5625 11.570312 L 506.5625 16.46875 L 509.058594 13.9375 L 510.421875 13.9375 L 508.046875 16.246094 L 510.664062 20.160156 L 509.363281 20.160156 L 507.304688 16.980469 L 506.5625 17.691406 L 506.5625 20.160156 Z M 517.054688 18.769531 L 517.054688 16.417969 L 514.714844 16.417969 L 514.714844 15.433594 L 517.054688 15.433594 L 517.054688 13.09375 L 518.046875 13.09375 L 518.046875 15.433594 L 520.386719 15.433594 L 520.386719 16.417969 L 518.046875 16.417969 L 518.046875 18.769531 Z M 525.15625 20.160156 L 525.15625 11.570312 L 526.210938 11.570312 L 526.210938 20.160156 Z M 527.453125 17.050781 C 527.453125 15.898438 527.773438 15.042969 528.414062 14.488281 C 528.949219 14.027344 529.601562 13.796875 530.371094 13.796875 C 531.226562 13.796875 531.925781 14.078125 532.46875 14.640625 C 533.007812 15.203125 533.277344 15.976562 533.28125 16.960938 C 533.277344 17.761719 533.15625 18.394531 532.921875 18.851562 C 532.679688 19.3125 532.332031 19.667969 531.875 19.921875 C 531.414062 20.175781 530.914062 20.300781 530.371094 20.300781 C 529.496094 20.300781 528.789062 20.023438 528.257812 19.464844 C 527.71875 18.90625 527.453125 18.101562 527.453125 17.050781 Z M 528.539062 17.050781 C 528.535156 17.851562 528.710938 18.449219 529.058594 18.839844 C 529.402344 19.238281 529.839844 19.433594 530.371094 19.433594 C 530.894531 19.433594 531.328125 19.234375 531.675781 18.835938 C 532.023438 18.4375 532.199219 17.832031 532.199219 17.011719 C 532.199219 16.246094 532.023438 15.664062 531.671875 15.265625 C 531.320312 14.871094 530.886719 14.671875 530.371094 14.667969 C 529.839844 14.671875 529.402344 14.867188 529.058594 15.261719 C 528.710938 15.660156 528.535156 16.257812 528.539062 17.050781 Z M 534.125 17.050781 C 534.125 15.898438 534.445312 15.042969 535.085938 14.488281 C 535.621094 14.027344 536.273438 13.796875 537.042969 13.796875 C 537.898438 13.796875 538.597656 14.078125 539.140625 14.640625 C 539.679688 15.203125 539.949219 15.976562 539.953125 16.960938 C 539.949219 17.761719 539.828125 18.394531 539.59375 18.851562 C 539.351562 19.3125 539.003906 19.667969 538.546875 19.921875 C 538.085938 20.175781 537.585938 20.300781 537.042969 20.300781 C 536.167969 20.300781 535.460938 20.023438 534.929688 19.464844 C 534.390625 18.90625 534.125 18.101562 534.125 17.050781 Z M 535.210938 17.050781 C 535.207031 17.851562 535.382812 18.449219 535.730469 18.839844 C 536.074219 19.238281 536.511719 19.433594 537.042969 19.433594 C 537.566406 19.433594 538 19.234375 538.347656 18.835938 C 538.695312 18.4375 538.871094 17.832031 538.871094 17.011719 C 538.871094 16.246094 538.695312 15.664062 538.34375 15.265625 C 537.992188 14.871094 537.558594 14.671875 537.042969 14.667969 C 536.511719 14.671875 536.074219 14.867188 535.730469 15.261719 C 535.382812 15.660156 535.207031 16.257812 535.210938 17.050781 Z M 541.199219 20.160156 L 541.199219 11.570312 L 542.253906 11.570312 L 542.253906 16.46875 L 544.75 13.9375 L 546.113281 13.9375 L 543.738281 16.246094 L 546.355469 20.160156 L 545.054688 20.160156 L 542.996094 16.980469 L 542.253906 17.691406 L 542.253906 20.160156 Z M 551.269531 20.160156 L 551.269531 19.246094 C 550.78125 19.949219 550.125 20.300781 549.296875 20.300781 C 548.929688 20.300781 548.585938 20.230469 548.269531 20.089844 C 547.949219 19.949219 547.710938 19.773438 547.558594 19.558594 C 547.402344 19.347656 547.296875 19.085938 547.234375 18.777344 C 547.1875 18.570312 547.164062 18.242188 547.167969 17.792969 L 547.167969 13.9375 L 548.222656 13.9375 L 548.222656 17.386719 C 548.21875 17.941406 548.242188 18.3125 548.289062 18.503906 C 548.351562 18.78125 548.492188 19 548.710938 19.15625 C 548.925781 19.320312 549.191406 19.398438 549.507812 19.394531 C 549.820312 19.398438 550.117188 19.316406 550.398438 19.152344 C 550.675781 18.988281 550.871094 18.769531 550.988281 18.488281 C 551.101562 18.210938 551.160156 17.804688 551.160156 17.269531 L 551.160156 13.9375 L 552.214844 13.9375 L 552.214844 20.160156 Z M 553.867188 22.542969 L 553.867188 13.9375 L 554.828125 13.9375 L 554.828125 14.746094 C 555.054688 14.429688 555.3125 14.195312 555.597656 14.035156 C 555.878906 13.878906 556.222656 13.796875 556.632812 13.796875 C 557.160156 13.796875 557.628906 13.933594 558.039062 14.207031 C 558.441406 14.480469 558.75 14.867188 558.960938 15.367188 C 559.167969 15.867188 559.269531 16.414062 559.273438 17.003906 C 559.269531 17.640625 559.15625 18.214844 558.929688 18.722656 C 558.699219 19.238281 558.367188 19.628906 557.933594 19.894531 C 557.496094 20.167969 557.039062 20.300781 556.558594 20.300781 C 556.207031 20.300781 555.890625 20.226562 555.613281 20.078125 C 555.332031 19.929688 555.101562 19.742188 554.921875 19.515625 L 554.921875 22.542969 Z M 554.824219 17.082031 C 554.824219 17.886719 554.984375 18.476562 555.308594 18.859375 C 555.632812 19.242188 556.027344 19.433594 556.488281 19.433594 C 556.957031 19.433594 557.355469 19.238281 557.691406 18.839844 C 558.023438 18.449219 558.191406 17.832031 558.195312 16.996094 C 558.191406 16.207031 558.027344 15.613281 557.703125 15.214844 C 557.375 14.820312 556.988281 14.625 556.535156 14.621094 C 556.082031 14.625 555.683594 14.835938 555.339844 15.253906 C 554.996094 15.675781 554.824219 16.285156 554.824219 17.082031 Z M 484.035156 9.296875 "/>
<path fill="none" stroke-width="1" stroke-linecap="butt" stroke-linejoin="miter" stroke="rgb(0%, 0%, 0%)" stroke-opacity="0.0980392" stroke-miterlimit="10" d="M 59 349.5 L 587 349.5 "/>
<path fill-rule="nonzero" fill="rgb(40%, 40%, 40%)" fill-opacity="1" d="M 61.222656 371.558594 L 60.167969 371.558594 L 60.167969 364.839844 C 59.914062 365.082031 59.582031 365.324219 59.167969 365.5625 C 58.753906 365.808594 58.382812 365.988281 58.058594 366.109375 L 58.058594 365.089844 C 58.648438 364.816406 59.164062 364.480469 59.605469 364.082031 C 60.046875 363.6875 60.359375 363.304688 60.542969 362.933594 L 61.222656 362.933594 Z M 56.753906 360.695312 "/>
<path fill-rule="nonzero" fill="rgb(40%, 40%, 40%)" fill-opacity="1" d="M 131.769531 370.542969 L 131.769531 371.558594 L 126.09375 371.558594 C 126.085938 371.304688 126.125 371.0625 126.214844 370.824219 C 126.359375 370.441406 126.589844 370.058594 126.910156 369.683594 C 127.222656 369.308594 127.683594 368.875 128.292969 368.382812 C 129.222656 367.617188 129.855469 367.011719 130.183594 366.566406 C 130.511719 366.121094 130.675781 365.699219 130.675781 365.292969 C 130.675781 364.878906 130.523438 364.527344 130.226562 364.238281 C 129.921875 363.957031 129.535156 363.8125 129.058594 363.808594 C 128.550781 363.8125 128.144531 363.964844 127.839844 364.265625 C 127.535156 364.574219 127.378906 364.996094 127.378906 365.527344 L 126.292969 365.417969 C 126.363281 364.613281 126.640625 364 127.128906 363.570312 C 127.609375 363.148438 128.261719 362.933594 129.082031 362.933594 C 129.902344 362.933594 130.554688 363.164062 131.039062 363.621094 C 131.519531 364.078125 131.757812 364.644531 131.761719 365.316406 C 131.757812 365.664062 131.6875 366 131.550781 366.332031 C 131.40625 366.667969 131.171875 367.019531 130.847656 367.382812 C 130.519531 367.753906 129.980469 368.257812 129.222656 368.894531 C 128.589844 369.429688 128.183594 369.789062 128.003906 369.976562 C 127.824219 370.164062 127.675781 370.355469 127.558594 370.542969 Z M 125.730469 360.695312 "/>
<path fill-rule="nonzero" fill="rgb(40%, 40%, 40%)" fill-opacity="1" d="M 217.410156 369.308594 L 218.515625 369.214844 C 218.59375 369.753906 218.78125 370.160156 219.085938 370.433594 C 219.382812 370.707031 219.746094 370.84375 220.167969 370.839844 C 220.675781 370.84375 221.105469 370.652344 221.457031 370.265625 C 221.808594 369.886719 221.984375 369.378906 221.984375 368.738281 C 221.984375 368.144531 221.8125 367.667969 221.476562 367.316406 C 221.136719 366.96875 220.695312 366.796875 220.152344 366.792969 C 219.808594 366.796875 219.503906 366.875 219.230469 367.027344 C 218.957031 367.183594 218.742188 367.382812 218.585938 367.628906 L 217.597656 367.496094 L 218.425781 363.085938 L 222.699219 363.085938 L 222.699219 364.09375 L 219.269531 364.09375 L 218.808594 366.402344 C 219.324219 366.042969 219.863281 365.863281 220.433594 365.863281 C 221.179688 365.863281 221.8125 366.125 222.332031 366.644531 C 222.84375 367.164062 223.101562 367.832031 223.105469 368.644531 C 223.101562 369.425781 222.875 370.097656 222.425781 370.660156 C 221.871094 371.359375 221.121094 371.703125 220.167969 371.707031 C 219.386719 371.703125 218.746094 371.488281 218.253906 371.050781 C 217.753906 370.617188 217.472656 370.035156 217.410156 369.308594 Z M 216.910156 360.695312 "/>
<path fill-rule="nonzero" fill="rgb(40%, 40%, 40%)" fill-opacity="1" d="M 286.355469 371.558594 L 285.300781 371.558594 L 285.300781 364.839844 C 285.046875 365.082031 284.714844 365.324219 284.300781 365.5625 C 283.886719 365.808594 283.515625 365.988281 283.191406 366.109375 L 283.191406 365.089844 C 283.78125 364.816406 284.296875 364.480469 284.738281 364.082031 C 285.179688 363.6875 285.492188 363.304688 285.675781 362.933594 L 286.355469 362.933594 Z M 289.0625 367.324219 C 289.058594 366.3125 289.164062 365.496094 289.375 364.871094 C 289.582031 364.253906 289.890625 363.773438 290.304688 363.4375 C 290.710938 363.101562 291.230469 362.933594 291.859375 362.933594 C 292.320312 362.933594 292.726562 363.027344 293.074219 363.210938 C 293.417969 363.398438 293.703125 363.667969 293.933594 364.015625 C 294.15625 364.367188 294.335938 364.792969 294.46875 365.292969 C 294.597656 365.796875 294.660156 366.472656 294.664062 367.324219 C 294.660156 368.332031 294.558594 369.144531 294.351562 369.761719 C 294.140625 370.382812 293.828125 370.863281 293.421875 371.199219 C 293.007812 371.539062 292.488281 371.703125 291.859375 371.707031 C 291.027344 371.703125 290.378906 371.410156 289.910156 370.816406 C 289.34375 370.101562 289.058594 368.9375 289.0625 367.324219 Z M 290.144531 367.324219 C 290.144531 368.734375 290.308594 369.671875 290.636719 370.140625 C 290.964844 370.609375 291.371094 370.84375 291.859375 370.839844 C 292.339844 370.84375 292.746094 370.609375 293.082031 370.136719 C 293.410156 369.671875 293.578125 368.734375 293.578125 367.324219 C 293.578125 365.910156 293.410156 364.96875 293.082031 364.503906 C 292.746094 364.042969 292.335938 363.8125 291.851562 363.808594 C 291.363281 363.8125 290.976562 364.015625 290.6875 364.421875 C 290.324219 364.945312 290.144531 365.914062 290.144531 367.324219 Z M 281.886719 360.695312 "/>
<path fill-rule="nonzero" fill="rgb(40%, 40%, 40%)" fill-opacity="1" d="M 356.898438 370.542969 L 356.898438 371.558594 L 351.222656 371.558594 C 351.214844 371.304688 351.253906 371.0625 351.34375 370.824219 C 351.488281 370.441406 351.71875 370.058594 352.039062 369.683594 C 352.351562 369.308594 352.8125 368.875 353.421875 368.382812 C 354.351562 367.617188 354.984375 367.011719 355.3125 366.566406 C 355.640625 366.121094 355.804688 365.699219 355.804688 365.292969 C 355.804688 364.878906 355.652344 364.527344 355.355469 364.238281 C 355.050781 363.957031 354.664062 363.8125 354.1875 363.808594 C 353.679688 363.8125 353.273438 363.964844 352.96875 364.265625 C 352.664062 364.574219 352.507812 364.996094 352.507812 365.527344 L 351.421875 365.417969 C 351.492188 364.613281 351.769531 364 352.257812 363.570312 C 352.738281 363.148438 353.390625 362.933594 354.210938 362.933594 C 355.03125 362.933594 355.683594 363.164062 356.167969 363.621094 C 356.648438 364.078125 356.886719 364.644531 356.890625 365.316406 C 356.886719 365.664062 356.816406 366 356.679688 366.332031 C 356.535156 366.667969 356.300781 367.019531 355.976562 367.382812 C 355.648438 367.753906 355.109375 368.257812 354.351562 368.894531 C 353.71875 369.429688 353.3125 369.789062 353.132812 369.976562 C 352.953125 370.164062 352.804688 370.355469 352.6875 370.542969 Z M 358.03125 367.324219 C 358.027344 366.3125 358.132812 365.496094 358.34375 364.871094 C 358.550781 364.253906 358.859375 363.773438 359.273438 363.4375 C 359.679688 363.101562 360.199219 362.933594 360.828125 362.933594 C 361.289062 362.933594 361.695312 363.027344 362.042969 363.210938 C 362.386719 363.398438 362.671875 363.667969 362.902344 364.015625 C 363.125 364.367188 363.304688 364.792969 363.4375 365.292969 C 363.566406 365.796875 363.628906 366.472656 363.632812 367.324219 C 363.628906 368.332031 363.527344 369.144531 363.320312 369.761719 C 363.109375 370.382812 362.796875 370.863281 362.390625 371.199219 C 361.976562 371.539062 361.457031 371.703125 360.828125 371.707031 C 359.996094 371.703125 359.347656 371.410156 358.878906 370.816406 C 358.3125 370.101562 358.027344 368.9375 358.03125 367.324219 Z M 359.113281 367.324219 C 359.113281 368.734375 359.277344 369.671875 359.605469 370.140625 C 359.933594 370.609375 360.339844 370.84375 360.828125 370.839844 C 361.308594 370.84375 361.714844 370.609375 362.050781 370.136719 C 362.378906 369.671875 362.546875 368.734375 362.546875 367.324219 C 362.546875 365.910156 362.378906 364.96875 362.050781 364.503906 C 361.714844 364.042969 361.304688 363.8125 360.820312 363.808594 C 360.332031 363.8125 359.945312 364.015625 359.65625 364.421875 C 359.292969 364.945312 359.113281 365.914062 359.113281 367.324219 Z M 350.859375 360.695312 "/>
<path fill-rule="nonzero" fill="rgb(40%, 40%, 40%)" fill-opacity="1" d="M 442.539062 369.308594 L 443.644531 369.214844 C 443.722656 369.753906 443.910156 370.160156 444.214844 370.433594 C 444.511719 370.707031 444.875 370.84375 445.296875 370.839844 C 445.804688 370.84375 446.234375 370.652344 446.585938 370.265625 C 446.9375 369.886719 447.113281 369.378906 447.113281 368.738281 C 447.113281 368.144531 446.941406 367.667969 446.605469 367.316406 C 446.265625 366.96875 445.824219 366.796875 445.28125 366.792969 C 444.9375 366.796875 444.632812 366.875 444.359375 367.027344 C 444.085938 367.183594 443.871094 367.382812 443.714844 367.628906 L 442.726562 367.496094 L 443.554688 363.085938 L 447.828125 363.085938 L 447.828125 364.09375 L 444.398438 364.09375 L 443.9375 366.402344 C 444.453125 366.042969 444.992188 365.863281 445.5625 365.863281 C 446.308594 365.863281 446.941406 366.125 447.460938 366.644531 C 447.972656 367.164062 448.230469 367.832031 448.234375 368.644531 C 448.230469 369.425781 448.003906 370.097656 447.554688 370.660156 C 447 371.359375 446.25 371.703125 445.296875 371.707031 C 444.515625 371.703125 443.875 371.488281 443.382812 371.050781 C 442.882812 370.617188 442.601562 370.035156 442.539062 369.308594 Z M 449.210938 367.324219 C 449.207031 366.3125 449.3125 365.496094 449.523438 364.871094 C 449.730469 364.253906 450.039062 363.773438 450.453125 363.4375 C 450.859375 363.101562 451.378906 362.933594 452.007812 362.933594 C 452.46875 362.933594 452.875 363.027344 453.222656 363.210938 C 453.566406 363.398438 453.851562 363.667969 454.082031 364.015625 C 454.304688 364.367188 454.484375 364.792969 454.617188 365.292969 C 454.746094 365.796875 454.808594 366.472656 454.8125 367.324219 C 454.808594 368.332031 454.707031 369.144531 454.5 369.761719 C 454.289062 370.382812 453.976562 370.863281 453.570312 371.199219 C 453.15625 371.539062 452.636719 371.703125 452.007812 371.707031 C 451.175781 371.703125 450.527344 371.410156 450.058594 370.816406 C 449.492188 370.101562 449.207031 368.9375 449.210938 367.324219 Z M 450.292969 367.324219 C 450.292969 368.734375 450.457031 369.671875 450.785156 370.140625 C 451.113281 370.609375 451.519531 370.84375 452.007812 370.839844 C 452.488281 370.84375 452.894531 370.609375 453.230469 370.136719 C 453.558594 369.671875 453.726562 368.734375 453.726562 367.324219 C 453.726562 365.910156 453.558594 364.96875 453.230469 364.503906 C 452.894531 364.042969 452.484375 363.8125 452 363.808594 C 451.511719 363.8125 451.125 364.015625 450.835938 364.421875 C 450.472656 364.945312 450.292969 365.914062 450.292969 367.324219 Z M 442.039062 360.695312 "/>
<path fill-rule="nonzero" fill="rgb(40%, 40%, 40%)" fill-opacity="1" d="M 512.484375 371.558594 L 511.429688 371.558594 L 511.429688 364.839844 C 511.175781 365.082031 510.84375 365.324219 510.429688 365.5625 C 510.015625 365.808594 509.644531 365.988281 509.320312 366.109375 L 509.320312 365.089844 C 509.910156 364.816406 510.425781 364.480469 510.867188 364.082031 C 511.308594 363.6875 511.621094 363.304688 511.804688 362.933594 L 512.484375 362.933594 Z M 515.1875 367.324219 C 515.183594 366.3125 515.289062 365.496094 515.5 364.871094 C 515.707031 364.253906 516.015625 363.773438 516.429688 363.4375 C 516.835938 363.101562 517.355469 362.933594 517.984375 362.933594 C 518.445312 362.933594 518.851562 363.027344 519.199219 363.210938 C 519.542969 363.398438 519.828125 363.667969 520.058594 364.015625 C 520.28125 364.367188 520.460938 364.792969 520.59375 365.292969 C 520.722656 365.796875 520.785156 366.472656 520.789062 367.324219 C 520.785156 368.332031 520.683594 369.144531 520.476562 369.761719 C 520.265625 370.382812 519.953125 370.863281 519.546875 371.199219 C 519.132812 371.539062 518.613281 371.703125 517.984375 371.707031 C 517.152344 371.703125 516.503906 371.410156 516.035156 370.816406 C 515.46875 370.101562 515.183594 368.9375 515.1875 367.324219 Z M 516.269531 367.324219 C 516.269531 368.734375 516.433594 369.671875 516.761719 370.140625 C 517.089844 370.609375 517.496094 370.84375 517.984375 370.839844 C 518.464844 370.84375 518.871094 370.609375 519.207031 370.136719 C 519.535156 369.671875 519.703125 368.734375 519.703125 367.324219 C 519.703125 365.910156 519.535156 364.96875 519.207031 364.503906 C 518.871094 364.042969 518.460938 363.8125 517.976562 363.808594 C 517.488281 363.8125 517.101562 364.015625 516.8125 364.421875 C 516.449219 364.945312 516.269531 365.914062 516.269531 367.324219 Z M 521.863281 367.324219 C 521.859375 366.3125 521.964844 365.496094 522.175781 364.871094 C 522.382812 364.253906 522.691406 363.773438 523.105469 363.4375 C 523.511719 363.101562 524.03125 362.933594 524.660156 362.933594 C 525.121094 362.933594 525.527344 363.027344 525.875 363.210938 C 526.21875 363.398438 526.503906 363.667969 526.734375 364.015625 C 526.957031 364.367188 527.136719 364.792969 527.269531 365.292969 C 527.398438 365.796875 527.460938 366.472656 527.464844 367.324219 C 527.460938 368.332031 527.359375 369.144531 527.152344 369.761719 C 526.941406 370.382812 526.628906 370.863281 526.222656 371.199219 C 525.808594 371.539062 525.289062 371.703125 524.660156 371.707031 C 523.828125 371.703125 523.179688 371.410156 522.710938 370.816406 C 522.144531 370.101562 521.859375 368.9375 521.863281 367.324219 Z M 522.945312 367.324219 C 522.945312 368.734375 523.109375 369.671875 523.4375 370.140625 C 523.765625 370.609375 524.171875 370.84375 524.660156 370.839844 C 525.140625 370.84375 525.546875 370.609375 525.882812 370.136719 C 526.210938 369.671875 526.378906 368.734375 526.378906 367.324219 C 526.378906 365.910156 526.210938 364.96875 525.882812 364.503906 C 525.546875 364.042969 525.136719 363.8125 524.652344 363.808594 C 524.164062 363.8125 523.777344 364.015625 523.488281 364.421875 C 523.125 364.945312 522.945312 365.914062 522.945312 367.324219 Z M 508.015625 360.695312 "/>
<path fill-rule="nonzero" fill="rgb(40%, 40%, 40%)" fill-opacity="1" d="M 583.027344 370.542969 L 583.027344 371.558594 L 577.351562 371.558594 C 577.34375 371.304688 577.382812 371.0625 577.472656 370.824219 C 577.617188 370.441406 577.847656 370.058594 578.167969 369.683594 C 578.480469 369.308594 578.941406 368.875 579.550781 368.382812 C 580.480469 367.617188 581.113281 367.011719 581.441406 366.566406 C 581.769531 366.121094 581.933594 365.699219 581.933594 365.292969 C 581.933594 364.878906 581.78125 364.527344 581.484375 364.238281 C 581.179688 363.957031 580.792969 363.8125 580.316406 363.808594 C 579.808594 363.8125 579.402344 363.964844 579.097656 364.265625 C 578.792969 364.574219 578.636719 364.996094 578.636719 365.527344 L 577.550781 365.417969 C 577.621094 364.613281 577.898438 364 578.386719 363.570312 C 578.867188 363.148438 579.519531 362.933594 580.339844 362.933594 C 581.160156 362.933594 581.8125 363.164062 582.296875 363.621094 C 582.777344 364.078125 583.015625 364.644531 583.019531 365.316406 C 583.015625 365.664062 582.945312 366 582.808594 366.332031 C 582.664062 366.667969 582.429688 367.019531 582.105469 367.382812 C 581.777344 367.753906 581.238281 368.257812 580.480469 368.894531 C 579.847656 369.429688 579.441406 369.789062 579.261719 369.976562 C 579.082031 370.164062 578.933594 370.355469 578.816406 370.542969 Z M 584.164062 367.324219 C 584.160156 366.3125 584.265625 365.496094 584.476562 364.871094 C 584.683594 364.253906 584.992188 363.773438 585.40625 363.4375 C 585.8125 363.101562 586.332031 362.933594 586.960938 362.933594 C 587.421875 362.933594 587.828125 363.027344 588.175781 363.210938 C 588.519531 363.398438 588.804688 363.667969 589.035156 364.015625 C 589.257812 364.367188 589.4375 364.792969 589.570312 365.292969 C 589.699219 365.796875 589.761719 366.472656 589.765625 367.324219 C 589.761719 368.332031 589.660156 369.144531 589.453125 369.761719 C 589.242188 370.382812 588.929688 370.863281 588.523438 371.199219 C 588.109375 371.539062 587.589844 371.703125 586.960938 371.707031 C 586.128906 371.703125 585.480469 371.410156 585.011719 370.816406 C 584.445312 370.101562 584.160156 368.9375 584.164062 367.324219 Z M 585.246094 367.324219 C 585.246094 368.734375 585.410156 369.671875 585.738281 370.140625 C 586.066406 370.609375 586.472656 370.84375 586.960938 370.839844 C 587.441406 370.84375 587.847656 370.609375 588.183594 370.136719 C 588.511719 369.671875 588.679688 368.734375 588.679688 367.324219 C 588.679688 365.910156 588.511719 364.96875 588.183594 364.503906 C 587.847656 364.042969 587.4375 363.8125 586.953125 363.808594 C 586.464844 363.8125 586.078125 364.015625 585.789062 364.421875 C 585.425781 364.945312 585.246094 365.914062 585.246094 367.324219 Z M 590.835938 367.324219 C 590.832031 366.3125 590.9375 365.496094 591.148438 364.871094 C 591.355469 364.253906 591.664062 363.773438 592.078125 363.4375 C 592.484375 363.101562 593.003906 362.933594 593.632812 362.933594 C 594.09375 362.933594 594.5 363.027344 594.847656 363.210938 C 595.191406 363.398438 595.476562 363.667969 595.707031 364.015625 C 595.929688 364.367188 596.109375 364.792969 596.242188 365.292969 C 596.371094 365.796875 596.433594 366.472656 596.4375 367.324219 C 596.433594 368.332031 596.332031 369.144531 596.125 369.761719 C 595.914062 370.382812 595.601562 370.863281 595.195312 371.199219 C 594.78125 371.539062 594.261719 371.703125 593.632812 371.707031 C 592.800781 371.703125 592.152344 371.410156 591.683594 370.816406 C 591.117188 370.101562 590.832031 368.9375 590.835938 367.324219 Z M 591.917969 367.324219 C 591.917969 368.734375 592.082031 369.671875 592.410156 370.140625 C 592.738281 370.609375 593.144531 370.84375 593.632812 370.839844 C 594.113281 370.84375 594.519531 370.609375 594.855469 370.136719 C 595.183594 369.671875 595.351562 368.734375 595.351562 367.324219 C 595.351562 365.910156 595.183594 364.96875 594.855469 364.503906 C 594.519531 364.042969 594.109375 363.8125 593.625 363.808594 C 593.136719 363.8125 592.75 364.015625 592.460938 364.421875 C 592.097656 364.945312 591.917969 365.914062 591.917969 367.324219 Z M 576.988281 360.695312 "/>
<path fill="none" stroke-width="1" stroke-linecap="butt" stroke-linejoin="miter" stroke="rgb(0%, 0%, 0%)" stroke-opacity="0.0980392" stroke-miterlimit="10" d="M 59.5 32 L 59.5 350 "/>
<path fill-rule="nonzero" fill="rgb(40%, 40%, 40%)" fill-opacity="1" d="M 25.253906 349.125 C 25.25 348.113281 25.355469 347.296875 25.566406 346.671875 C 25.773438 346.054688 26.082031 345.574219 26.496094 345.238281 C 26.902344 344.902344 27.421875 344.734375 28.050781 344.734375 C 28.511719 344.734375 28.917969 344.828125 29.265625 345.011719 C 29.609375 345.199219 29.894531 345.46875 30.125 345.816406 C 30.347656 346.167969 30.527344 346.59375 30.660156 347.09375 C 30.789062 347.597656 30.851562 348.273438 30.855469 349.125 C 30.851562 350.132812 30.75 350.945312 30.542969 351.5625 C 30.332031 352.183594 30.019531 352.664062 29.613281 353 C 29.199219 353.339844 28.679688 353.503906 28.050781 353.507812 C 27.21875 353.503906 26.570312 353.210938 26.101562 352.617188 C 25.535156 351.902344 25.25 350.738281 25.253906 349.125 Z M 26.335938 349.125 C 26.335938 350.535156 26.5 351.472656 26.828125 351.941406 C 27.15625 352.410156 27.5625 352.644531 28.050781 352.640625 C 28.53125 352.644531 28.9375 352.410156 29.273438 351.9375 C 29.601562 351.472656 29.769531 350.535156 29.769531 349.125 C 29.769531 347.710938 29.601562 346.769531 29.273438 346.304688 C 28.9375 345.84375 28.527344 345.613281 28.042969 345.609375 C 27.554688 345.613281 27.167969 345.816406 26.878906 346.222656 C 26.515625 346.746094 26.335938 347.714844 26.335938 349.125 Z M 32.519531 353.359375 L 32.519531 352.15625 L 33.71875 352.15625 L 33.71875 353.359375 Z M 35.261719 349.125 C 35.257812 348.113281 35.363281 347.296875 35.574219 346.671875 C 35.78125 346.054688 36.089844 345.574219 36.503906 345.238281 C 36.910156 344.902344 37.429688 344.734375 38.058594 344.734375 C 38.519531 344.734375 38.925781 344.828125 39.273438 345.011719 C 39.617188 345.199219 39.902344 345.46875 40.132812 345.816406 C 40.355469 346.167969 40.535156 346.59375 40.667969 347.09375 C 40.796875 347.597656 40.859375 348.273438 40.863281 349.125 C 40.859375 350.132812 40.757812 350.945312 40.550781 351.5625 C 40.339844 352.183594 40.027344 352.664062 39.621094 353 C 39.207031 353.339844 38.6875 353.503906 38.058594 353.507812 C 37.226562 353.503906 36.578125 353.210938 36.109375 352.617188 C 35.542969 351.902344 35.257812 350.738281 35.261719 349.125 Z M 36.34375 349.125 C 36.34375 350.535156 36.507812 351.472656 36.835938 351.941406 C 37.164062 352.410156 37.570312 352.644531 38.058594 352.640625 C 38.539062 352.644531 38.945312 352.410156 39.28125 351.9375 C 39.609375 351.472656 39.777344 350.535156 39.777344 349.125 C 39.777344 347.710938 39.609375 346.769531 39.28125 346.304688 C 38.945312 345.84375 38.535156 345.613281 38.050781 345.609375 C 37.5625 345.613281 37.175781 345.816406 36.886719 346.222656 C 36.523438 346.746094 36.34375 347.714844 36.34375 349.125 Z M 41.9375 351.109375 L 43.042969 351.015625 C 43.121094 351.554688 43.308594 351.960938 43.613281 352.234375 C 43.910156 352.507812 44.273438 352.644531 44.695312 352.640625 C 45.203125 352.644531 45.632812 352.453125 45.984375 352.066406 C 46.335938 351.6875 46.511719 351.179688 46.511719 350.539062 C 46.511719 349.945312 46.339844 349.46875 46.003906 349.117188 C 45.664062 348.769531 45.222656 348.597656 44.679688 348.59375 C 44.335938 348.597656 44.03125 348.675781 43.757812 348.828125 C 43.484375 348.984375 43.269531 349.183594 43.113281 349.429688 L 42.125 349.296875 L 42.953125 344.886719 L 47.226562 344.886719 L 47.226562 345.894531 L 43.796875 345.894531 L 43.335938 348.203125 C 43.851562 347.84375 44.390625 347.664062 44.960938 347.664062 C 45.707031 347.664062 46.339844 347.925781 46.859375 348.445312 C 47.371094 348.964844 47.628906 349.632812 47.632812 350.445312 C 47.628906 351.226562 47.402344 351.898438 46.953125 352.460938 C 46.398438 353.160156 45.648438 353.503906 44.695312 353.507812 C 43.914062 353.503906 43.273438 353.289062 42.78125 352.851562 C 42.28125 352.417969 42 351.835938 41.9375 351.109375 Z M 24.753906 342.496094 "/>
<path fill-rule="nonzero" fill="rgb(40%, 40%, 40%)" fill-opacity="1" d="M 25.253906 243.390625 C 25.25 242.378906 25.355469 241.5625 25.566406 240.9375 C 25.773438 240.320312 26.082031 239.839844 26.496094 239.503906 C 26.902344 239.167969 27.421875 239 28.050781 239 C 28.511719 239 28.917969 239.09375 29.265625 239.277344 C 29.609375 239.464844 29.894531 239.734375 30.125 240.082031 C 30.347656 240.433594 30.527344 240.859375 30.660156 241.359375 C 30.789062 241.863281 30.851562 242.539062 30.855469 243.390625 C 30.851562 244.398438 30.75 245.210938 30.542969 245.828125 C 30.332031 246.449219 30.019531 246.929688 29.613281 247.265625 C 29.199219 247.605469 28.679688 247.769531 28.050781 247.773438 C 27.21875 247.769531 26.570312 247.476562 26.101562 246.882812 C 25.535156 246.167969 25.25 245.003906 25.253906 243.390625 Z M 26.335938 243.390625 C 26.335938 244.800781 26.5 245.738281 26.828125 246.207031 C 27.15625 246.675781 27.5625 246.910156 28.050781 246.90625 C 28.53125 246.910156 28.9375 246.675781 29.273438 246.203125 C 29.601562 245.738281 29.769531 244.800781 29.769531 243.390625 C 29.769531 241.976562 29.601562 241.035156 29.273438 240.570312 C 28.9375 240.109375 28.527344 239.878906 28.042969 239.875 C 27.554688 239.878906 27.167969 240.082031 26.878906 240.488281 C 26.515625 241.011719 26.335938 241.980469 26.335938 243.390625 Z M 32.519531 247.625 L 32.519531 246.421875 L 33.71875 246.421875 L 33.71875 247.625 Z M 39.230469 247.625 L 38.175781 247.625 L 38.175781 240.90625 C 37.921875 241.148438 37.589844 241.390625 37.175781 241.628906 C 36.761719 241.875 36.390625 242.054688 36.066406 242.175781 L 36.066406 241.15625 C 36.65625 240.882812 37.171875 240.546875 37.613281 240.148438 C 38.054688 239.753906 38.367188 239.371094 38.550781 239 L 39.230469 239 Z M 41.9375 243.390625 C 41.933594 242.378906 42.039062 241.5625 42.25 240.9375 C 42.457031 240.320312 42.765625 239.839844 43.179688 239.503906 C 43.585938 239.167969 44.105469 239 44.734375 239 C 45.195312 239 45.601562 239.09375 45.949219 239.277344 C 46.292969 239.464844 46.578125 239.734375 46.808594 240.082031 C 47.03125 240.433594 47.210938 240.859375 47.34375 241.359375 C 47.472656 241.863281 47.535156 242.539062 47.539062 243.390625 C 47.535156 244.398438 47.433594 245.210938 47.226562 245.828125 C 47.015625 246.449219 46.703125 246.929688 46.296875 247.265625 C 45.882812 247.605469 45.363281 247.769531 44.734375 247.773438 C 43.902344 247.769531 43.253906 247.476562 42.785156 246.882812 C 42.21875 246.167969 41.933594 245.003906 41.9375 243.390625 Z M 43.019531 243.390625 C 43.019531 244.800781 43.183594 245.738281 43.511719 246.207031 C 43.839844 246.675781 44.246094 246.910156 44.734375 246.90625 C 45.214844 246.910156 45.621094 246.675781 45.957031 246.203125 C 46.285156 245.738281 46.453125 244.800781 46.453125 243.390625 C 46.453125 241.976562 46.285156 241.035156 45.957031 240.570312 C 45.621094 240.109375 45.210938 239.878906 44.726562 239.875 C 44.238281 239.878906 43.851562 240.082031 43.5625 240.488281 C 43.199219 241.011719 43.019531 241.980469 43.019531 243.390625 Z M 24.753906 236.761719 "/>
<path fill-rule="nonzero" fill="rgb(40%, 40%, 40%)" fill-opacity="1" d="M 25.253906 137.660156 C 25.25 136.648438 25.355469 135.832031 25.566406 135.207031 C 25.773438 134.589844 26.082031 134.109375 26.496094 133.773438 C 26.902344 133.4375 27.421875 133.269531 28.050781 133.269531 C 28.511719 133.269531 28.917969 133.363281 29.265625 133.546875 C 29.609375 133.734375 29.894531 134.003906 30.125 134.351562 C 30.347656 134.703125 30.527344 135.128906 30.660156 135.628906 C 30.789062 136.132812 30.851562 136.808594 30.855469 137.660156 C 30.851562 138.667969 30.75 139.480469 30.542969 140.097656 C 30.332031 140.71875 30.019531 141.199219 29.613281 141.535156 C 29.199219 141.875 28.679688 142.039062 28.050781 142.042969 C 27.21875 142.039062 26.570312 141.746094 26.101562 141.152344 C 25.535156 140.4375 25.25 139.273438 25.253906 137.660156 Z M 26.335938 137.660156 C 26.335938 139.070312 26.5 140.007812 26.828125 140.476562 C 27.15625 140.945312 27.5625 141.179688 28.050781 141.175781 C 28.53125 141.179688 28.9375 140.945312 29.273438 140.472656 C 29.601562 140.007812 29.769531 139.070312 29.769531 137.660156 C 29.769531 136.246094 29.601562 135.304688 29.273438 134.839844 C 28.9375 134.378906 28.527344 134.148438 28.042969 134.144531 C 27.554688 134.148438 27.167969 134.351562 26.878906 134.757812 C 26.515625 135.28125 26.335938 136.25 26.335938 137.660156 Z M 32.519531 141.894531 L 32.519531 140.691406 L 33.71875 140.691406 L 33.71875 141.894531 Z M 40.800781 140.878906 L 40.800781 141.894531 L 35.125 141.894531 C 35.117188 141.640625 35.15625 141.398438 35.246094 141.160156 C 35.390625 140.777344 35.621094 140.394531 35.941406 140.019531 C 36.253906 139.644531 36.714844 139.210938 37.324219 138.71875 C 38.253906 137.953125 38.886719 137.347656 39.214844 136.902344 C 39.542969 136.457031 39.707031 136.035156 39.707031 135.628906 C 39.707031 135.214844 39.554688 134.863281 39.257812 134.574219 C 38.953125 134.292969 38.566406 134.148438 38.089844 134.144531 C 37.582031 134.148438 37.175781 134.300781 36.871094 134.601562 C 36.566406 134.910156 36.410156 135.332031 36.410156 135.863281 L 35.324219 135.753906 C 35.394531 134.949219 35.671875 134.335938 36.160156 133.90625 C 36.640625 133.484375 37.292969 133.269531 38.113281 133.269531 C 38.933594 133.269531 39.585938 133.5 40.070312 133.957031 C 40.550781 134.414062 40.789062 134.980469 40.792969 135.652344 C 40.789062 136 40.71875 136.335938 40.582031 136.667969 C 40.4375 137.003906 40.203125 137.355469 39.878906 137.71875 C 39.550781 138.089844 39.011719 138.59375 38.253906 139.230469 C 37.621094 139.765625 37.214844 140.125 37.035156 140.3125 C 36.855469 140.5 36.707031 140.691406 36.589844 140.878906 Z M 41.9375 137.660156 C 41.933594 136.648438 42.039062 135.832031 42.25 135.207031 C 42.457031 134.589844 42.765625 134.109375 43.179688 133.773438 C 43.585938 133.4375 44.105469 133.269531 44.734375 133.269531 C 45.195312 133.269531 45.601562 133.363281 45.949219 133.546875 C 46.292969 133.734375 46.578125 134.003906 46.808594 134.351562 C 47.03125 134.703125 47.210938 135.128906 47.34375 135.628906 C 47.472656 136.132812 47.535156 136.808594 47.539062 137.660156 C 47.535156 138.667969 47.433594 139.480469 47.226562 140.097656 C 47.015625 140.71875 46.703125 141.199219 46.296875 141.535156 C 45.882812 141.875 45.363281 142.039062 44.734375 142.042969 C 43.902344 142.039062 43.253906 141.746094 42.785156 141.152344 C 42.21875 140.4375 41.933594 139.273438 41.9375 137.660156 Z M 43.019531 137.660156 C 43.019531 139.070312 43.183594 140.007812 43.511719 140.476562 C 43.839844 140.945312 44.246094 141.179688 44.734375 141.175781 C 45.214844 141.179688 45.621094 140.945312 45.957031 140.472656 C 46.285156 140.007812 46.453125 139.070312 46.453125 137.660156 C 46.453125 136.246094 46.285156 135.304688 45.957031 134.839844 C 45.621094 134.378906 45.210938 134.148438 44.726562 134.144531 C 44.238281 134.148438 43.851562 134.351562 43.5625 134.757812 C 43.199219 135.28125 43.019531 136.25 43.019531 137.660156 Z M 24.753906 131.03125 "/>
<g clip-path="url(#clip-0)">
<path fill="none" stroke-width="3" stroke-linecap="butt" stroke-linejoin="miter" stroke="rgb(60%, 40%, 100%)" stroke-opacity="1" stroke-miterlimit="10" d="M 219.910156 168.9375 L 288.886719 208.210938 L 357.859375 256.1875 L 398.207031 277.503906 L 449.039062 309.179688 "/>
</g>
<path fill-rule="nonzero" fill="rgb(60%, 40%, 100%)" fill-opacity="1" stroke-width="1" stroke-linecap="butt" stroke-linejoin="miter" stroke="rgb(60%, 40%, 100%)" stroke-opacity="1" stroke-miterlimit="10" d="M 222.910156 168.9375 C 222.910156 172.9375 216.910156 172.9375 216.910156 168.9375 C 216.910156 164.9375 222.910156 164.9375 222.910156 168.9375 Z M 222.910156 168.9375 "/>
<path fill-rule="nonzero" fill="rgb(60%, 40%, 100%)" fill-opacity="1" stroke-width="1" stroke-linecap="butt" stroke-linejoin="miter" stroke="rgb(60%, 40%, 100%)" stroke-opacity="1" stroke-miterlimit="10" d="M 291.886719 208.210938 C 291.886719 212.210938 285.886719 212.210938 285.886719 208.210938 C 285.886719 204.210938 291.886719 204.210938 291.886719 208.210938 Z M 291.886719 208.210938 "/>
<path fill-rule="nonzero" fill="rgb(60%, 40%, 100%)" fill-opacity="1" stroke-width="1" stroke-linecap="butt" stroke-linejoin="miter" stroke="rgb(60%, 40%, 100%)" stroke-opacity="1" stroke-miterlimit="10" d="M 360.859375 256.1875 C 360.859375 260.1875 354.859375 260.1875 354.859375 256.1875 C 354.859375 252.1875 360.859375 252.1875 360.859375 256.1875 Z M 360.859375 256.1875 "/>
<path fill-rule="nonzero" fill="rgb(60%, 40%, 100%)" fill-opacity="1" stroke-width="1" stroke-linecap="butt" stroke-linejoin="miter" stroke="rgb(60%, 40%, 100%)" stroke-opacity="1" stroke-miterlimit="10" d="M 401.207031 277.503906 C 401.207031 281.503906 395.207031 281.503906 395.207031 277.503906 C 395.207031 273.503906 401.207031 273.503906 401.207031 277.503906 Z M 401.207031 277.503906 "/>
<path fill-rule="nonzero" fill="rgb(60%, 40%, 100%)" fill-opacity="1" stroke-width="1" stroke-linecap="butt" stroke-linejoin="miter" stroke="rgb(60%, 40%, 100%)" stroke-opacity="1" stroke-miterlimit="10" d="M 452.039062 309.179688 C 452.039062 313.179688 446.039062 313.179688 446.039062 309.179688 C 446.039062 305.179688 452.039062 305.179688 452.039062 309.179688 Z M 452.039062 309.179688 "/>
<path fill="none" stroke-width="3" stroke-linecap="butt" stroke-linejoin="miter" stroke="rgb(29.411765%, 75.294118%, 75.294118%)" stroke-opacity="1" stroke-miterlimit="10" d="M 219.910156 114.4375 L 288.886719 177.601562 L 357.859375 233.144531 L 398.207031 254.535156 L 449.039062 283.335938 "/>
<path fill-rule="nonzero" fill="rgb(29.411765%, 75.294118%, 75.294118%)" fill-opacity="1" stroke-width="1" stroke-linecap="butt" stroke-linejoin="miter" stroke="rgb(29.411765%, 75.294118%, 75.294118%)" stroke-opacity="1" stroke-miterlimit="10" d="M 222.910156 114.4375 C 222.910156 118.4375 216.910156 118.4375 216.910156 114.4375 C 216.910156 110.4375 222.910156 110.4375 222.910156 114.4375 Z M 222.910156 114.4375 "/>
<path fill-rule="nonzero" fill="rgb(29.411765%, 75.294118%, 75.294118%)" fill-opacity="1" stroke-width="1" stroke-linecap="butt" stroke-linejoin="miter" stroke="rgb(29.411765%, 75.294118%, 75.294118%)" stroke-opacity="1" stroke-miterlimit="10" d="M 291.886719 177.601562 C 291.886719 181.601562 285.886719 181.601562 285.886719 177.601562 C 285.886719 173.601562 291.886719 173.601562 291.886719 177.601562 Z M 291.886719 177.601562 "/>
<path fill-rule="nonzero" fill="rgb(29.411765%, 75.294118%, 75.294118%)" fill-opacity="1" stroke-width="1" stroke-linecap="butt" stroke-linejoin="miter" stroke="rgb(29.411765%, 75.294118%, 75.294118%)" stroke-opacity="1" stroke-miterlimit="10" d="M 360.859375 233.144531 C 360.859375 237.144531 354.859375 237.144531 354.859375 233.144531 C 354.859375 229.144531 360.859375 229.144531 360.859375 233.144531 Z M 360.859375 233.144531 "/>
<path fill-rule="nonzero" fill="rgb(29.411765%, 75.294118%, 75.294118%)" fill-opacity="1" stroke-width="1" stroke-linecap="butt" stroke-linejoin="miter" stroke="rgb(29.411765%, 75.294118%, 75.294118%)" stroke-opacity="1" stroke-miterlimit="10" d="M 401.207031 254.535156 C 401.207031 258.535156 395.207031 258.535156 395.207031 254.535156 C 395.207031 250.535156 401.207031 250.535156 401.207031 254.535156 Z M 401.207031 254.535156 "/>
<path fill-rule="nonzero" fill="rgb(29.411765%, 75.294118%, 75.294118%)" fill-opacity="1" stroke-width="1" stroke-linecap="butt" stroke-linejoin="miter" stroke="rgb(29.411765%, 75.294118%, 75.294118%)" stroke-opacity="1" stroke-miterlimit="10" d="M 452.039062 283.335938 C 452.039062 287.335938 446.039062 287.335938 446.039062 283.335938 C 446.039062 279.335938 452.039062 279.335938 452.039062 283.335938 Z M 452.039062 283.335938 "/>
<g clip-path="url(#clip-1)">
<path fill="none" stroke-width="3" stroke-linecap="butt" stroke-linejoin="miter" stroke="rgb(100%, 80.784314%, 33.72549%)" stroke-opacity="1" stroke-miterlimit="10" d="M 178.289062 57.148438 L 276.671875 163.515625 L 360.375 220.171875 L 461.582031 276.554688 "/>
</g>
<path fill-rule="nonzero" fill="rgb(100%, 80.784314%, 33.72549%)" fill-opacity="1" stroke-width="1" stroke-linecap="butt" stroke-linejoin="miter" stroke="rgb(100%, 80.784314%, 33.72549%)" stroke-opacity="1" stroke-miterlimit="10" d="M 181.289062 57.148438 C 181.289062 61.148438 175.289062 61.148438 175.289062 57.148438 C 175.289062 53.148438 181.289062 53.148438 181.289062 57.148438 Z M 181.289062 57.148438 "/>
<path fill-rule="nonzero" fill="rgb(100%, 80.784314%, 33.72549%)" fill-opacity="1" stroke-width="1" stroke-linecap="butt" stroke-linejoin="miter" stroke="rgb(100%, 80.784314%, 33.72549%)" stroke-opacity="1" stroke-miterlimit="10" d="M 279.671875 163.515625 C 279.671875 167.515625 273.671875 167.515625 273.671875 163.515625 C 273.671875 159.515625 279.671875 159.515625 279.671875 163.515625 Z M 279.671875 163.515625 "/>
<path fill-rule="nonzero" fill="rgb(100%, 80.784314%, 33.72549%)" fill-opacity="1" stroke-width="1" stroke-linecap="butt" stroke-linejoin="miter" stroke="rgb(100%, 80.784314%, 33.72549%)" stroke-opacity="1" stroke-miterlimit="10" d="M 363.375 220.171875 C 363.375 224.171875 357.375 224.171875 357.375 220.171875 C 357.375 216.171875 363.375 216.171875 363.375 220.171875 Z M 363.375 220.171875 "/>
<path fill-rule="nonzero" fill="rgb(100%, 80.784314%, 33.72549%)" fill-opacity="1" stroke-width="1" stroke-linecap="butt" stroke-linejoin="miter" stroke="rgb(100%, 80.784314%, 33.72549%)" stroke-opacity="1" stroke-miterlimit="10" d="M 464.582031 276.554688 C 464.582031 280.554688 458.582031 280.554688 458.582031 276.554688 C 458.582031 272.554688 464.582031 272.554688 464.582031 276.554688 Z M 464.582031 276.554688 "/>
<path fill="none" stroke-width="3" stroke-linecap="butt" stroke-linejoin="miter" stroke="rgb(21.176471%, 63.529412%, 92.156863%)" stroke-opacity="1" stroke-miterlimit="10" d="M 162.210938 79.277344 L 314.222656 162.523438 L 424.058594 221.882812 L 531.921875 277.503906 "/>
<path fill-rule="nonzero" fill="rgb(21.176471%, 63.529412%, 92.156863%)" fill-opacity="1" stroke-width="1" stroke-linecap="butt" stroke-linejoin="miter" stroke="rgb(21.176471%, 63.529412%, 92.156863%)" stroke-opacity="1" stroke-miterlimit="10" d="M 165.210938 79.277344 C 165.210938 83.277344 159.210938 83.277344 159.210938 79.277344 C 159.210938 75.277344 165.210938 75.277344 165.210938 79.277344 Z M 165.210938 79.277344 "/>
<path fill-rule="nonzero" fill="rgb(21.176471%, 63.529412%, 92.156863%)" fill-opacity="1" stroke-width="1" stroke-linecap="butt" stroke-linejoin="miter" stroke="rgb(21.176471%, 63.529412%, 92.156863%)" stroke-opacity="1" stroke-miterlimit="10" d="M 317.222656 162.523438 C 317.222656 166.523438 311.222656 166.523438 311.222656 162.523438 C 311.222656 158.523438 317.222656 158.523438 317.222656 162.523438 Z M 317.222656 162.523438 "/>
<path fill-rule="nonzero" fill="rgb(21.176471%, 63.529412%, 92.156863%)" fill-opacity="1" stroke-width="1" stroke-linecap="butt" stroke-linejoin="miter" stroke="rgb(21.176471%, 63.529412%, 92.156863%)" stroke-opacity="1" stroke-miterlimit="10" d="M 427.058594 221.882812 C 427.058594 225.882812 421.058594 225.882812 421.058594 221.882812 C 421.058594 217.882812 427.058594 217.882812 427.058594 221.882812 Z M 427.058594 221.882812 "/>
<path fill-rule="nonzero" fill="rgb(21.176471%, 63.529412%, 92.156863%)" fill-opacity="1" stroke-width="1" stroke-linecap="butt" stroke-linejoin="miter" stroke="rgb(21.176471%, 63.529412%, 92.156863%)" stroke-opacity="1" stroke-miterlimit="10" d="M 534.921875 277.503906 C 534.921875 281.503906 528.921875 281.503906 528.921875 277.503906 C 528.921875 273.503906 534.921875 273.503906 534.921875 277.503906 Z M 534.921875 277.503906 "/>
<g clip-path="url(#clip-2)">
<path fill="none" stroke-width="3" stroke-linecap="butt" stroke-linejoin="miter" stroke="rgb(100%, 38.823529%, 51.764706%)" stroke-opacity="1" stroke-miterlimit="10" d="M 249.183594 60.054688 L 364.59375 166.984375 L 452.175781 220.039062 L 557.5625 279.425781 "/>
</g>
<path fill-rule="nonzero" fill="rgb(100%, 38.823529%, 51.764706%)" fill-opacity="1" stroke-width="1" stroke-linecap="butt" stroke-linejoin="miter" stroke="rgb(100%, 38.823529%, 51.764706%)" stroke-opacity="1" stroke-miterlimit="10" d="M 252.183594 60.054688 C 252.183594 64.054688 246.183594 64.054688 246.183594 60.054688 C 246.183594 56.054688 252.183594 56.054688 252.183594 60.054688 Z M 252.183594 60.054688 "/>
<path fill-rule="nonzero" fill="rgb(100%, 38.823529%, 51.764706%)" fill-opacity="1" stroke-width="1" stroke-linecap="butt" stroke-linejoin="miter" stroke="rgb(100%, 38.823529%, 51.764706%)" stroke-opacity="1" stroke-miterlimit="10" d="M 367.59375 166.984375 C 367.59375 170.984375 361.59375 170.984375 361.59375 166.984375 C 361.59375 162.984375 367.59375 162.984375 367.59375 166.984375 Z M 367.59375 166.984375 "/>
<path fill-rule="nonzero" fill="rgb(100%, 38.823529%, 51.764706%)" fill-opacity="1" stroke-width="1" stroke-linecap="butt" stroke-linejoin="miter" stroke="rgb(100%, 38.823529%, 51.764706%)" stroke-opacity="1" stroke-miterlimit="10" d="M 455.175781 220.039062 C 455.175781 224.039062 449.175781 224.039062 449.175781 220.039062 C 449.175781 216.039062 455.175781 216.039062 455.175781 220.039062 Z M 455.175781 220.039062 "/>
<path fill-rule="nonzero" fill="rgb(100%, 38.823529%, 51.764706%)" fill-opacity="1" stroke-width="1" stroke-linecap="butt" stroke-linejoin="miter" stroke="rgb(100%, 38.823529%, 51.764706%)" stroke-opacity="1" stroke-miterlimit="10" d="M 560.5625 279.425781 C 560.5625 283.425781 554.5625 283.425781 554.5625 279.425781 C 554.5625 275.425781 560.5625 275.425781 560.5625 279.425781 Z M 560.5625 279.425781 "/>
</svg>
