<?xml version="1.0" encoding="UTF-8"?>
<svg xmlns="http://www.w3.org/2000/svg" xmlns:xlink="http://www.w3.org/1999/xlink" width="600" height="200" viewBox="0 0 600 200">
<defs>
<clipPath id="clip-0">
<path clip-rule="nonzero" d="M 109 94 L 150 94 L 150 171.601562 L 109 171.601562 Z M 109 94 "/>
</clipPath>
<clipPath id="clip-1">
<path clip-rule="nonzero" d="M 219 137 L 259 137 L 259 171.601562 L 219 171.601562 Z M 219 137 "/>
</clipPath>
<clipPath id="clip-2">
<path clip-rule="nonzero" d="M 328 81 L 369 81 L 369 171.601562 L 328 171.601562 Z M 328 81 "/>
</clipPath>
<clipPath id="clip-3">
<path clip-rule="nonzero" d="M 438 118 L 478 118 L 478 171.601562 L 438 171.601562 Z M 438 118 "/>
</clipPath>
<clipPath id="clip-4">
<path clip-rule="nonzero" d="M 547 78 L 587 78 L 587 171.601562 L 547 171.601562 Z M 547 78 "/>
</clipPath>
<clipPath id="clip-5">
<path clip-rule="nonzero" d="M 66 44 L 106 44 L 106 171.601562 L 66 171.601562 Z M 66 44 "/>
</clipPath>
<clipPath id="clip-6">
<path clip-rule="nonzero" d="M 175 59 L 215 59 L 215 171.601562 L 175 171.601562 Z M 175 59 "/>
</clipPath>
<clipPath id="clip-7">
<path clip-rule="nonzero" d="M 284 66 L 325 66 L 325 171.601562 L 284 171.601562 Z M 284 66 "/>
</clipPath>
<clipPath id="clip-8">
<path clip-rule="nonzero" d="M 394 66 L 434 66 L 434 171.601562 L 394 171.601562 Z M 394 66 "/>
</clipPath>
<clipPath id="clip-9">
<path clip-rule="nonzero" d="M 503 41 L 544 41 L 544 171.601562 L 503 171.601562 Z M 503 41 "/>
</clipPath>
</defs>
<path fill="none" stroke-width="1" stroke-linecap="butt" stroke-linejoin="miter" stroke="rgb(0%, 0%, 0%)" stroke-opacity="0.0980392" stroke-miterlimit="10" d="M 53.5 32 L 53.5 171 "/>
<path fill="none" stroke-width="1" stroke-linecap="butt" stroke-linejoin="miter" stroke="rgb(0%, 0%, 0%)" stroke-opacity="0.0980392" stroke-miterlimit="10" d="M 53.5 172 L 53.5 179.601562 "/>
<path fill="none" stroke-width="1" stroke-linecap="butt" stroke-linejoin="miter" stroke="rgb(0%, 0%, 0%)" stroke-opacity="0.0980392" stroke-miterlimit="10" d="M 162.5 32 L 162.5 171 "/>
<path fill="none" stroke-width="1" stroke-linecap="butt" stroke-linejoin="miter" stroke="rgb(0%, 0%, 0%)" stroke-opacity="0.0980392" stroke-miterlimit="10" d="M 162.5 172 L 162.5 179.601562 "/>
<path fill="none" stroke-width="1" stroke-linecap="butt" stroke-linejoin="miter" stroke="rgb(0%, 0%, 0%)" stroke-opacity="0.0980392" stroke-miterlimit="10" d="M 271.5 32 L 271.5 171 "/>
<path fill="none" stroke-width="1" stroke-linecap="butt" stroke-linejoin="miter" stroke="rgb(0%, 0%, 0%)" stroke-opacity="0.0980392" stroke-miterlimit="10" d="M 271.5 172 L 271.5 179.601562 "/>
<path fill="none" stroke-width="1" stroke-linecap="butt" stroke-linejoin="miter" stroke="rgb(0%, 0%, 0%)" stroke-opacity="0.0980392" stroke-miterlimit="10" d="M 381.5 32 L 381.5 171 "/>
<path fill="none" stroke-width="1" stroke-linecap="butt" stroke-linejoin="miter" stroke="rgb(0%, 0%, 0%)" stroke-opacity="0.0980392" stroke-miterlimit="10" d="M 381.5 172 L 381.5 179.601562 "/>
<path fill="none" stroke-width="1" stroke-linecap="butt" stroke-linejoin="miter" stroke="rgb(0%, 0%, 0%)" stroke-opacity="0.0980392" stroke-miterlimit="10" d="M 490.5 32 L 490.5 171 "/>
<path fill="none" stroke-width="1" stroke-linecap="butt" stroke-linejoin="miter" stroke="rgb(0%, 0%, 0%)" stroke-opacity="0.0980392" stroke-miterlimit="10" d="M 490.5 172 L 490.5 179.601562 "/>
<path fill="none" stroke-width="1" stroke-linecap="butt" stroke-linejoin="miter" stroke="rgb(0%, 0%, 0%)" stroke-opacity="0.0980392" stroke-miterlimit="10" d="M 54 171.5 L 600 171.5 "/>
<path fill="none" stroke-width="1" stroke-linecap="butt" stroke-linejoin="miter" stroke="rgb(0%, 0%, 0%)" stroke-opacity="0.0980392" stroke-miterlimit="10" d="M 45.082031 171.5 L 53 171.5 "/>
<path fill="none" stroke-width="1" stroke-linecap="butt" stroke-linejoin="miter" stroke="rgb(0%, 0%, 0%)" stroke-opacity="0.0980392" stroke-miterlimit="10" d="M 54 140.5 L 600 140.5 "/>
<path fill="none" stroke-width="1" stroke-linecap="butt" stroke-linejoin="miter" stroke="rgb(0%, 0%, 0%)" stroke-opacity="0.0980392" stroke-miterlimit="10" d="M 45.082031 140.5 L 53 140.5 "/>
<path fill="none" stroke-width="1" stroke-linecap="butt" stroke-linejoin="miter" stroke="rgb(0%, 0%, 0%)" stroke-opacity="0.0980392" stroke-miterlimit="10" d="M 54 109.5 L 600 109.5 "/>
<path fill="none" stroke-width="1" stroke-linecap="butt" stroke-linejoin="miter" stroke="rgb(0%, 0%, 0%)" stroke-opacity="0.0980392" stroke-miterlimit="10" d="M 45.082031 109.5 L 53 109.5 "/>
<path fill="none" stroke-width="1" stroke-linecap="butt" stroke-linejoin="miter" stroke="rgb(0%, 0%, 0%)" stroke-opacity="0.0980392" stroke-miterlimit="10" d="M 54 78.5 L 600 78.5 "/>
<path fill="none" stroke-width="1" stroke-linecap="butt" stroke-linejoin="miter" stroke="rgb(0%, 0%, 0%)" stroke-opacity="0.0980392" stroke-miterlimit="10" d="M 45.082031 78.5 L 53 78.5 "/>
<path fill="none" stroke-width="1" stroke-linecap="butt" stroke-linejoin="miter" stroke="rgb(0%, 0%, 0%)" stroke-opacity="0.0980392" stroke-miterlimit="10" d="M 54 47.5 L 600 47.5 "/>
<path fill="none" stroke-width="1" stroke-linecap="butt" stroke-linejoin="miter" stroke="rgb(0%, 0%, 0%)" stroke-opacity="0.0980392" stroke-miterlimit="10" d="M 45.082031 47.5 L 53 47.5 "/>
<path fill-rule="nonzero" fill="rgb(40%, 40%, 40%)" fill-opacity="1" d="M 12.601562 117.261719 L 12.507812 116.1875 C 12.9375 116.140625 13.289062 116.023438 13.5625 115.835938 C 13.839844 115.65625 14.0625 115.367188 14.234375 114.972656 C 14.40625 114.585938 14.492188 114.144531 14.488281 113.652344 C 14.492188 113.222656 14.429688 112.839844 14.296875 112.503906 C 14.171875 112.171875 13.992188 111.925781 13.765625 111.761719 C 13.539062 111.601562 13.292969 111.519531 13.027344 111.519531 C 12.761719 111.519531 12.527344 111.597656 12.324219 111.753906 C 12.121094 111.910156 11.953125 112.167969 11.816406 112.527344 C 11.726562 112.757812 11.585938 113.269531 11.394531 114.054688 C 11.207031 114.847656 11.027344 115.398438 10.859375 115.714844 C 10.648438 116.125 10.382812 116.433594 10.0625 116.632812 C 9.742188 116.835938 9.386719 116.933594 8.992188 116.933594 C 8.558594 116.933594 8.152344 116.8125 7.777344 116.566406 C 7.402344 116.320312 7.117188 115.960938 6.917969 115.488281 C 6.726562 115.015625 6.628906 114.488281 6.625 113.910156 C 6.628906 113.273438 6.730469 112.714844 6.933594 112.226562 C 7.136719 111.742188 7.4375 111.367188 7.835938 111.105469 C 8.234375 110.84375 8.6875 110.703125 9.1875 110.683594 L 9.273438 111.769531 C 8.730469 111.832031 8.320312 112.03125 8.042969 112.367188 C 7.765625 112.707031 7.625 113.203125 7.625 113.863281 C 7.625 114.550781 7.753906 115.054688 8.003906 115.367188 C 8.261719 115.683594 8.5625 115.839844 8.914062 115.835938 C 9.222656 115.839844 9.476562 115.726562 9.675781 115.503906 C 9.878906 115.285156 10.085938 114.714844 10.289062 113.789062 C 10.5 112.867188 10.679688 112.234375 10.835938 111.886719 C 11.066406 111.390625 11.359375 111.019531 11.710938 110.78125 C 12.066406 110.546875 12.472656 110.429688 12.933594 110.425781 C 13.394531 110.429688 13.828125 110.558594 14.226562 110.816406 C 14.632812 111.078125 14.945312 111.457031 15.171875 111.945312 C 15.394531 112.4375 15.503906 112.988281 15.507812 113.597656 C 15.503906 114.378906 15.394531 115.03125 15.167969 115.554688 C 14.945312 116.082031 14.605469 116.492188 14.144531 116.789062 C 13.691406 117.089844 13.175781 117.246094 12.601562 117.261719 Z M 13.082031 104.945312 L 13.214844 103.90625 C 13.933594 104.023438 14.496094 104.3125 14.894531 104.777344 C 15.300781 105.246094 15.5 105.820312 15.5 106.5 C 15.5 107.351562 15.222656 108.035156 14.664062 108.550781 C 14.109375 109.070312 13.3125 109.328125 12.273438 109.328125 C 11.605469 109.328125 11.015625 109.21875 10.507812 108.996094 C 10.003906 108.773438 9.628906 108.433594 9.375 107.976562 C 9.125 107.523438 8.996094 107.027344 8.996094 106.492188 C 8.996094 105.816406 9.167969 105.265625 9.511719 104.832031 C 9.855469 104.40625 10.339844 104.128906 10.964844 104.007812 L 11.125 105.03125 C 10.707031 105.132812 10.390625 105.304688 10.179688 105.550781 C 9.96875 105.800781 9.863281 106.101562 9.863281 106.449219 C 9.863281 106.984375 10.054688 107.414062 10.4375 107.746094 C 10.820312 108.078125 11.421875 108.246094 12.242188 108.242188 C 13.078125 108.246094 13.6875 108.085938 14.066406 107.761719 C 14.445312 107.445312 14.632812 107.027344 14.632812 106.507812 C 14.632812 106.101562 14.507812 105.753906 14.253906 105.472656 C 14 105.195312 13.609375 105.019531 13.082031 104.945312 Z M 12.25 103.398438 C 11.097656 103.398438 10.242188 103.078125 9.6875 102.4375 C 9.226562 101.902344 8.996094 101.25 8.996094 100.480469 C 8.996094 99.625 9.277344 98.925781 9.839844 98.382812 C 10.402344 97.84375 11.175781 97.574219 12.160156 97.570312 C 12.964844 97.574219 13.597656 97.695312 14.050781 97.929688 C 14.511719 98.171875 14.867188 98.519531 15.121094 98.976562 C 15.375 99.4375 15.5 99.9375 15.5 100.480469 C 15.5 101.355469 15.222656 102.0625 14.664062 102.59375 C 14.105469 103.132812 13.300781 103.398438 12.25 103.398438 Z M 12.25 102.3125 C 13.050781 102.316406 13.648438 102.140625 14.039062 101.792969 C 14.4375 101.449219 14.632812 101.011719 14.632812 100.480469 C 14.632812 99.957031 14.433594 99.523438 14.035156 99.175781 C 13.636719 98.828125 13.03125 98.652344 12.214844 98.652344 C 11.445312 98.652344 10.863281 98.828125 10.464844 99.179688 C 10.070312 99.53125 9.871094 99.964844 9.867188 100.480469 C 9.871094 101.007812 10.066406 101.445312 10.460938 101.792969 C 10.859375 102.140625 11.457031 102.316406 12.25 102.3125 Z M 15.359375 96.34375 L 9.136719 96.34375 L 9.136719 95.394531 L 10.078125 95.394531 C 9.640625 95.15625 9.347656 94.933594 9.207031 94.726562 C 9.066406 94.523438 8.996094 94.296875 8.996094 94.046875 C 8.996094 93.695312 9.109375 93.332031 9.335938 92.964844 L 10.3125 93.328125 C 10.164062 93.585938 10.085938 93.84375 10.085938 94.101562 C 10.085938 94.332031 10.15625 94.539062 10.292969 94.722656 C 10.433594 94.90625 10.625 95.039062 10.871094 95.113281 C 11.246094 95.234375 11.65625 95.292969 12.101562 95.289062 L 15.359375 95.289062 Z M 13.355469 88.074219 L 13.492188 86.984375 C 14.128906 87.15625 14.621094 87.476562 14.972656 87.941406 C 15.324219 88.40625 15.5 89 15.5 89.71875 C 15.5 90.632812 15.222656 91.355469 14.660156 91.886719 C 14.105469 92.421875 13.316406 92.6875 12.300781 92.683594 C 11.253906 92.6875 10.441406 92.417969 9.863281 91.875 C 9.285156 91.339844 8.996094 90.640625 8.996094 89.777344 C 8.996094 88.949219 9.28125 88.269531 9.847656 87.742188 C 10.414062 87.214844 11.210938 86.949219 12.238281 86.949219 C 12.304688 86.949219 12.398438 86.953125 12.519531 86.953125 L 12.515625 91.59375 C 13.203125 91.558594 13.726562 91.363281 14.089844 91.015625 C 14.453125 90.667969 14.632812 90.234375 14.632812 89.714844 C 14.632812 89.328125 14.53125 89 14.328125 88.722656 C 14.125 88.453125 13.800781 88.234375 13.355469 88.074219 Z M 11.648438 91.535156 L 11.652344 88.0625 C 11.132812 88.109375 10.738281 88.242188 10.472656 88.460938 C 10.066406 88.796875 9.863281 89.234375 9.863281 89.765625 C 9.863281 90.253906 10.027344 90.660156 10.351562 90.988281 C 10.675781 91.320312 11.109375 91.503906 11.648438 91.535156 Z M 4.496094 117.800781 "/>
<path fill-rule="nonzero" fill="rgb(100%, 38.823529%, 51.764706%)" fill-opacity="1" d="M 189.3125 10 L 229.3125 10 L 229.3125 22 L 189.3125 22 Z M 189.3125 10 "/>
<path fill-rule="nonzero" fill="rgb(40%, 40%, 40%)" fill-opacity="1" d="M 240.164062 17.878906 L 241.203125 18.015625 C 241.085938 18.734375 240.796875 19.296875 240.332031 19.695312 C 239.863281 20.101562 239.289062 20.300781 238.609375 20.300781 C 237.757812 20.300781 237.074219 20.023438 236.558594 19.464844 C 236.039062 18.910156 235.78125 18.113281 235.78125 17.074219 C 235.78125 16.40625 235.890625 15.816406 236.113281 15.308594 C 236.335938 14.804688 236.675781 14.429688 237.128906 14.175781 C 237.582031 13.925781 238.078125 13.796875 238.617188 13.796875 C 239.292969 13.796875 239.84375 13.96875 240.277344 14.3125 C 240.703125 14.65625 240.980469 15.140625 241.101562 15.765625 L 240.078125 15.925781 C 239.976562 15.507812 239.804688 15.191406 239.558594 14.980469 C 239.308594 14.769531 239.007812 14.664062 238.65625 14.664062 C 238.121094 14.664062 237.691406 14.855469 237.363281 15.238281 C 237.03125 15.621094 236.863281 16.222656 236.867188 17.042969 C 236.863281 17.878906 237.023438 18.488281 237.347656 18.867188 C 237.664062 19.246094 238.082031 19.433594 238.601562 19.433594 C 239.007812 19.433594 239.355469 19.308594 239.636719 19.054688 C 239.914062 18.800781 240.089844 18.410156 240.164062 17.878906 Z M 241.710938 17.050781 C 241.710938 15.898438 242.03125 15.042969 242.671875 14.488281 C 243.207031 14.027344 243.859375 13.796875 244.628906 13.796875 C 245.484375 13.796875 246.183594 14.078125 246.726562 14.640625 C 247.265625 15.203125 247.535156 15.976562 247.539062 16.960938 C 247.535156 17.761719 247.414062 18.394531 247.179688 18.851562 C 246.9375 19.3125 246.589844 19.667969 246.132812 19.921875 C 245.671875 20.175781 245.171875 20.300781 244.628906 20.300781 C 243.753906 20.300781 243.046875 20.023438 242.515625 19.464844 C 241.976562 18.90625 241.710938 18.101562 241.710938 17.050781 Z M 242.796875 17.050781 C 242.792969 17.851562 242.96875 18.449219 243.316406 18.839844 C 243.660156 19.238281 244.097656 19.433594 244.628906 19.433594 C 245.152344 19.433594 245.585938 19.234375 245.933594 18.835938 C 246.28125 18.4375 246.457031 17.832031 246.457031 17.011719 C 246.457031 16.246094 246.28125 15.664062 245.929688 15.265625 C 245.578125 14.871094 245.144531 14.671875 244.628906 14.667969 C 244.097656 14.671875 243.660156 14.867188 243.316406 15.261719 C 242.96875 15.660156 242.792969 16.257812 242.796875 17.050781 Z M 248.773438 20.160156 L 248.773438 13.9375 L 249.726562 13.9375 L 249.726562 14.824219 C 250.179688 14.140625 250.839844 13.796875 251.703125 13.796875 C 252.074219 13.796875 252.417969 13.867188 252.738281 14 C 253.050781 14.136719 253.289062 14.3125 253.445312 14.527344 C 253.601562 14.75 253.710938 15.007812 253.773438 15.308594 C 253.8125 15.503906 253.832031 15.847656 253.832031 16.332031 L 253.832031 20.160156 L 252.777344 20.160156 L 252.777344 16.375 C 252.777344 15.945312 252.734375 15.625 252.652344 15.410156 C 252.570312 15.199219 252.425781 15.03125 252.21875 14.902344 C 252.007812 14.777344 251.761719 14.710938 251.484375 14.710938 C 251.03125 14.710938 250.644531 14.855469 250.316406 15.140625 C 249.988281 15.425781 249.824219 15.964844 249.828125 16.761719 L 249.828125 20.160156 Z M 255.027344 18.300781 L 256.074219 18.136719 C 256.128906 18.558594 256.292969 18.878906 256.5625 19.101562 C 256.828125 19.324219 257.203125 19.433594 257.683594 19.433594 C 258.167969 19.433594 258.527344 19.335938 258.761719 19.136719 C 258.996094 18.941406 259.113281 18.710938 259.113281 18.441406 C 259.113281 18.207031 259.007812 18.019531 258.800781 17.878906 C 258.65625 17.789062 258.296875 17.667969 257.722656 17.523438 C 256.949219 17.328125 256.414062 17.160156 256.117188 17.015625 C 255.816406 16.875 255.589844 16.679688 255.4375 16.425781 C 255.28125 16.175781 255.203125 15.894531 255.207031 15.589844 C 255.203125 15.316406 255.265625 15.0625 255.394531 14.820312 C 255.519531 14.585938 255.695312 14.386719 255.914062 14.230469 C 256.078125 14.113281 256.300781 14.011719 256.585938 13.925781 C 256.867188 13.839844 257.171875 13.796875 257.496094 13.796875 C 257.984375 13.796875 258.410156 13.867188 258.78125 14.007812 C 259.148438 14.148438 259.421875 14.339844 259.597656 14.582031 C 259.773438 14.824219 259.894531 15.144531 259.964844 15.542969 L 258.933594 15.683594 C 258.882812 15.363281 258.746094 15.113281 258.523438 14.933594 C 258.296875 14.753906 257.980469 14.664062 257.574219 14.664062 C 257.085938 14.664062 256.742188 14.746094 256.535156 14.90625 C 256.324219 15.066406 256.21875 15.253906 256.222656 15.464844 C 256.21875 15.605469 256.261719 15.726562 256.355469 15.835938 C 256.433594 15.949219 256.570312 16.042969 256.757812 16.117188 C 256.863281 16.15625 257.171875 16.246094 257.691406 16.386719 C 258.433594 16.585938 258.953125 16.75 259.25 16.875 C 259.539062 17.003906 259.773438 17.1875 259.945312 17.429688 C 260.113281 17.671875 260.195312 17.972656 260.199219 18.332031 C 260.195312 18.683594 260.09375 19.015625 259.890625 19.328125 C 259.683594 19.640625 259.386719 19.882812 259 20.046875 C 258.613281 20.21875 258.175781 20.300781 257.691406 20.300781 C 256.878906 20.300781 256.261719 20.132812 255.839844 19.796875 C 255.414062 19.460938 255.144531 18.964844 255.027344 18.300781 Z M 261.457031 12.785156 L 261.457031 11.570312 L 262.511719 11.570312 L 262.511719 12.785156 Z M 261.457031 20.160156 L 261.457031 13.9375 L 262.511719 13.9375 L 262.511719 20.160156 Z M 263.695312 18.300781 L 264.742188 18.136719 C 264.796875 18.558594 264.960938 18.878906 265.230469 19.101562 C 265.496094 19.324219 265.871094 19.433594 266.351562 19.433594 C 266.835938 19.433594 267.195312 19.335938 267.429688 19.136719 C 267.664062 18.941406 267.78125 18.710938 267.78125 18.441406 C 267.78125 18.207031 267.675781 18.019531 267.46875 17.878906 C 267.324219 17.789062 266.964844 17.667969 266.390625 17.523438 C 265.617188 17.328125 265.082031 17.160156 264.785156 17.015625 C 264.484375 16.875 264.257812 16.679688 264.105469 16.425781 C 263.949219 16.175781 263.871094 15.894531 263.875 15.589844 C 263.871094 15.316406 263.933594 15.0625 264.0625 14.820312 C 264.1875 14.585938 264.363281 14.386719 264.582031 14.230469 C 264.746094 14.113281 264.96875 14.011719 265.253906 13.925781 C 265.535156 13.839844 265.839844 13.796875 266.164062 13.796875 C 266.652344 13.796875 267.078125 13.867188 267.449219 14.007812 C 267.816406 14.148438 268.089844 14.339844 268.265625 14.582031 C 268.441406 14.824219 268.5625 15.144531 268.632812 15.542969 L 267.601562 15.683594 C 267.550781 15.363281 267.414062 15.113281 267.191406 14.933594 C 266.964844 14.753906 266.648438 14.664062 266.242188 14.664062 C 265.753906 14.664062 265.410156 14.746094 265.203125 14.90625 C 264.992188 15.066406 264.886719 15.253906 264.890625 15.464844 C 264.886719 15.605469 264.929688 15.726562 265.023438 15.835938 C 265.101562 15.949219 265.238281 16.042969 265.425781 16.117188 C 265.53125 16.15625 265.839844 16.246094 266.359375 16.386719 C 267.101562 16.585938 267.621094 16.75 267.917969 16.875 C 268.207031 17.003906 268.441406 17.1875 268.613281 17.429688 C 268.78125 17.671875 268.863281 17.972656 268.867188 18.332031 C 268.863281 18.683594 268.761719 19.015625 268.558594 19.328125 C 268.351562 19.640625 268.054688 19.882812 267.667969 20.046875 C 267.28125 20.21875 266.84375 20.300781 266.359375 20.300781 C 265.546875 20.300781 264.929688 20.132812 264.507812 19.796875 C 264.082031 19.460938 263.8125 18.964844 263.695312 18.300781 Z M 272.421875 19.214844 L 272.574219 20.148438 C 272.277344 20.210938 272.011719 20.242188 271.777344 20.242188 C 271.394531 20.242188 271.097656 20.183594 270.886719 20.0625 C 270.675781 19.941406 270.527344 19.78125 270.441406 19.582031 C 270.355469 19.386719 270.3125 18.972656 270.3125 18.339844 L 270.3125 14.757812 L 269.539062 14.757812 L 269.539062 13.9375 L 270.3125 13.9375 L 270.3125 12.394531 L 271.359375 11.761719 L 271.359375 13.9375 L 272.421875 13.9375 L 272.421875 14.757812 L 271.359375 14.757812 L 271.359375 18.394531 C 271.355469 18.699219 271.375 18.890625 271.414062 18.976562 C 271.453125 19.0625 271.511719 19.132812 271.597656 19.183594 C 271.679688 19.234375 271.800781 19.257812 271.960938 19.257812 C 272.070312 19.257812 272.226562 19.246094 272.421875 19.214844 Z M 277.710938 18.15625 L 278.800781 18.292969 C 278.628906 18.929688 278.308594 19.421875 277.84375 19.773438 C 277.378906 20.125 276.785156 20.300781 276.066406 20.300781 C 275.152344 20.300781 274.429688 20.023438 273.898438 19.460938 C 273.359375 18.90625 273.09375 18.117188 273.097656 17.101562 C 273.09375 16.054688 273.363281 15.242188 273.90625 14.664062 C 274.441406 14.085938 275.140625 13.796875 276.003906 13.796875 C 276.835938 13.796875 277.515625 14.082031 278.042969 14.648438 C 278.570312 15.214844 278.835938 16.011719 278.835938 17.035156 C 278.835938 17.101562 278.832031 17.195312 278.832031 17.316406 L 274.191406 17.316406 C 274.222656 18.003906 274.417969 18.527344 274.769531 18.890625 C 275.117188 19.253906 275.550781 19.433594 276.070312 19.433594 C 276.457031 19.433594 276.785156 19.332031 277.0625 19.128906 C 277.332031 18.925781 277.550781 18.601562 277.710938 18.15625 Z M 274.246094 16.449219 L 277.722656 16.449219 C 277.675781 15.933594 277.542969 15.539062 277.324219 15.273438 C 276.988281 14.867188 276.550781 14.664062 276.019531 14.664062 C 275.53125 14.664062 275.125 14.828125 274.796875 15.152344 C 274.464844 15.476562 274.28125 15.910156 274.246094 16.449219 Z M 280.125 20.160156 L 280.125 13.9375 L 281.078125 13.9375 L 281.078125 14.824219 C 281.53125 14.140625 282.191406 13.796875 283.054688 13.796875 C 283.425781 13.796875 283.769531 13.867188 284.089844 14 C 284.402344 14.136719 284.640625 14.3125 284.796875 14.527344 C 284.953125 14.75 285.0625 15.007812 285.125 15.308594 C 285.164062 15.503906 285.183594 15.847656 285.183594 16.332031 L 285.183594 20.160156 L 284.128906 20.160156 L 284.128906 16.375 C 284.128906 15.945312 284.085938 15.625 284.003906 15.410156 C 283.921875 15.199219 283.777344 15.03125 283.570312 14.902344 C 283.359375 14.777344 283.113281 14.710938 282.835938 14.710938 C 282.382812 14.710938 281.996094 14.855469 281.667969 15.140625 C 281.339844 15.425781 281.175781 15.964844 281.179688 16.761719 L 281.179688 20.160156 Z M 290.859375 17.878906 L 291.898438 18.015625 C 291.78125 18.734375 291.492188 19.296875 291.027344 19.695312 C 290.558594 20.101562 289.984375 20.300781 289.304688 20.300781 C 288.453125 20.300781 287.769531 20.023438 287.253906 19.464844 C 286.734375 18.910156 286.476562 18.113281 286.476562 17.074219 C 286.476562 16.40625 286.585938 15.816406 286.808594 15.308594 C 287.03125 14.804688 287.371094 14.429688 287.824219 14.175781 C 288.277344 13.925781 288.773438 13.796875 289.3125 13.796875 C 289.988281 13.796875 290.539062 13.96875 290.972656 14.3125 C 291.398438 14.65625 291.675781 15.140625 291.796875 15.765625 L 290.773438 15.925781 C 290.671875 15.507812 290.5 15.191406 290.253906 14.980469 C 290.003906 14.769531 289.703125 14.664062 289.351562 14.664062 C 288.816406 14.664062 288.386719 14.855469 288.058594 15.238281 C 287.726562 15.621094 287.558594 16.222656 287.5625 17.042969 C 287.558594 17.878906 287.71875 18.488281 288.042969 18.867188 C 288.359375 19.246094 288.777344 19.433594 289.296875 19.433594 C 289.703125 19.433594 290.050781 19.308594 290.332031 19.054688 C 290.609375 18.800781 290.785156 18.410156 290.859375 17.878906 Z M 292.75 22.558594 L 292.632812 21.566406 C 292.863281 21.628906 293.066406 21.660156 293.238281 21.660156 C 293.472656 21.660156 293.660156 21.621094 293.800781 21.542969 C 293.941406 21.464844 294.054688 21.355469 294.148438 21.214844 C 294.210938 21.109375 294.320312 20.847656 294.46875 20.429688 C 294.488281 20.367188 294.519531 20.28125 294.5625 20.171875 L 292.203125 13.9375 L 293.335938 13.9375 L 294.632812 17.542969 C 294.796875 18 294.945312 18.480469 295.085938 18.980469 C 295.203125 18.5 295.347656 18.027344 295.515625 17.566406 L 296.847656 13.9375 L 297.902344 13.9375 L 295.535156 20.265625 C 295.28125 20.949219 295.082031 21.417969 294.945312 21.675781 C 294.753906 22.023438 294.539062 22.277344 294.300781 22.441406 C 294.054688 22.597656 293.765625 22.679688 293.429688 22.683594 C 293.222656 22.679688 292.996094 22.636719 292.75 22.558594 Z M 235.3125 9.296875 "/>
<path fill-rule="nonzero" fill="rgb(21.176471%, 63.529412%, 92.156863%)" fill-opacity="1" d="M 308.007812 10 L 348.007812 10 L 348.007812 22 L 308.007812 22 Z M 308.007812 10 "/>
<path fill-rule="nonzero" fill="rgb(40%, 40%, 40%)" fill-opacity="1" d="M 358.859375 17.878906 L 359.898438 18.015625 C 359.78125 18.734375 359.492188 19.296875 359.027344 19.695312 C 358.558594 20.101562 357.984375 20.300781 357.304688 20.300781 C 356.453125 20.300781 355.769531 20.023438 355.253906 19.464844 C 354.734375 18.910156 354.476562 18.113281 354.476562 17.074219 C 354.476562 16.40625 354.585938 15.816406 354.808594 15.308594 C 355.03125 14.804688 355.371094 14.429688 355.824219 14.175781 C 356.277344 13.925781 356.773438 13.796875 357.3125 13.796875 C 357.988281 13.796875 358.539062 13.96875 358.972656 14.3125 C 359.398438 14.65625 359.675781 15.140625 359.796875 15.765625 L 358.773438 15.925781 C 358.671875 15.507812 358.5 15.191406 358.253906 14.980469 C 358.003906 14.769531 357.703125 14.664062 357.351562 14.664062 C 356.816406 14.664062 356.386719 14.855469 356.058594 15.238281 C 355.726562 15.621094 355.558594 16.222656 355.5625 17.042969 C 355.558594 17.878906 355.71875 18.488281 356.042969 18.867188 C 356.359375 19.246094 356.777344 19.433594 357.296875 19.433594 C 357.703125 19.433594 358.050781 19.308594 358.332031 19.054688 C 358.609375 18.800781 358.785156 18.410156 358.859375 17.878906 Z M 360.40625 17.050781 C 360.40625 15.898438 360.726562 15.042969 361.367188 14.488281 C 361.902344 14.027344 362.554688 13.796875 363.324219 13.796875 C 364.179688 13.796875 364.878906 14.078125 365.421875 14.640625 C 365.960938 15.203125 366.230469 15.976562 366.234375 16.960938 C 366.230469 17.761719 366.109375 18.394531 365.875 18.851562 C 365.632812 19.3125 365.285156 19.667969 364.828125 19.921875 C 364.367188 20.175781 363.867188 20.300781 363.324219 20.300781 C 362.449219 20.300781 361.742188 20.023438 361.210938 19.464844 C 360.671875 18.90625 360.40625 18.101562 360.40625 17.050781 Z M 361.492188 17.050781 C 361.488281 17.851562 361.664062 18.449219 362.011719 18.839844 C 362.355469 19.238281 362.792969 19.433594 363.324219 19.433594 C 363.847656 19.433594 364.28125 19.234375 364.628906 18.835938 C 364.976562 18.4375 365.152344 17.832031 365.152344 17.011719 C 365.152344 16.246094 364.976562 15.664062 364.625 15.265625 C 364.273438 14.871094 363.839844 14.671875 363.324219 14.667969 C 362.792969 14.671875 362.355469 14.867188 362.011719 15.261719 C 361.664062 15.660156 361.488281 16.257812 361.492188 17.050781 Z M 367.46875 20.160156 L 367.46875 13.9375 L 368.414062 13.9375 L 368.414062 14.808594 C 368.609375 14.511719 368.867188 14.265625 369.191406 14.078125 C 369.515625 13.890625 369.886719 13.796875 370.300781 13.796875 C 370.761719 13.796875 371.136719 13.894531 371.433594 14.085938 C 371.722656 14.277344 371.933594 14.542969 372.058594 14.886719 C 372.550781 14.160156 373.191406 13.796875 373.980469 13.796875 C 374.597656 13.796875 375.070312 13.96875 375.402344 14.3125 C 375.734375 14.65625 375.902344 15.183594 375.902344 15.886719 L 375.902344 20.160156 L 374.851562 20.160156 L 374.851562 16.238281 C 374.847656 15.820312 374.8125 15.515625 374.75 15.328125 C 374.679688 15.144531 374.558594 14.996094 374.378906 14.882812 C 374.199219 14.769531 373.988281 14.710938 373.746094 14.710938 C 373.308594 14.710938 372.945312 14.859375 372.65625 15.148438 C 372.367188 15.441406 372.222656 15.90625 372.222656 16.542969 L 372.222656 20.160156 L 371.167969 20.160156 L 371.167969 16.117188 C 371.167969 15.648438 371.082031 15.296875 370.910156 15.0625 C 370.738281 14.828125 370.457031 14.710938 370.066406 14.710938 C 369.769531 14.710938 369.492188 14.789062 369.242188 14.945312 C 368.988281 15.101562 368.808594 15.332031 368.695312 15.632812 C 368.578125 15.933594 368.519531 16.367188 368.523438 16.933594 L 368.523438 20.160156 Z M 377.46875 22.542969 L 377.46875 13.9375 L 378.429688 13.9375 L 378.429688 14.746094 C 378.65625 14.429688 378.914062 14.195312 379.199219 14.035156 C 379.480469 13.878906 379.824219 13.796875 380.234375 13.796875 C 380.761719 13.796875 381.230469 13.933594 381.640625 14.207031 C 382.042969 14.480469 382.351562 14.867188 382.5625 15.367188 C 382.769531 15.867188 382.871094 16.414062 382.875 17.003906 C 382.871094 17.640625 382.757812 18.214844 382.53125 18.722656 C 382.300781 19.238281 381.96875 19.628906 381.535156 19.894531 C 381.097656 20.167969 380.640625 20.300781 380.160156 20.300781 C 379.808594 20.300781 379.492188 20.226562 379.214844 20.078125 C 378.933594 19.929688 378.703125 19.742188 378.523438 19.515625 L 378.523438 22.542969 Z M 378.425781 17.082031 C 378.425781 17.886719 378.585938 18.476562 378.910156 18.859375 C 379.234375 19.242188 379.628906 19.433594 380.089844 19.433594 C 380.558594 19.433594 380.957031 19.238281 381.292969 18.839844 C 381.625 18.449219 381.792969 17.832031 381.796875 16.996094 C 381.792969 16.207031 381.628906 15.613281 381.304688 15.214844 C 380.976562 14.820312 380.589844 14.625 380.136719 14.621094 C 379.683594 14.625 379.285156 14.835938 378.941406 15.253906 C 378.597656 15.675781 378.425781 16.285156 378.425781 17.082031 Z M 384.117188 20.160156 L 384.117188 11.570312 L 385.171875 11.570312 L 385.171875 20.160156 Z M 391.066406 18.15625 L 392.15625 18.292969 C 391.984375 18.929688 391.664062 19.421875 391.199219 19.773438 C 390.734375 20.125 390.140625 20.300781 389.421875 20.300781 C 388.507812 20.300781 387.785156 20.023438 387.253906 19.460938 C 386.714844 18.90625 386.449219 18.117188 386.453125 17.101562 C 386.449219 16.054688 386.71875 15.242188 387.261719 14.664062 C 387.796875 14.085938 388.496094 13.796875 389.359375 13.796875 C 390.191406 13.796875 390.871094 14.082031 391.398438 14.648438 C 391.925781 15.214844 392.191406 16.011719 392.191406 17.035156 C 392.191406 17.101562 392.1875 17.195312 392.1875 17.316406 L 387.546875 17.316406 C 387.578125 18.003906 387.773438 18.527344 388.125 18.890625 C 388.472656 19.253906 388.90625 19.433594 389.425781 19.433594 C 389.8125 19.433594 390.140625 19.332031 390.417969 19.128906 C 390.6875 18.925781 390.90625 18.601562 391.066406 18.15625 Z M 387.601562 16.449219 L 391.078125 16.449219 C 391.03125 15.933594 390.898438 15.539062 390.679688 15.273438 C 390.34375 14.867188 389.90625 14.664062 389.375 14.664062 C 388.886719 14.664062 388.480469 14.828125 388.152344 15.152344 C 387.820312 15.476562 387.636719 15.910156 387.601562 16.449219 Z M 392.777344 20.160156 L 395.050781 16.925781 L 392.949219 13.9375 L 394.269531 13.9375 L 395.222656 15.394531 C 395.402344 15.675781 395.546875 15.90625 395.65625 16.09375 C 395.828125 15.835938 395.984375 15.609375 396.128906 15.410156 L 397.179688 13.9375 L 398.441406 13.9375 L 396.289062 16.867188 L 398.605469 20.160156 L 397.308594 20.160156 L 396.03125 18.226562 L 395.691406 17.707031 L 394.058594 20.160156 Z M 399.488281 12.785156 L 399.488281 11.570312 L 400.542969 11.570312 L 400.542969 12.785156 Z M 399.488281 20.160156 L 399.488281 13.9375 L 400.542969 13.9375 L 400.542969 20.160156 Z M 404.453125 19.214844 L 404.605469 20.148438 C 404.308594 20.210938 404.042969 20.242188 403.808594 20.242188 C 403.425781 20.242188 403.128906 20.183594 402.917969 20.0625 C 402.707031 19.941406 402.558594 19.78125 402.472656 19.582031 C 402.386719 19.386719 402.34375 18.972656 402.34375 18.339844 L 402.34375 14.757812 L 401.570312 14.757812 L 401.570312 13.9375 L 402.34375 13.9375 L 402.34375 12.394531 L 403.390625 11.761719 L 403.390625 13.9375 L 404.453125 13.9375 L 404.453125 14.757812 L 403.390625 14.757812 L 403.390625 18.394531 C 403.386719 18.699219 403.40625 18.890625 403.445312 18.976562 C 403.484375 19.0625 403.542969 19.132812 403.628906 19.183594 C 403.710938 19.234375 403.832031 19.257812 403.992188 19.257812 C 404.101562 19.257812 404.257812 19.246094 404.453125 19.214844 Z M 405.433594 22.558594 L 405.316406 21.566406 C 405.546875 21.628906 405.75 21.660156 405.921875 21.660156 C 406.15625 21.660156 406.34375 21.621094 406.484375 21.542969 C 406.625 21.464844 406.738281 21.355469 406.832031 21.214844 C 406.894531 21.109375 407.003906 20.847656 407.152344 20.429688 C 407.171875 20.367188 407.203125 20.28125 407.246094 20.171875 L 404.886719 13.9375 L 406.019531 13.9375 L 407.316406 17.542969 C 407.480469 18 407.628906 18.480469 407.769531 18.980469 C 407.886719 18.5 408.03125 18.027344 408.199219 17.566406 L 409.53125 13.9375 L 410.585938 13.9375 L 408.21875 20.265625 C 407.964844 20.949219 407.765625 21.417969 407.628906 21.675781 C 407.4375 22.023438 407.222656 22.277344 406.984375 22.441406 C 406.738281 22.597656 406.449219 22.679688 406.113281 22.683594 C 405.90625 22.679688 405.679688 22.636719 405.433594 22.558594 Z M 354.007812 9.296875 "/>
<path fill="none" stroke-width="1" stroke-linecap="butt" stroke-linejoin="miter" stroke="rgb(0%, 0%, 0%)" stroke-opacity="0.0980392" stroke-miterlimit="10" d="M 53 171.5 L 601 171.5 "/>
<path fill-rule="nonzero" fill="rgb(40%, 40%, 40%)" fill-opacity="1" d="M 87.71875 193.960938 L 87.71875 185.371094 L 91.523438 185.371094 C 92.285156 185.371094 92.867188 185.449219 93.269531 185.605469 C 93.664062 185.761719 93.984375 186.035156 94.226562 186.421875 C 94.464844 186.816406 94.582031 187.246094 94.585938 187.714844 C 94.582031 188.324219 94.386719 188.839844 93.992188 189.257812 C 93.59375 189.675781 92.984375 189.941406 92.164062 190.054688 C 92.464844 190.199219 92.691406 190.339844 92.851562 190.480469 C 93.179688 190.785156 93.496094 191.167969 93.792969 191.625 L 95.289062 193.960938 L 93.859375 193.960938 L 92.71875 192.171875 C 92.386719 191.660156 92.113281 191.265625 91.898438 190.988281 C 91.683594 190.71875 91.492188 190.527344 91.324219 190.414062 C 91.152344 190.308594 90.980469 190.230469 90.804688 190.1875 C 90.671875 190.164062 90.460938 190.152344 90.171875 190.148438 L 88.851562 190.148438 L 88.851562 193.960938 Z M 88.851562 189.164062 L 91.296875 189.164062 C 91.816406 189.167969 92.222656 189.113281 92.515625 189.003906 C 92.804688 188.894531 93.027344 188.722656 93.183594 188.488281 C 93.335938 188.253906 93.410156 187.996094 93.414062 187.714844 C 93.410156 187.308594 93.261719 186.976562 92.96875 186.714844 C 92.671875 186.453125 92.207031 186.320312 91.570312 186.320312 L 88.851562 186.320312 Z M 96.386719 193.960938 L 96.386719 185.371094 L 102.597656 185.371094 L 102.597656 186.382812 L 97.523438 186.382812 L 97.523438 189.015625 L 102.273438 189.015625 L 102.273438 190.023438 L 97.523438 190.023438 L 97.523438 192.945312 L 102.796875 192.945312 L 102.796875 193.960938 Z M 103.984375 191.203125 L 105.054688 191.109375 C 105.105469 191.539062 105.222656 191.890625 105.410156 192.164062 C 105.589844 192.441406 105.878906 192.664062 106.273438 192.832031 C 106.660156 193.003906 107.101562 193.089844 107.59375 193.085938 C 108.023438 193.089844 108.40625 193.023438 108.742188 192.894531 C 109.074219 192.769531 109.320312 192.59375 109.484375 192.367188 C 109.644531 192.140625 109.726562 191.894531 109.726562 191.628906 C 109.726562 191.363281 109.648438 191.128906 109.492188 190.925781 C 109.335938 190.722656 109.078125 190.554688 108.71875 190.414062 C 108.488281 190.328125 107.976562 190.1875 107.191406 189.996094 C 106.398438 189.808594 105.847656 189.628906 105.53125 189.460938 C 105.117188 189.25 104.808594 188.984375 104.613281 188.664062 C 104.410156 188.34375 104.3125 187.988281 104.3125 187.59375 C 104.3125 187.160156 104.433594 186.753906 104.679688 186.378906 C 104.925781 186.003906 105.285156 185.71875 105.757812 185.519531 C 106.230469 185.328125 106.757812 185.230469 107.335938 185.226562 C 107.96875 185.230469 108.527344 185.332031 109.019531 185.535156 C 109.503906 185.738281 109.878906 186.039062 110.140625 186.4375 C 110.402344 186.835938 110.542969 187.289062 110.5625 187.789062 L 109.476562 187.875 C 109.414062 187.332031 109.214844 186.921875 108.878906 186.644531 C 108.539062 186.367188 108.042969 186.226562 107.382812 186.226562 C 106.695312 186.226562 106.191406 186.355469 105.878906 186.605469 C 105.558594 186.863281 105.402344 187.164062 105.40625 187.515625 C 105.402344 187.824219 105.515625 188.078125 105.742188 188.277344 C 105.960938 188.480469 106.53125 188.6875 107.457031 188.890625 C 108.378906 189.101562 109.011719 189.28125 109.359375 189.4375 C 109.855469 189.667969 110.226562 189.960938 110.464844 190.3125 C 110.699219 190.667969 110.816406 191.074219 110.820312 191.535156 C 110.816406 191.992188 110.6875 192.425781 110.429688 192.828125 C 110.167969 193.234375 109.789062 193.546875 109.300781 193.773438 C 108.808594 193.996094 108.257812 194.105469 107.648438 194.109375 C 106.867188 194.105469 106.214844 193.996094 105.691406 193.769531 C 105.164062 193.546875 104.753906 193.207031 104.457031 192.746094 C 104.15625 192.292969 104 191.777344 103.984375 191.203125 Z M 111.828125 191.382812 L 111.828125 190.320312 L 115.066406 190.320312 L 115.066406 191.382812 Z M 115.789062 191.523438 L 116.816406 191.382812 C 116.84375 192.039062 116.964844 192.488281 117.1875 192.730469 C 117.402344 192.972656 117.707031 193.09375 118.09375 193.09375 C 118.378906 193.09375 118.625 193.03125 118.832031 192.898438 C 119.035156 192.773438 119.175781 192.59375 119.257812 192.367188 C 119.332031 192.140625 119.371094 191.78125 119.375 191.289062 L 119.375 185.371094 L 120.515625 185.371094 L 120.515625 191.226562 C 120.511719 191.949219 120.425781 192.503906 120.253906 192.894531 C 120.078125 193.289062 119.800781 193.589844 119.425781 193.796875 C 119.042969 194.003906 118.601562 194.105469 118.101562 194.109375 C 117.34375 194.105469 116.765625 193.890625 116.367188 193.457031 C 115.960938 193.023438 115.769531 192.378906 115.789062 191.523438 Z M 122.324219 193.960938 L 122.324219 185.371094 L 125.546875 185.371094 C 126.203125 185.371094 126.726562 185.460938 127.125 185.632812 C 127.515625 185.808594 127.828125 186.074219 128.054688 186.433594 C 128.28125 186.796875 128.394531 187.175781 128.394531 187.570312 C 128.394531 187.9375 128.292969 188.28125 128.09375 188.605469 C 127.894531 188.933594 127.59375 189.195312 127.195312 189.390625 C 127.710938 189.542969 128.109375 189.804688 128.390625 190.167969 C 128.667969 190.539062 128.808594 190.972656 128.8125 191.46875 C 128.808594 191.875 128.722656 192.25 128.554688 192.59375 C 128.382812 192.941406 128.175781 193.207031 127.925781 193.390625 C 127.675781 193.582031 127.359375 193.722656 126.984375 193.816406 C 126.605469 193.914062 126.144531 193.960938 125.601562 193.960938 Z M 123.460938 188.980469 L 125.320312 188.980469 C 125.820312 188.980469 126.183594 188.949219 126.402344 188.882812 C 126.691406 188.796875 126.90625 188.652344 127.054688 188.453125 C 127.195312 188.257812 127.269531 188.007812 127.273438 187.703125 C 127.269531 187.417969 127.203125 187.167969 127.070312 186.949219 C 126.933594 186.734375 126.738281 186.585938 126.484375 186.503906 C 126.226562 186.425781 125.789062 186.386719 125.179688 186.382812 L 123.460938 186.382812 Z M 123.460938 192.945312 L 125.601562 192.945312 C 125.960938 192.949219 126.21875 192.933594 126.375 192.90625 C 126.632812 192.859375 126.851562 192.78125 127.027344 192.671875 C 127.203125 192.5625 127.347656 192.40625 127.460938 192.195312 C 127.574219 191.992188 127.632812 191.75 127.632812 191.46875 C 127.632812 191.15625 127.550781 190.878906 127.386719 190.636719 C 127.222656 190.402344 126.992188 190.234375 126.703125 190.136719 C 126.40625 190.042969 125.988281 189.996094 125.445312 189.992188 L 123.460938 189.992188 Z M 86.773438 183.097656 "/>
<path fill-rule="nonzero" fill="rgb(40%, 40%, 40%)" fill-opacity="1" d="M 202.539062 193.960938 L 199.210938 185.371094 L 200.4375 185.371094 L 202.671875 191.609375 C 202.851562 192.113281 203 192.582031 203.125 193.015625 C 203.25 192.550781 203.40625 192.082031 203.585938 191.609375 L 205.90625 185.371094 L 207.066406 185.371094 L 203.703125 193.960938 Z M 211.121094 193.195312 C 210.730469 193.527344 210.351562 193.761719 209.992188 193.898438 C 209.625 194.035156 209.238281 194.101562 208.832031 194.101562 C 208.144531 194.101562 207.621094 193.9375 207.253906 193.601562 C 206.886719 193.273438 206.703125 192.84375 206.703125 192.320312 C 206.703125 192.015625 206.769531 191.738281 206.910156 191.488281 C 207.046875 191.238281 207.230469 191.035156 207.457031 190.878906 C 207.679688 190.726562 207.933594 190.613281 208.214844 190.53125 C 208.421875 190.484375 208.734375 190.429688 209.152344 190.375 C 210.003906 190.273438 210.628906 190.152344 211.035156 190.011719 C 211.035156 189.871094 211.039062 189.78125 211.039062 189.734375 C 211.039062 189.3125 210.9375 189.007812 210.738281 188.828125 C 210.46875 188.589844 210.070312 188.472656 209.539062 188.46875 C 209.039062 188.472656 208.671875 188.558594 208.4375 188.730469 C 208.203125 188.90625 208.027344 189.214844 207.917969 189.65625 L 206.886719 189.515625 C 206.976562 189.074219 207.132812 188.71875 207.347656 188.445312 C 207.558594 188.179688 207.867188 187.96875 208.277344 187.820312 C 208.679688 187.671875 209.152344 187.597656 209.691406 187.597656 C 210.222656 187.597656 210.652344 187.660156 210.984375 187.785156 C 211.316406 187.910156 211.5625 188.070312 211.71875 188.257812 C 211.875 188.449219 211.984375 188.6875 212.046875 188.976562 C 212.078125 189.15625 212.09375 189.480469 212.097656 189.945312 L 212.097656 191.351562 C 212.09375 192.335938 212.117188 192.957031 212.164062 193.214844 C 212.210938 193.476562 212.300781 193.722656 212.433594 193.960938 L 211.332031 193.960938 C 211.222656 193.742188 211.152344 193.488281 211.121094 193.195312 Z M 211.035156 190.835938 C 210.644531 190.996094 210.070312 191.128906 209.308594 191.234375 C 208.875 191.300781 208.570312 191.371094 208.390625 191.445312 C 208.210938 191.527344 208.070312 191.640625 207.972656 191.789062 C 207.875 191.941406 207.828125 192.109375 207.828125 192.289062 C 207.828125 192.574219 207.933594 192.808594 208.144531 192.992188 C 208.355469 193.183594 208.667969 193.277344 209.082031 193.273438 C 209.488281 193.277344 209.847656 193.1875 210.164062 193.007812 C 210.480469 192.832031 210.714844 192.589844 210.863281 192.28125 C 210.976562 192.042969 211.03125 191.691406 211.035156 191.226562 Z M 213.734375 193.960938 L 213.734375 187.738281 L 214.6875 187.738281 L 214.6875 188.625 C 215.140625 187.941406 215.800781 187.597656 216.664062 187.597656 C 217.035156 187.597656 217.378906 187.667969 217.699219 187.800781 C 218.011719 187.9375 218.25 188.113281 218.40625 188.328125 C 218.5625 188.550781 218.671875 188.808594 218.734375 189.109375 C 218.773438 189.304688 218.792969 189.648438 218.792969 190.132812 L 218.792969 193.960938 L 217.738281 193.960938 L 217.738281 190.175781 C 217.738281 189.746094 217.695312 189.425781 217.613281 189.210938 C 217.53125 189 217.386719 188.832031 217.179688 188.703125 C 216.96875 188.578125 216.722656 188.511719 216.445312 188.511719 C 215.992188 188.511719 215.605469 188.65625 215.277344 188.941406 C 214.949219 189.226562 214.785156 189.765625 214.789062 190.5625 L 214.789062 193.960938 Z M 220.414062 186.585938 L 220.414062 185.371094 L 221.46875 185.371094 L 221.46875 186.585938 Z M 220.414062 193.960938 L 220.414062 187.738281 L 221.46875 187.738281 L 221.46875 193.960938 Z M 223.046875 193.960938 L 223.046875 185.371094 L 224.101562 185.371094 L 224.101562 193.960938 Z M 225.714844 193.960938 L 225.714844 185.371094 L 226.769531 185.371094 L 226.769531 193.960938 Z M 232.46875 193.195312 C 232.078125 193.527344 231.699219 193.761719 231.339844 193.898438 C 230.972656 194.035156 230.585938 194.101562 230.179688 194.101562 C 229.492188 194.101562 228.96875 193.9375 228.601562 193.601562 C 228.234375 193.273438 228.050781 192.84375 228.050781 192.320312 C 228.050781 192.015625 228.117188 191.738281 228.257812 191.488281 C 228.394531 191.238281 228.578125 191.035156 228.804688 190.878906 C 229.027344 190.726562 229.28125 190.613281 229.5625 190.53125 C 229.769531 190.484375 230.082031 190.429688 230.5 190.375 C 231.351562 190.273438 231.976562 190.152344 232.382812 190.011719 C 232.382812 189.871094 232.386719 189.78125 232.386719 189.734375 C 232.386719 189.3125 232.285156 189.007812 232.085938 188.828125 C 231.816406 188.589844 231.417969 188.472656 230.886719 188.46875 C 230.386719 188.472656 230.019531 188.558594 229.785156 188.730469 C 229.550781 188.90625 229.375 189.214844 229.265625 189.65625 L 228.234375 189.515625 C 228.324219 189.074219 228.480469 188.71875 228.695312 188.445312 C 228.90625 188.179688 229.214844 187.96875 229.625 187.820312 C 230.027344 187.671875 230.5 187.597656 231.039062 187.597656 C 231.570312 187.597656 232 187.660156 232.332031 187.785156 C 232.664062 187.910156 232.910156 188.070312 233.066406 188.257812 C 233.222656 188.449219 233.332031 188.6875 233.394531 188.976562 C 233.425781 189.15625 233.441406 189.480469 233.445312 189.945312 L 233.445312 191.351562 C 233.441406 192.335938 233.464844 192.957031 233.511719 193.214844 C 233.558594 193.476562 233.648438 193.722656 233.78125 193.960938 L 232.679688 193.960938 C 232.570312 193.742188 232.5 193.488281 232.46875 193.195312 Z M 232.382812 190.835938 C 231.992188 190.996094 231.417969 191.128906 230.65625 191.234375 C 230.222656 191.300781 229.917969 191.371094 229.738281 191.445312 C 229.558594 191.527344 229.417969 191.640625 229.320312 191.789062 C 229.222656 191.941406 229.175781 192.109375 229.175781 192.289062 C 229.175781 192.574219 229.28125 192.808594 229.492188 192.992188 C 229.703125 193.183594 230.015625 193.277344 230.429688 193.273438 C 230.835938 193.277344 231.195312 193.1875 231.511719 193.007812 C 231.828125 192.832031 232.0625 192.589844 232.210938 192.28125 C 232.324219 192.042969 232.378906 191.691406 232.382812 191.226562 Z M 199.15625 183.097656 "/>
<path fill-rule="nonzero" fill="rgb(40%, 40%, 40%)" fill-opacity="1" d="M 309.921875 193.960938 L 306.59375 185.371094 L 307.820312 185.371094 L 310.054688 191.609375 C 310.234375 192.113281 310.382812 192.582031 310.507812 193.015625 C 310.632812 192.550781 310.789062 192.082031 310.96875 191.609375 L 313.289062 185.371094 L 314.449219 185.371094 L 311.085938 193.960938 Z M 318.503906 193.195312 C 318.113281 193.527344 317.734375 193.761719 317.375 193.898438 C 317.007812 194.035156 316.621094 194.101562 316.214844 194.101562 C 315.527344 194.101562 315.003906 193.9375 314.636719 193.601562 C 314.269531 193.273438 314.085938 192.84375 314.085938 192.320312 C 314.085938 192.015625 314.152344 191.738281 314.292969 191.488281 C 314.429688 191.238281 314.613281 191.035156 314.839844 190.878906 C 315.0625 190.726562 315.316406 190.613281 315.597656 190.53125 C 315.804688 190.484375 316.117188 190.429688 316.535156 190.375 C 317.386719 190.273438 318.011719 190.152344 318.417969 190.011719 C 318.417969 189.871094 318.421875 189.78125 318.421875 189.734375 C 318.421875 189.3125 318.320312 189.007812 318.121094 188.828125 C 317.851562 188.589844 317.453125 188.472656 316.921875 188.46875 C 316.421875 188.472656 316.054688 188.558594 315.820312 188.730469 C 315.585938 188.90625 315.410156 189.214844 315.300781 189.65625 L 314.269531 189.515625 C 314.359375 189.074219 314.515625 188.71875 314.730469 188.445312 C 314.941406 188.179688 315.25 187.96875 315.660156 187.820312 C 316.0625 187.671875 316.535156 187.597656 317.074219 187.597656 C 317.605469 187.597656 318.035156 187.660156 318.367188 187.785156 C 318.699219 187.910156 318.945312 188.070312 319.101562 188.257812 C 319.257812 188.449219 319.367188 188.6875 319.429688 188.976562 C 319.460938 189.15625 319.476562 189.480469 319.480469 189.945312 L 319.480469 191.351562 C 319.476562 192.335938 319.5 192.957031 319.546875 193.214844 C 319.59375 193.476562 319.683594 193.722656 319.816406 193.960938 L 318.714844 193.960938 C 318.605469 193.742188 318.535156 193.488281 318.503906 193.195312 Z M 318.417969 190.835938 C 318.027344 190.996094 317.453125 191.128906 316.691406 191.234375 C 316.257812 191.300781 315.953125 191.371094 315.773438 191.445312 C 315.59375 191.527344 315.453125 191.640625 315.355469 191.789062 C 315.257812 191.941406 315.210938 192.109375 315.210938 192.289062 C 315.210938 192.574219 315.316406 192.808594 315.527344 192.992188 C 315.738281 193.183594 316.050781 193.277344 316.464844 193.273438 C 316.871094 193.277344 317.230469 193.1875 317.546875 193.007812 C 317.863281 192.832031 318.097656 192.589844 318.246094 192.28125 C 318.359375 192.042969 318.414062 191.691406 318.417969 191.226562 Z M 321.117188 193.960938 L 321.117188 187.738281 L 322.070312 187.738281 L 322.070312 188.625 C 322.523438 187.941406 323.183594 187.597656 324.046875 187.597656 C 324.417969 187.597656 324.761719 187.667969 325.082031 187.800781 C 325.394531 187.9375 325.632812 188.113281 325.789062 188.328125 C 325.945312 188.550781 326.054688 188.808594 326.117188 189.109375 C 326.15625 189.304688 326.175781 189.648438 326.175781 190.132812 L 326.175781 193.960938 L 325.121094 193.960938 L 325.121094 190.175781 C 325.121094 189.746094 325.078125 189.425781 324.996094 189.210938 C 324.914062 189 324.769531 188.832031 324.5625 188.703125 C 324.351562 188.578125 324.105469 188.511719 323.828125 188.511719 C 323.375 188.511719 322.988281 188.65625 322.660156 188.941406 C 322.332031 189.226562 322.167969 189.765625 322.171875 190.5625 L 322.171875 193.960938 Z M 327.796875 186.585938 L 327.796875 185.371094 L 328.851562 185.371094 L 328.851562 186.585938 Z M 327.796875 193.960938 L 327.796875 187.738281 L 328.851562 187.738281 L 328.851562 193.960938 Z M 330.429688 193.960938 L 330.429688 185.371094 L 331.484375 185.371094 L 331.484375 193.960938 Z M 333.097656 193.960938 L 333.097656 185.371094 L 334.152344 185.371094 L 334.152344 193.960938 Z M 339.851562 193.195312 C 339.460938 193.527344 339.082031 193.761719 338.722656 193.898438 C 338.355469 194.035156 337.96875 194.101562 337.5625 194.101562 C 336.875 194.101562 336.351562 193.9375 335.984375 193.601562 C 335.617188 193.273438 335.433594 192.84375 335.433594 192.320312 C 335.433594 192.015625 335.5 191.738281 335.640625 191.488281 C 335.777344 191.238281 335.960938 191.035156 336.1875 190.878906 C 336.410156 190.726562 336.664062 190.613281 336.945312 190.53125 C 337.152344 190.484375 337.464844 190.429688 337.882812 190.375 C 338.734375 190.273438 339.359375 190.152344 339.765625 190.011719 C 339.765625 189.871094 339.769531 189.78125 339.769531 189.734375 C 339.769531 189.3125 339.667969 189.007812 339.46875 188.828125 C 339.199219 188.589844 338.800781 188.472656 338.269531 188.46875 C 337.769531 188.472656 337.402344 188.558594 337.167969 188.730469 C 336.933594 188.90625 336.757812 189.214844 336.648438 189.65625 L 335.617188 189.515625 C 335.707031 189.074219 335.863281 188.71875 336.078125 188.445312 C 336.289062 188.179688 336.597656 187.96875 337.007812 187.820312 C 337.410156 187.671875 337.882812 187.597656 338.421875 187.597656 C 338.953125 187.597656 339.382812 187.660156 339.714844 187.785156 C 340.046875 187.910156 340.292969 188.070312 340.449219 188.257812 C 340.605469 188.449219 340.714844 188.6875 340.777344 188.976562 C 340.808594 189.15625 340.824219 189.480469 340.828125 189.945312 L 340.828125 191.351562 C 340.824219 192.335938 340.847656 192.957031 340.894531 193.214844 C 340.941406 193.476562 341.03125 193.722656 341.164062 193.960938 L 340.0625 193.960938 C 339.953125 193.742188 339.882812 193.488281 339.851562 193.195312 Z M 339.765625 190.835938 C 339.375 190.996094 338.800781 191.128906 338.039062 191.234375 C 337.605469 191.300781 337.300781 191.371094 337.121094 191.445312 C 336.941406 191.527344 336.800781 191.640625 336.703125 191.789062 C 336.605469 191.941406 336.558594 192.109375 336.558594 192.289062 C 336.558594 192.574219 336.664062 192.808594 336.875 192.992188 C 337.085938 193.183594 337.398438 193.277344 337.8125 193.273438 C 338.21875 193.277344 338.578125 193.1875 338.894531 193.007812 C 339.210938 192.832031 339.445312 192.589844 339.59375 192.28125 C 339.707031 192.042969 339.761719 191.691406 339.765625 191.226562 Z M 342.046875 186.945312 L 342.316406 186.117188 C 342.9375 186.339844 343.386719 186.527344 343.671875 186.683594 C 343.59375 185.980469 343.554688 185.496094 343.554688 185.226562 L 344.402344 185.226562 C 344.386719 185.613281 344.339844 186.097656 344.265625 186.679688 C 344.667969 186.480469 345.128906 186.292969 345.648438 186.117188 L 345.921875 186.945312 C 345.421875 187.117188 344.9375 187.226562 344.460938 187.273438 C 344.699219 187.484375 345.035156 187.851562 345.46875 188.382812 L 344.765625 188.882812 C 344.539062 188.574219 344.269531 188.152344 343.960938 187.621094 C 343.671875 188.171875 343.417969 188.59375 343.203125 188.882812 L 342.507812 188.382812 C 342.957031 187.828125 343.28125 187.460938 343.484375 187.273438 C 342.976562 187.179688 342.5 187.070312 342.046875 186.945312 Z M 306.539062 183.097656 "/>
<path fill-rule="nonzero" fill="rgb(40%, 40%, 40%)" fill-opacity="1" d="M 424.035156 193.960938 L 424.035156 186.382812 L 421.207031 186.382812 L 421.207031 185.371094 L 428.015625 185.371094 L 428.015625 186.382812 L 425.175781 186.382812 L 425.175781 193.960938 Z M 427.324219 190.851562 C 427.324219 189.699219 427.644531 188.84375 428.285156 188.289062 C 428.820312 187.828125 429.472656 187.597656 430.242188 187.597656 C 431.097656 187.597656 431.796875 187.878906 432.339844 188.441406 C 432.878906 189.003906 433.148438 189.777344 433.152344 190.761719 C 433.148438 191.5625 433.027344 192.195312 432.792969 192.652344 C 432.550781 193.113281 432.203125 193.46875 431.746094 193.722656 C 431.285156 193.976562 430.785156 194.101562 430.242188 194.101562 C 429.367188 194.101562 428.660156 193.824219 428.128906 193.265625 C 427.589844 192.707031 427.324219 191.902344 427.324219 190.851562 Z M 428.410156 190.851562 C 428.40625 191.652344 428.582031 192.25 428.929688 192.640625 C 429.273438 193.039062 429.710938 193.234375 430.242188 193.234375 C 430.765625 193.234375 431.199219 193.035156 431.546875 192.636719 C 431.894531 192.238281 432.070312 191.632812 432.070312 190.8125 C 432.070312 190.046875 431.894531 189.464844 431.542969 189.066406 C 431.191406 188.671875 430.757812 188.472656 430.242188 188.46875 C 429.710938 188.472656 429.273438 188.667969 428.929688 189.0625 C 428.582031 189.460938 428.40625 190.058594 428.410156 190.851562 Z M 434.390625 196.34375 L 434.390625 187.738281 L 435.351562 187.738281 L 435.351562 188.546875 C 435.578125 188.230469 435.835938 187.996094 436.121094 187.835938 C 436.402344 187.679688 436.746094 187.597656 437.15625 187.597656 C 437.683594 187.597656 438.152344 187.734375 438.5625 188.007812 C 438.964844 188.28125 439.273438 188.667969 439.484375 189.167969 C 439.691406 189.667969 439.792969 190.214844 439.796875 190.804688 C 439.792969 191.441406 439.679688 192.015625 439.453125 192.523438 C 439.222656 193.039062 438.890625 193.429688 438.457031 193.695312 C 438.019531 193.96875 437.5625 194.101562 437.082031 194.101562 C 436.730469 194.101562 436.414062 194.027344 436.136719 193.878906 C 435.855469 193.730469 435.625 193.542969 435.445312 193.316406 L 435.445312 196.34375 Z M 435.347656 190.882812 C 435.347656 191.6875 435.507812 192.277344 435.832031 192.660156 C 436.15625 193.042969 436.550781 193.234375 437.011719 193.234375 C 437.480469 193.234375 437.878906 193.039062 438.214844 192.640625 C 438.546875 192.25 438.714844 191.632812 438.71875 190.796875 C 438.714844 190.007812 438.550781 189.414062 438.226562 189.015625 C 437.898438 188.621094 437.511719 188.425781 437.058594 188.421875 C 436.605469 188.425781 436.207031 188.636719 435.863281 189.054688 C 435.519531 189.476562 435.347656 190.085938 435.347656 190.882812 Z M 440.65625 191.382812 L 440.65625 190.320312 L 443.894531 190.320312 L 443.894531 191.382812 Z M 445.066406 193.960938 L 445.066406 185.371094 L 446.121094 185.371094 L 446.121094 190.269531 L 448.617188 187.738281 L 449.980469 187.738281 L 447.605469 190.046875 L 450.222656 193.960938 L 448.921875 193.960938 L 446.863281 190.78125 L 446.121094 191.492188 L 446.121094 193.960938 Z M 420.925781 183.097656 "/>
<path fill-rule="nonzero" fill="rgb(40%, 40%, 40%)" fill-opacity="1" d="M 531.417969 193.960938 L 531.417969 186.382812 L 528.589844 186.382812 L 528.589844 185.371094 L 535.398438 185.371094 L 535.398438 186.382812 L 532.558594 186.382812 L 532.558594 193.960938 Z M 534.707031 190.851562 C 534.707031 189.699219 535.027344 188.84375 535.667969 188.289062 C 536.203125 187.828125 536.855469 187.597656 537.625 187.597656 C 538.480469 187.597656 539.179688 187.878906 539.722656 188.441406 C 540.261719 189.003906 540.53125 189.777344 540.535156 190.761719 C 540.53125 191.5625 540.410156 192.195312 540.175781 192.652344 C 539.933594 193.113281 539.585938 193.46875 539.128906 193.722656 C 538.667969 193.976562 538.167969 194.101562 537.625 194.101562 C 536.75 194.101562 536.042969 193.824219 535.511719 193.265625 C 534.972656 192.707031 534.707031 191.902344 534.707031 190.851562 Z M 535.792969 190.851562 C 535.789062 191.652344 535.964844 192.25 536.3125 192.640625 C 536.65625 193.039062 537.09375 193.234375 537.625 193.234375 C 538.148438 193.234375 538.582031 193.035156 538.929688 192.636719 C 539.277344 192.238281 539.453125 191.632812 539.453125 190.8125 C 539.453125 190.046875 539.277344 189.464844 538.925781 189.066406 C 538.574219 188.671875 538.140625 188.472656 537.625 188.46875 C 537.09375 188.472656 536.65625 188.667969 536.3125 189.0625 C 535.964844 189.460938 535.789062 190.058594 535.792969 190.851562 Z M 541.773438 196.34375 L 541.773438 187.738281 L 542.734375 187.738281 L 542.734375 188.546875 C 542.960938 188.230469 543.21875 187.996094 543.503906 187.835938 C 543.785156 187.679688 544.128906 187.597656 544.539062 187.597656 C 545.066406 187.597656 545.535156 187.734375 545.945312 188.007812 C 546.347656 188.28125 546.65625 188.667969 546.867188 189.167969 C 547.074219 189.667969 547.175781 190.214844 547.179688 190.804688 C 547.175781 191.441406 547.0625 192.015625 546.835938 192.523438 C 546.605469 193.039062 546.273438 193.429688 545.839844 193.695312 C 545.402344 193.96875 544.945312 194.101562 544.464844 194.101562 C 544.113281 194.101562 543.796875 194.027344 543.519531 193.878906 C 543.238281 193.730469 543.007812 193.542969 542.828125 193.316406 L 542.828125 196.34375 Z M 542.730469 190.882812 C 542.730469 191.6875 542.890625 192.277344 543.214844 192.660156 C 543.539062 193.042969 543.933594 193.234375 544.394531 193.234375 C 544.863281 193.234375 545.261719 193.039062 545.597656 192.640625 C 545.929688 192.25 546.097656 191.632812 546.101562 190.796875 C 546.097656 190.007812 545.933594 189.414062 545.609375 189.015625 C 545.28125 188.621094 544.894531 188.425781 544.441406 188.421875 C 543.988281 188.425781 543.589844 188.636719 543.246094 189.054688 C 542.902344 189.476562 542.730469 190.085938 542.730469 190.882812 Z M 548.039062 191.382812 L 548.039062 190.320312 L 551.277344 190.320312 L 551.277344 191.382812 Z M 552.449219 193.960938 L 552.449219 185.371094 L 553.503906 185.371094 L 553.503906 190.269531 L 556 187.738281 L 557.363281 187.738281 L 554.988281 190.046875 L 557.605469 193.960938 L 556.304688 193.960938 L 554.246094 190.78125 L 553.503906 191.492188 L 553.503906 193.960938 Z M 558.027344 186.945312 L 558.296875 186.117188 C 558.917969 186.339844 559.367188 186.527344 559.652344 186.683594 C 559.574219 185.980469 559.535156 185.496094 559.535156 185.226562 L 560.382812 185.226562 C 560.367188 185.613281 560.320312 186.097656 560.246094 186.679688 C 560.648438 186.480469 561.109375 186.292969 561.628906 186.117188 L 561.902344 186.945312 C 561.402344 187.117188 560.917969 187.226562 560.441406 187.273438 C 560.679688 187.484375 561.015625 187.851562 561.449219 188.382812 L 560.746094 188.882812 C 560.519531 188.574219 560.25 188.152344 559.941406 187.621094 C 559.652344 188.171875 559.398438 188.59375 559.183594 188.882812 L 558.488281 188.382812 C 558.9375 187.828125 559.261719 187.460938 559.464844 187.273438 C 558.957031 187.179688 558.480469 187.070312 558.027344 186.945312 Z M 528.308594 183.097656 "/>
<path fill="none" stroke-width="1" stroke-linecap="butt" stroke-linejoin="miter" stroke="rgb(0%, 0%, 0%)" stroke-opacity="0.0980392" stroke-miterlimit="10" d="M 53.5 32 L 53.5 172 "/>
<path fill-rule="nonzero" fill="rgb(40%, 40%, 40%)" fill-opacity="1" d="M 35.582031 171.527344 C 35.578125 170.515625 35.683594 169.699219 35.894531 169.074219 C 36.101562 168.457031 36.410156 167.976562 36.824219 167.640625 C 37.230469 167.304688 37.75 167.136719 38.378906 167.136719 C 38.839844 167.136719 39.246094 167.230469 39.59375 167.414062 C 39.9375 167.601562 40.222656 167.871094 40.453125 168.21875 C 40.675781 168.570312 40.855469 168.996094 40.988281 169.496094 C 41.117188 170 41.179688 170.675781 41.183594 171.527344 C 41.179688 172.535156 41.078125 173.347656 40.871094 173.964844 C 40.660156 174.585938 40.347656 175.066406 39.941406 175.402344 C 39.527344 175.742188 39.007812 175.90625 38.378906 175.910156 C 37.546875 175.90625 36.898438 175.613281 36.429688 175.019531 C 35.863281 174.304688 35.578125 173.140625 35.582031 171.527344 Z M 36.664062 171.527344 C 36.664062 172.9375 36.828125 173.875 37.15625 174.34375 C 37.484375 174.8125 37.890625 175.046875 38.378906 175.042969 C 38.859375 175.046875 39.265625 174.8125 39.601562 174.339844 C 39.929688 173.875 40.097656 172.9375 40.097656 171.527344 C 40.097656 170.113281 39.929688 169.171875 39.601562 168.707031 C 39.265625 168.246094 38.855469 168.015625 38.371094 168.011719 C 37.882812 168.015625 37.496094 168.21875 37.207031 168.625 C 36.84375 169.148438 36.664062 170.117188 36.664062 171.527344 Z M 35.082031 164.898438 "/>
<path fill-rule="nonzero" fill="rgb(40%, 40%, 40%)" fill-opacity="1" d="M 29.550781 144.738281 L 28.496094 144.738281 L 28.496094 138.019531 C 28.242188 138.261719 27.910156 138.503906 27.496094 138.742188 C 27.082031 138.988281 26.710938 139.167969 26.386719 139.289062 L 26.386719 138.269531 C 26.976562 137.996094 27.492188 137.660156 27.933594 137.261719 C 28.375 136.867188 28.6875 136.484375 28.871094 136.113281 L 29.550781 136.113281 Z M 32.847656 144.738281 L 32.847656 143.535156 L 34.046875 143.535156 L 34.046875 144.738281 Z M 35.589844 140.503906 C 35.585938 139.492188 35.691406 138.675781 35.902344 138.050781 C 36.109375 137.433594 36.417969 136.953125 36.832031 136.617188 C 37.238281 136.28125 37.757812 136.113281 38.386719 136.113281 C 38.847656 136.113281 39.253906 136.207031 39.601562 136.390625 C 39.945312 136.578125 40.230469 136.847656 40.460938 137.195312 C 40.683594 137.546875 40.863281 137.972656 40.996094 138.472656 C 41.125 138.976562 41.1875 139.652344 41.191406 140.503906 C 41.1875 141.511719 41.085938 142.324219 40.878906 142.941406 C 40.667969 143.5625 40.355469 144.042969 39.949219 144.378906 C 39.535156 144.71875 39.015625 144.882812 38.386719 144.886719 C 37.554688 144.882812 36.90625 144.589844 36.4375 143.996094 C 35.871094 143.28125 35.585938 142.117188 35.589844 140.503906 Z M 36.671875 140.503906 C 36.671875 141.914062 36.835938 142.851562 37.164062 143.320312 C 37.492188 143.789062 37.898438 144.023438 38.386719 144.019531 C 38.867188 144.023438 39.273438 143.789062 39.609375 143.316406 C 39.9375 142.851562 40.105469 141.914062 40.105469 140.503906 C 40.105469 139.089844 39.9375 138.148438 39.609375 137.683594 C 39.273438 137.222656 38.863281 136.992188 38.378906 136.988281 C 37.890625 136.992188 37.503906 137.195312 37.214844 137.601562 C 36.851562 138.125 36.671875 139.09375 36.671875 140.503906 Z M 25.082031 133.875 "/>
<path fill-rule="nonzero" fill="rgb(40%, 40%, 40%)" fill-opacity="1" d="M 31.121094 112.699219 L 31.121094 113.714844 L 25.445312 113.714844 C 25.4375 113.460938 25.476562 113.21875 25.566406 112.980469 C 25.710938 112.597656 25.941406 112.214844 26.261719 111.839844 C 26.574219 111.464844 27.035156 111.03125 27.644531 110.539062 C 28.574219 109.773438 29.207031 109.167969 29.535156 108.722656 C 29.863281 108.277344 30.027344 107.855469 30.027344 107.449219 C 30.027344 107.035156 29.875 106.683594 29.578125 106.394531 C 29.273438 106.113281 28.886719 105.96875 28.410156 105.964844 C 27.902344 105.96875 27.496094 106.121094 27.191406 106.421875 C 26.886719 106.730469 26.730469 107.152344 26.730469 107.683594 L 25.644531 107.574219 C 25.714844 106.769531 25.992188 106.15625 26.480469 105.726562 C 26.960938 105.304688 27.613281 105.089844 28.433594 105.089844 C 29.253906 105.089844 29.90625 105.320312 30.390625 105.777344 C 30.871094 106.234375 31.109375 106.800781 31.113281 107.472656 C 31.109375 107.820312 31.039062 108.15625 30.902344 108.488281 C 30.757812 108.824219 30.523438 109.175781 30.199219 109.539062 C 29.871094 109.910156 29.332031 110.414062 28.574219 111.050781 C 27.941406 111.585938 27.535156 111.945312 27.355469 112.132812 C 27.175781 112.320312 27.027344 112.511719 26.910156 112.699219 Z M 32.847656 113.714844 L 32.847656 112.511719 L 34.046875 112.511719 L 34.046875 113.714844 Z M 35.589844 109.480469 C 35.585938 108.46875 35.691406 107.652344 35.902344 107.027344 C 36.109375 106.410156 36.417969 105.929688 36.832031 105.59375 C 37.238281 105.257812 37.757812 105.089844 38.386719 105.089844 C 38.847656 105.089844 39.253906 105.183594 39.601562 105.367188 C 39.945312 105.554688 40.230469 105.824219 40.460938 106.171875 C 40.683594 106.523438 40.863281 106.949219 40.996094 107.449219 C 41.125 107.953125 41.1875 108.628906 41.191406 109.480469 C 41.1875 110.488281 41.085938 111.300781 40.878906 111.917969 C 40.667969 112.539062 40.355469 113.019531 39.949219 113.355469 C 39.535156 113.695312 39.015625 113.859375 38.386719 113.863281 C 37.554688 113.859375 36.90625 113.566406 36.4375 112.972656 C 35.871094 112.257812 35.585938 111.09375 35.589844 109.480469 Z M 36.671875 109.480469 C 36.671875 110.890625 36.835938 111.828125 37.164062 112.296875 C 37.492188 112.765625 37.898438 113 38.386719 112.996094 C 38.867188 113 39.273438 112.765625 39.609375 112.292969 C 39.9375 111.828125 40.105469 110.890625 40.105469 109.480469 C 40.105469 108.066406 39.9375 107.125 39.609375 106.660156 C 39.273438 106.199219 38.863281 105.96875 38.378906 105.964844 C 37.890625 105.96875 37.503906 106.171875 37.214844 106.578125 C 36.851562 107.101562 36.671875 108.070312 36.671875 109.480469 Z M 25.082031 102.851562 "/>
<path fill-rule="nonzero" fill="rgb(40%, 40%, 40%)" fill-opacity="1" d="M 25.585938 80.429688 L 26.640625 80.289062 C 26.761719 80.886719 26.964844 81.316406 27.257812 81.582031 C 27.546875 81.847656 27.902344 81.980469 28.324219 81.976562 C 28.816406 81.980469 29.234375 81.808594 29.578125 81.460938 C 29.914062 81.121094 30.085938 80.695312 30.089844 80.179688 C 30.085938 79.699219 29.929688 79.300781 29.617188 78.984375 C 29.300781 78.671875 28.898438 78.511719 28.410156 78.511719 C 28.210938 78.511719 27.960938 78.550781 27.667969 78.628906 L 27.785156 77.703125 C 27.847656 77.710938 27.90625 77.714844 27.953125 77.714844 C 28.402344 77.714844 28.804688 77.597656 29.167969 77.363281 C 29.523438 77.128906 29.703125 76.769531 29.707031 76.28125 C 29.703125 75.894531 29.574219 75.574219 29.3125 75.320312 C 29.046875 75.066406 28.707031 74.9375 28.300781 74.9375 C 27.886719 74.9375 27.546875 75.066406 27.273438 75.324219 C 27 75.582031 26.824219 75.96875 26.746094 76.484375 L 25.691406 76.296875 C 25.820312 75.589844 26.113281 75.042969 26.570312 74.652344 C 27.023438 74.265625 27.589844 74.070312 28.277344 74.070312 C 28.742188 74.070312 29.175781 74.171875 29.570312 74.371094 C 29.960938 74.574219 30.261719 74.847656 30.472656 75.195312 C 30.683594 75.546875 30.789062 75.917969 30.789062 76.304688 C 30.789062 76.675781 30.6875 77.011719 30.488281 77.316406 C 30.289062 77.621094 29.996094 77.863281 29.605469 78.042969 C 30.113281 78.160156 30.507812 78.40625 30.789062 78.773438 C 31.070312 79.148438 31.210938 79.609375 31.210938 80.15625 C 31.210938 80.910156 30.9375 81.546875 30.390625 82.066406 C 29.84375 82.589844 29.152344 82.847656 28.316406 82.847656 C 27.558594 82.847656 26.929688 82.625 26.4375 82.175781 C 25.9375 81.726562 25.65625 81.144531 25.585938 80.429688 Z M 32.847656 82.695312 L 32.847656 81.492188 L 34.046875 81.492188 L 34.046875 82.695312 Z M 35.589844 78.460938 C 35.585938 77.449219 35.691406 76.632812 35.902344 76.007812 C 36.109375 75.390625 36.417969 74.910156 36.832031 74.574219 C 37.238281 74.238281 37.757812 74.070312 38.386719 74.070312 C 38.847656 74.070312 39.253906 74.164062 39.601562 74.347656 C 39.945312 74.535156 40.230469 74.804688 40.460938 75.152344 C 40.683594 75.503906 40.863281 75.929688 40.996094 76.429688 C 41.125 76.933594 41.1875 77.609375 41.191406 78.460938 C 41.1875 79.46875 41.085938 80.28125 40.878906 80.898438 C 40.667969 81.519531 40.355469 82 39.949219 82.335938 C 39.535156 82.675781 39.015625 82.839844 38.386719 82.84375 C 37.554688 82.839844 36.90625 82.546875 36.4375 81.953125 C 35.871094 81.238281 35.585938 80.074219 35.589844 78.460938 Z M 36.671875 78.460938 C 36.671875 79.871094 36.835938 80.808594 37.164062 81.277344 C 37.492188 81.746094 37.898438 81.980469 38.386719 81.976562 C 38.867188 81.980469 39.273438 81.746094 39.609375 81.273438 C 39.9375 80.808594 40.105469 79.871094 40.105469 78.460938 C 40.105469 77.046875 39.9375 76.105469 39.609375 75.640625 C 39.273438 75.179688 38.863281 74.949219 38.378906 74.945312 C 37.890625 74.949219 37.503906 75.152344 37.214844 75.558594 C 36.851562 76.082031 36.671875 77.050781 36.671875 78.460938 Z M 25.082031 71.832031 "/>
<path fill-rule="nonzero" fill="rgb(40%, 40%, 40%)" fill-opacity="1" d="M 28.960938 51.671875 L 28.960938 49.617188 L 25.234375 49.617188 L 25.234375 48.648438 L 29.152344 43.082031 L 30.015625 43.082031 L 30.015625 48.648438 L 31.175781 48.648438 L 31.175781 49.617188 L 30.015625 49.617188 L 30.015625 51.671875 Z M 28.960938 48.648438 L 28.960938 44.773438 L 26.269531 48.648438 Z M 32.847656 51.671875 L 32.847656 50.46875 L 34.046875 50.46875 L 34.046875 51.671875 Z M 35.589844 47.4375 C 35.585938 46.425781 35.691406 45.609375 35.902344 44.984375 C 36.109375 44.367188 36.417969 43.886719 36.832031 43.550781 C 37.238281 43.214844 37.757812 43.046875 38.386719 43.046875 C 38.847656 43.046875 39.253906 43.140625 39.601562 43.324219 C 39.945312 43.511719 40.230469 43.78125 40.460938 44.128906 C 40.683594 44.480469 40.863281 44.90625 40.996094 45.40625 C 41.125 45.910156 41.1875 46.585938 41.191406 47.4375 C 41.1875 48.445312 41.085938 49.257812 40.878906 49.875 C 40.667969 50.496094 40.355469 50.976562 39.949219 51.3125 C 39.535156 51.652344 39.015625 51.816406 38.386719 51.820312 C 37.554688 51.816406 36.90625 51.523438 36.4375 50.929688 C 35.871094 50.214844 35.585938 49.050781 35.589844 47.4375 Z M 36.671875 47.4375 C 36.671875 48.847656 36.835938 49.785156 37.164062 50.253906 C 37.492188 50.722656 37.898438 50.957031 38.386719 50.953125 C 38.867188 50.957031 39.273438 50.722656 39.609375 50.25 C 39.9375 49.785156 40.105469 48.847656 40.105469 47.4375 C 40.105469 46.023438 39.9375 45.082031 39.609375 44.617188 C 39.273438 44.15625 38.863281 43.925781 38.378906 43.921875 C 37.890625 43.925781 37.503906 44.128906 37.214844 44.535156 C 36.851562 45.058594 36.671875 46.027344 36.671875 47.4375 Z M 25.082031 40.808594 "/>
<g clip-path="url(#clip-0)">
<path fill-rule="nonzero" fill="rgb(21.176471%, 63.529412%, 92.156863%)" fill-opacity="1" d="M 112.960938 94.042969 C 111.304688 94.042969 109.960938 95.386719 109.960938 97.042969 L 109.960938 171.101562 L 149.339844 171.101562 L 149.339844 97.042969 C 149.339844 95.386719 147.996094 94.042969 146.339844 94.042969 L 112.960938 94.042969 "/>
</g>
<g clip-path="url(#clip-1)">
<path fill-rule="nonzero" fill="rgb(21.176471%, 63.529412%, 92.156863%)" fill-opacity="1" d="M 222.34375 137.476562 C 220.6875 137.476562 219.34375 138.820312 219.34375 140.476562 L 219.34375 171.101562 L 258.722656 171.101562 L 258.722656 140.476562 C 258.722656 138.820312 257.378906 137.476562 255.722656 137.476562 L 222.34375 137.476562 "/>
</g>
<g clip-path="url(#clip-2)">
<path fill-rule="nonzero" fill="rgb(21.176471%, 63.529412%, 92.156863%)" fill-opacity="1" d="M 331.726562 81.636719 C 330.070312 81.636719 328.726562 82.980469 328.726562 84.636719 L 328.726562 171.101562 L 368.105469 171.101562 L 368.105469 84.636719 C 368.105469 82.980469 366.761719 81.636719 365.105469 81.636719 L 331.726562 81.636719 "/>
</g>
<g clip-path="url(#clip-3)">
<path fill-rule="nonzero" fill="rgb(21.176471%, 63.529412%, 92.156863%)" fill-opacity="1" d="M 441.113281 118.863281 C 439.457031 118.863281 438.113281 120.207031 438.113281 121.863281 L 438.113281 171.101562 L 477.492188 171.101562 L 477.492188 121.863281 C 477.492188 120.207031 476.148438 118.863281 474.492188 118.863281 L 441.113281 118.863281 "/>
</g>
<g clip-path="url(#clip-4)">
<path fill-rule="nonzero" fill="rgb(21.176471%, 63.529412%, 92.156863%)" fill-opacity="1" d="M 550.496094 78.535156 C 548.839844 78.535156 547.496094 79.875 547.496094 81.535156 L 547.496094 171.101562 L 586.875 171.101562 L 586.875 81.535156 C 586.875 79.875 585.53125 78.535156 583.875 78.535156 L 550.496094 78.535156 "/>
</g>
<g clip-path="url(#clip-5)">
<path fill-rule="nonzero" fill="rgb(100%, 38.823529%, 51.764706%)" fill-opacity="1" d="M 69.207031 44.410156 C 67.550781 44.410156 66.207031 45.753906 66.207031 47.410156 L 66.207031 171.101562 L 105.585938 171.101562 L 105.585938 47.410156 C 105.585938 45.753906 104.242188 44.410156 102.585938 44.410156 L 69.207031 44.410156 "/>
</g>
<g clip-path="url(#clip-6)">
<path fill-rule="nonzero" fill="rgb(100%, 38.823529%, 51.764706%)" fill-opacity="1" d="M 178.589844 59.921875 C 176.933594 59.921875 175.589844 61.261719 175.589844 62.921875 L 175.589844 171.101562 L 214.96875 171.101562 L 214.96875 62.921875 C 214.96875 61.261719 213.625 59.921875 211.96875 59.921875 L 178.589844 59.921875 "/>
</g>
<g clip-path="url(#clip-7)">
<path fill-rule="nonzero" fill="rgb(100%, 38.823529%, 51.764706%)" fill-opacity="1" d="M 287.976562 66.125 C 286.316406 66.125 284.976562 67.46875 284.976562 69.125 L 284.976562 171.101562 L 324.351562 171.101562 L 324.351562 69.125 C 324.351562 67.46875 323.011719 66.125 321.351562 66.125 L 287.976562 66.125 "/>
</g>
<g clip-path="url(#clip-8)">
<path fill-rule="nonzero" fill="rgb(100%, 38.823529%, 51.764706%)" fill-opacity="1" d="M 397.359375 66.125 C 395.703125 66.125 394.359375 67.46875 394.359375 69.125 L 394.359375 171.101562 L 433.738281 171.101562 L 433.738281 69.125 C 433.738281 67.46875 432.394531 66.125 430.738281 66.125 L 397.359375 66.125 "/>
</g>
<g clip-path="url(#clip-9)">
<path fill-rule="nonzero" fill="rgb(100%, 38.823529%, 51.764706%)" fill-opacity="1" d="M 506.742188 41.308594 C 505.085938 41.308594 503.742188 42.648438 503.742188 44.308594 L 503.742188 171.101562 L 543.121094 171.101562 L 543.121094 44.308594 C 543.121094 42.648438 541.777344 41.308594 540.121094 41.308594 L 506.742188 41.308594 "/>
</g>
</svg>
