<?xml version="1.0" encoding="UTF-8"?>
<svg xmlns="http://www.w3.org/2000/svg" xmlns:xlink="http://www.w3.org/1999/xlink" width="600" height="400" viewBox="0 0 600 400">
<path fill="none" stroke-width="1" stroke-linecap="butt" stroke-linejoin="miter" stroke="rgb(0%, 0%, 0%)" stroke-opacity="0.0980392" stroke-miterlimit="10" d="M 43.5 32 L 43.5 349 "/>
<path fill="none" stroke-width="1" stroke-linecap="butt" stroke-linejoin="miter" stroke="rgb(0%, 0%, 0%)" stroke-opacity="0.0980392" stroke-miterlimit="10" d="M 43.5 350 L 43.5 357.199219 "/>
<path fill="none" stroke-width="1" stroke-linecap="butt" stroke-linejoin="miter" stroke="rgb(0%, 0%, 0%)" stroke-opacity="0.0980392" stroke-miterlimit="10" d="M 228.5 32 L 228.5 349 "/>
<path fill="none" stroke-width="1" stroke-linecap="butt" stroke-linejoin="miter" stroke="rgb(0%, 0%, 0%)" stroke-opacity="0.0980392" stroke-miterlimit="10" d="M 228.5 350 L 228.5 357.199219 "/>
<path fill="none" stroke-width="1" stroke-linecap="butt" stroke-linejoin="miter" stroke="rgb(0%, 0%, 0%)" stroke-opacity="0.0980392" stroke-miterlimit="10" d="M 414.5 32 L 414.5 349 "/>
<path fill="none" stroke-width="1" stroke-linecap="butt" stroke-linejoin="miter" stroke="rgb(0%, 0%, 0%)" stroke-opacity="0.0980392" stroke-miterlimit="10" d="M 414.5 350 L 414.5 357.199219 "/>
<path fill-rule="nonzero" fill="rgb(40%, 40%, 40%)" fill-opacity="1" d="M 307.414062 392.960938 L 307.414062 384.371094 L 308.550781 384.371094 L 308.550781 391.945312 L 312.78125 391.945312 L 312.78125 392.960938 Z M 318.0625 392.195312 C 317.671875 392.527344 317.292969 392.761719 316.933594 392.898438 C 316.566406 393.035156 316.179688 393.101562 315.773438 393.101562 C 315.085938 393.101562 314.5625 392.9375 314.195312 392.601562 C 313.828125 392.273438 313.644531 391.84375 313.644531 391.320312 C 313.644531 391.015625 313.710938 390.738281 313.851562 390.488281 C 313.988281 390.238281 314.171875 390.035156 314.398438 389.878906 C 314.621094 389.726562 314.875 389.613281 315.15625 389.53125 C 315.363281 389.484375 315.675781 389.429688 316.09375 389.375 C 316.945312 389.273438 317.570312 389.152344 317.976562 389.011719 C 317.976562 388.871094 317.980469 388.78125 317.980469 388.734375 C 317.980469 388.3125 317.878906 388.007812 317.679688 387.828125 C 317.410156 387.589844 317.011719 387.472656 316.480469 387.46875 C 315.980469 387.472656 315.613281 387.558594 315.378906 387.730469 C 315.144531 387.90625 314.96875 388.214844 314.859375 388.65625 L 313.828125 388.515625 C 313.917969 388.074219 314.074219 387.71875 314.289062 387.445312 C 314.5 387.179688 314.808594 386.96875 315.21875 386.820312 C 315.621094 386.671875 316.09375 386.597656 316.632812 386.597656 C 317.164062 386.597656 317.59375 386.660156 317.925781 386.785156 C 318.257812 386.910156 318.503906 387.070312 318.660156 387.257812 C 318.816406 387.449219 318.925781 387.6875 318.988281 387.976562 C 319.019531 388.15625 319.035156 388.480469 319.039062 388.945312 L 319.039062 390.351562 C 319.035156 391.335938 319.058594 391.957031 319.105469 392.214844 C 319.152344 392.476562 319.242188 392.722656 319.375 392.960938 L 318.273438 392.960938 C 318.164062 392.742188 318.09375 392.488281 318.0625 392.195312 Z M 317.976562 389.835938 C 317.585938 389.996094 317.011719 390.128906 316.25 390.234375 C 315.816406 390.300781 315.511719 390.371094 315.332031 390.445312 C 315.152344 390.527344 315.011719 390.640625 314.914062 390.789062 C 314.816406 390.941406 314.769531 391.109375 314.769531 391.289062 C 314.769531 391.574219 314.875 391.808594 315.085938 391.992188 C 315.296875 392.183594 315.609375 392.277344 316.023438 392.273438 C 316.429688 392.277344 316.789062 392.1875 317.105469 392.007812 C 317.421875 391.832031 317.65625 391.589844 317.804688 391.28125 C 317.917969 391.042969 317.972656 390.691406 317.976562 390.226562 Z M 320.625 395.359375 L 320.507812 394.367188 C 320.738281 394.429688 320.941406 394.460938 321.113281 394.460938 C 321.347656 394.460938 321.535156 394.421875 321.675781 394.34375 C 321.816406 394.265625 321.929688 394.15625 322.023438 394.015625 C 322.085938 393.910156 322.195312 393.648438 322.34375 393.230469 C 322.363281 393.167969 322.394531 393.082031 322.4375 392.972656 L 320.078125 386.738281 L 321.210938 386.738281 L 322.507812 390.34375 C 322.671875 390.800781 322.820312 391.28125 322.960938 391.78125 C 323.078125 391.300781 323.222656 390.828125 323.390625 390.367188 L 324.722656 386.738281 L 325.777344 386.738281 L 323.410156 393.066406 C 323.15625 393.75 322.957031 394.21875 322.820312 394.476562 C 322.628906 394.824219 322.414062 395.078125 322.175781 395.242188 C 321.929688 395.398438 321.640625 395.480469 321.304688 395.484375 C 321.097656 395.480469 320.871094 395.4375 320.625 395.359375 Z M 330.933594 390.957031 L 332.023438 391.09375 C 331.851562 391.730469 331.53125 392.222656 331.066406 392.574219 C 330.601562 392.925781 330.007812 393.101562 329.289062 393.101562 C 328.375 393.101562 327.652344 392.824219 327.121094 392.261719 C 326.582031 391.707031 326.316406 390.917969 326.320312 389.902344 C 326.316406 388.855469 326.585938 388.042969 327.128906 387.464844 C 327.664062 386.886719 328.363281 386.597656 329.226562 386.597656 C 330.058594 386.597656 330.738281 386.882812 331.265625 387.449219 C 331.792969 388.015625 332.058594 388.8125 332.058594 389.835938 C 332.058594 389.902344 332.054688 389.996094 332.054688 390.117188 L 327.414062 390.117188 C 327.445312 390.804688 327.640625 391.328125 327.992188 391.691406 C 328.339844 392.054688 328.773438 392.234375 329.292969 392.234375 C 329.679688 392.234375 330.007812 392.132812 330.285156 391.929688 C 330.554688 391.726562 330.773438 391.402344 330.933594 390.957031 Z M 327.46875 389.25 L 330.945312 389.25 C 330.898438 388.734375 330.765625 388.339844 330.546875 388.074219 C 330.210938 387.667969 329.773438 387.464844 329.242188 387.464844 C 328.753906 387.464844 328.347656 387.628906 328.019531 387.953125 C 327.6875 388.277344 327.503906 388.710938 327.46875 389.25 Z M 333.335938 392.960938 L 333.335938 386.738281 L 334.28125 386.738281 L 334.28125 387.679688 C 334.523438 387.242188 334.746094 386.949219 334.953125 386.808594 C 335.15625 386.667969 335.382812 386.597656 335.632812 386.597656 C 335.984375 386.597656 336.347656 386.710938 336.714844 386.9375 L 336.351562 387.914062 C 336.09375 387.765625 335.835938 387.6875 335.578125 387.6875 C 335.347656 387.6875 335.140625 387.757812 334.957031 387.894531 C 334.769531 388.035156 334.636719 388.226562 334.5625 388.472656 C 334.445312 388.847656 334.386719 389.257812 334.390625 389.703125 L 334.390625 392.960938 Z M 306.535156 382.097656 "/>
<path fill="none" stroke-width="1" stroke-linecap="butt" stroke-linejoin="miter" stroke="rgb(0%, 0%, 0%)" stroke-opacity="0.0980392" stroke-miterlimit="10" d="M 44 349.5 L 600 349.5 "/>
<path fill="none" stroke-width="1" stroke-linecap="butt" stroke-linejoin="miter" stroke="rgb(0%, 0%, 0%)" stroke-opacity="0.0980392" stroke-miterlimit="10" d="M 35.074219 349.5 L 43 349.5 "/>
<path fill="none" stroke-width="1" stroke-linecap="butt" stroke-linejoin="miter" stroke="rgb(0%, 0%, 0%)" stroke-opacity="0.0980392" stroke-miterlimit="10" d="M 44 296.5 L 600 296.5 "/>
<path fill="none" stroke-width="1" stroke-linecap="butt" stroke-linejoin="miter" stroke="rgb(0%, 0%, 0%)" stroke-opacity="0.0980392" stroke-miterlimit="10" d="M 35.074219 296.5 L 43 296.5 "/>
<path fill="none" stroke-width="1" stroke-linecap="butt" stroke-linejoin="miter" stroke="rgb(0%, 0%, 0%)" stroke-opacity="0.0980392" stroke-miterlimit="10" d="M 44 243.5 L 600 243.5 "/>
<path fill="none" stroke-width="1" stroke-linecap="butt" stroke-linejoin="miter" stroke="rgb(0%, 0%, 0%)" stroke-opacity="0.0980392" stroke-miterlimit="10" d="M 35.074219 243.5 L 43 243.5 "/>
<path fill="none" stroke-width="1" stroke-linecap="butt" stroke-linejoin="miter" stroke="rgb(0%, 0%, 0%)" stroke-opacity="0.0980392" stroke-miterlimit="10" d="M 44 190.5 L 600 190.5 "/>
<path fill="none" stroke-width="1" stroke-linecap="butt" stroke-linejoin="miter" stroke="rgb(0%, 0%, 0%)" stroke-opacity="0.0980392" stroke-miterlimit="10" d="M 35.074219 190.5 L 43 190.5 "/>
<path fill="none" stroke-width="1" stroke-linecap="butt" stroke-linejoin="miter" stroke="rgb(0%, 0%, 0%)" stroke-opacity="0.0980392" stroke-miterlimit="10" d="M 44 137.5 L 600 137.5 "/>
<path fill="none" stroke-width="1" stroke-linecap="butt" stroke-linejoin="miter" stroke="rgb(0%, 0%, 0%)" stroke-opacity="0.0980392" stroke-miterlimit="10" d="M 35.074219 137.5 L 43 137.5 "/>
<path fill="none" stroke-width="1" stroke-linecap="butt" stroke-linejoin="miter" stroke="rgb(0%, 0%, 0%)" stroke-opacity="0.0980392" stroke-miterlimit="10" d="M 44 84.5 L 600 84.5 "/>
<path fill="none" stroke-width="1" stroke-linecap="butt" stroke-linejoin="miter" stroke="rgb(0%, 0%, 0%)" stroke-opacity="0.0980392" stroke-miterlimit="10" d="M 35.074219 84.5 L 43 84.5 "/>
<path fill="none" stroke-width="1" stroke-linecap="butt" stroke-linejoin="miter" stroke="rgb(0%, 0%, 0%)" stroke-opacity="0.0980392" stroke-miterlimit="10" d="M 44 32.5 L 600 32.5 "/>
<path fill="none" stroke-width="1" stroke-linecap="butt" stroke-linejoin="miter" stroke="rgb(0%, 0%, 0%)" stroke-opacity="0.0980392" stroke-miterlimit="10" d="M 35.074219 32.5 L 43 32.5 "/>
<path fill-rule="nonzero" fill="rgb(40%, 40%, 40%)" fill-opacity="1" d="M 12.601562 214.0625 L 12.507812 212.988281 C 12.9375 212.941406 13.289062 212.824219 13.5625 212.636719 C 13.839844 212.457031 14.0625 212.167969 14.234375 211.773438 C 14.40625 211.386719 14.492188 210.945312 14.488281 210.453125 C 14.492188 210.023438 14.429688 209.640625 14.296875 209.304688 C 14.171875 208.972656 13.992188 208.726562 13.765625 208.5625 C 13.539062 208.402344 13.292969 208.320312 13.027344 208.320312 C 12.761719 208.320312 12.527344 208.398438 12.324219 208.554688 C 12.121094 208.710938 11.953125 208.96875 11.816406 209.328125 C 11.726562 209.558594 11.585938 210.070312 11.394531 210.855469 C 11.207031 211.648438 11.027344 212.199219 10.859375 212.515625 C 10.648438 212.925781 10.382812 213.234375 10.0625 213.433594 C 9.742188 213.636719 9.386719 213.734375 8.992188 213.734375 C 8.558594 213.734375 8.152344 213.613281 7.777344 213.367188 C 7.402344 213.121094 7.117188 212.761719 6.917969 212.289062 C 6.726562 211.816406 6.628906 211.289062 6.625 210.710938 C 6.628906 210.074219 6.730469 209.515625 6.933594 209.027344 C 7.136719 208.542969 7.4375 208.167969 7.835938 207.90625 C 8.234375 207.644531 8.6875 207.503906 9.1875 207.484375 L 9.273438 208.570312 C 8.730469 208.632812 8.320312 208.832031 8.042969 209.167969 C 7.765625 209.507812 7.625 210.003906 7.625 210.664062 C 7.625 211.351562 7.753906 211.855469 8.003906 212.167969 C 8.261719 212.484375 8.5625 212.640625 8.914062 212.636719 C 9.222656 212.640625 9.476562 212.527344 9.675781 212.304688 C 9.878906 212.085938 10.085938 211.515625 10.289062 210.589844 C 10.5 209.667969 10.679688 209.035156 10.835938 208.6875 C 11.066406 208.191406 11.359375 207.820312 11.710938 207.582031 C 12.066406 207.347656 12.472656 207.230469 12.933594 207.226562 C 13.394531 207.230469 13.828125 207.359375 14.226562 207.617188 C 14.632812 207.878906 14.945312 208.257812 15.171875 208.746094 C 15.394531 209.238281 15.503906 209.789062 15.507812 210.398438 C 15.503906 211.179688 15.394531 211.832031 15.167969 212.355469 C 14.945312 212.882812 14.605469 213.292969 14.144531 213.589844 C 13.691406 213.890625 13.175781 214.046875 12.601562 214.0625 Z M 17.742188 205.808594 L 9.136719 205.804688 L 9.136719 204.84375 L 9.945312 204.84375 C 9.628906 204.621094 9.394531 204.363281 9.234375 204.078125 C 9.078125 203.792969 8.996094 203.449219 8.996094 203.039062 C 8.996094 202.515625 9.132812 202.046875 9.40625 201.636719 C 9.679688 201.234375 10.066406 200.925781 10.566406 200.714844 C 11.066406 200.507812 11.613281 200.40625 12.203125 200.402344 C 12.839844 200.40625 13.414062 200.519531 13.921875 200.746094 C 14.4375 200.976562 14.828125 201.308594 15.09375 201.742188 C 15.367188 202.179688 15.5 202.636719 15.5 203.117188 C 15.5 203.46875 15.425781 203.785156 15.277344 204.0625 C 15.128906 204.34375 14.941406 204.574219 14.714844 204.753906 L 17.742188 204.753906 Z M 12.28125 204.851562 C 13.085938 204.851562 13.675781 204.691406 14.058594 204.367188 C 14.441406 204.042969 14.632812 203.648438 14.632812 203.1875 C 14.632812 202.71875 14.4375 202.320312 14.039062 201.984375 C 13.648438 201.652344 13.03125 201.484375 12.195312 201.480469 C 11.40625 201.484375 10.8125 201.648438 10.414062 201.972656 C 10.019531 202.300781 9.824219 202.6875 9.820312 203.140625 C 9.824219 203.589844 10.035156 203.988281 10.453125 204.332031 C 10.875 204.679688 11.484375 204.851562 12.28125 204.851562 Z M 13.355469 194.871094 L 13.492188 193.78125 C 14.128906 193.953125 14.621094 194.273438 14.972656 194.738281 C 15.324219 195.203125 15.5 195.796875 15.5 196.515625 C 15.5 197.429688 15.222656 198.152344 14.660156 198.683594 C 14.105469 199.21875 13.316406 199.484375 12.300781 199.480469 C 11.253906 199.484375 10.441406 199.214844 9.863281 198.671875 C 9.285156 198.136719 8.996094 197.4375 8.996094 196.574219 C 8.996094 195.746094 9.28125 195.066406 9.847656 194.539062 C 10.414062 194.011719 11.210938 193.746094 12.238281 193.746094 C 12.304688 193.746094 12.398438 193.75 12.519531 193.75 L 12.515625 198.390625 C 13.203125 198.355469 13.726562 198.160156 14.089844 197.8125 C 14.453125 197.464844 14.632812 197.03125 14.632812 196.511719 C 14.632812 196.125 14.53125 195.796875 14.328125 195.519531 C 14.125 195.25 13.800781 195.03125 13.355469 194.871094 Z M 11.648438 198.332031 L 11.652344 194.859375 C 11.132812 194.90625 10.738281 195.039062 10.472656 195.257812 C 10.066406 195.59375 9.863281 196.03125 9.863281 196.5625 C 9.863281 197.050781 10.027344 197.457031 10.351562 197.785156 C 10.675781 198.117188 11.109375 198.300781 11.648438 198.332031 Z M 13.355469 188.199219 L 13.492188 187.109375 C 14.128906 187.28125 14.621094 187.601562 14.972656 188.066406 C 15.324219 188.53125 15.5 189.125 15.5 189.84375 C 15.5 190.757812 15.222656 191.480469 14.660156 192.011719 C 14.105469 192.546875 13.316406 192.8125 12.300781 192.808594 C 11.253906 192.8125 10.441406 192.542969 9.863281 192 C 9.285156 191.464844 8.996094 190.765625 8.996094 189.902344 C 8.996094 189.074219 9.28125 188.394531 9.847656 187.867188 C 10.414062 187.339844 11.210938 187.074219 12.238281 187.074219 C 12.304688 187.074219 12.398438 187.078125 12.519531 187.078125 L 12.515625 191.71875 C 13.203125 191.683594 13.726562 191.488281 14.089844 191.140625 C 14.453125 190.792969 14.632812 190.359375 14.632812 189.839844 C 14.632812 189.453125 14.53125 189.125 14.328125 188.847656 C 14.125 188.578125 13.800781 188.359375 13.355469 188.199219 Z M 11.648438 191.660156 L 11.652344 188.1875 C 11.132812 188.234375 10.738281 188.367188 10.472656 188.585938 C 10.066406 188.921875 9.863281 189.359375 9.863281 189.890625 C 9.863281 190.378906 10.027344 190.785156 10.351562 191.113281 C 10.675781 191.445312 11.109375 191.628906 11.648438 191.660156 Z M 15.359375 181.75 L 14.574219 181.75 C 15.191406 182.148438 15.5 182.730469 15.5 183.492188 C 15.5 183.988281 15.363281 184.445312 15.089844 184.859375 C 14.816406 185.28125 14.4375 185.601562 13.945312 185.828125 C 13.460938 186.054688 12.894531 186.167969 12.253906 186.167969 C 11.632812 186.167969 11.070312 186.066406 10.5625 185.859375 C 10.058594 185.652344 9.671875 185.339844 9.402344 184.925781 C 9.132812 184.511719 8.996094 184.050781 8.996094 183.535156 C 8.996094 183.164062 9.078125 182.828125 9.234375 182.535156 C 9.394531 182.242188 9.597656 182.003906 9.851562 181.820312 L 6.769531 181.820312 L 6.769531 180.769531 L 15.359375 180.773438 Z M 12.253906 185.082031 C 13.050781 185.085938 13.648438 184.917969 14.042969 184.582031 C 14.4375 184.25 14.632812 183.851562 14.632812 183.390625 C 14.632812 182.929688 14.445312 182.539062 14.070312 182.21875 C 13.695312 181.898438 13.121094 181.738281 12.34375 181.734375 C 11.492188 181.738281 10.867188 181.902344 10.464844 182.226562 C 10.070312 182.554688 9.871094 182.957031 9.867188 183.4375 C 9.871094 183.90625 10.0625 184.300781 10.441406 184.613281 C 10.828125 184.929688 11.429688 185.085938 12.253906 185.082031 Z M 15.359375 175.035156 L 14.445312 175.035156 C 15.148438 175.523438 15.5 176.179688 15.5 177.007812 C 15.5 177.375 15.429688 177.71875 15.289062 178.035156 C 15.148438 178.355469 14.972656 178.59375 14.761719 178.746094 C 14.550781 178.902344 14.289062 179.007812 13.976562 179.070312 C 13.769531 179.113281 13.441406 179.136719 12.992188 179.132812 L 9.136719 179.132812 L 9.136719 178.078125 L 12.585938 178.078125 C 13.140625 178.082031 13.511719 178.058594 13.703125 178.015625 C 13.980469 177.953125 14.199219 177.8125 14.355469 177.59375 C 14.519531 177.378906 14.597656 177.113281 14.59375 176.796875 C 14.597656 176.484375 14.515625 176.1875 14.351562 175.90625 C 14.1875 175.628906 13.96875 175.433594 13.6875 175.316406 C 13.414062 175.203125 13.007812 175.144531 12.472656 175.144531 L 9.136719 175.144531 L 9.136719 174.089844 L 15.359375 174.089844 Z M 17.742188 172.4375 L 9.136719 172.433594 L 9.136719 171.472656 L 9.945312 171.472656 C 9.628906 171.25 9.394531 170.992188 9.234375 170.707031 C 9.078125 170.421875 8.996094 170.078125 8.996094 169.667969 C 8.996094 169.144531 9.132812 168.675781 9.40625 168.265625 C 9.679688 167.863281 10.066406 167.554688 10.566406 167.34375 C 11.066406 167.136719 11.613281 167.035156 12.203125 167.03125 C 12.839844 167.035156 13.414062 167.148438 13.921875 167.375 C 14.4375 167.605469 14.828125 167.9375 15.09375 168.371094 C 15.367188 168.808594 15.5 169.265625 15.5 169.746094 C 15.5 170.097656 15.425781 170.414062 15.277344 170.691406 C 15.128906 170.972656 14.941406 171.203125 14.714844 171.382812 L 17.742188 171.382812 Z M 12.28125 171.480469 C 13.085938 171.480469 13.675781 171.320312 14.058594 170.996094 C 14.441406 170.671875 14.632812 170.277344 14.632812 169.816406 C 14.632812 169.347656 14.4375 168.949219 14.039062 168.613281 C 13.648438 168.28125 13.03125 168.113281 12.195312 168.109375 C 11.40625 168.113281 10.8125 168.277344 10.414062 168.601562 C 10.019531 168.929688 9.824219 169.316406 9.820312 169.769531 C 9.824219 170.21875 10.035156 170.617188 10.453125 170.960938 C 10.875 171.308594 11.484375 171.480469 12.28125 171.480469 Z M 4.496094 214.601562 "/>
<path fill-rule="nonzero" fill="rgb(100%, 38.823529%, 51.764706%)" fill-opacity="1" d="M 223.328125 10 L 263.328125 10 L 263.328125 22 L 223.328125 22 Z M 223.328125 10 "/>
<path fill-rule="nonzero" fill="rgb(40%, 40%, 40%)" fill-opacity="1" d="M 276.382812 17.148438 L 277.519531 17.433594 C 277.28125 18.371094 276.851562 19.082031 276.234375 19.574219 C 275.613281 20.0625 274.855469 20.304688 273.960938 20.308594 C 273.035156 20.304688 272.28125 20.121094 271.703125 19.742188 C 271.121094 19.367188 270.679688 18.820312 270.378906 18.105469 C 270.074219 17.390625 269.925781 16.621094 269.925781 15.800781 C 269.925781 14.90625 270.09375 14.128906 270.4375 13.460938 C 270.777344 12.796875 271.265625 12.289062 271.898438 11.945312 C 272.527344 11.601562 273.222656 11.429688 273.980469 11.425781 C 274.839844 11.429688 275.5625 11.648438 276.148438 12.082031 C 276.734375 12.523438 277.140625 13.136719 277.375 13.925781 L 276.253906 14.191406 C 276.050781 13.570312 275.761719 13.113281 275.386719 12.824219 C 275.007812 12.539062 274.53125 12.398438 273.957031 12.394531 C 273.296875 12.398438 272.742188 12.554688 272.300781 12.871094 C 271.855469 13.191406 271.546875 13.617188 271.367188 14.148438 C 271.1875 14.679688 271.097656 15.230469 271.097656 15.792969 C 271.097656 16.527344 271.203125 17.164062 271.414062 17.710938 C 271.625 18.257812 271.957031 18.664062 272.410156 18.929688 C 272.859375 19.199219 273.34375 19.335938 273.867188 19.332031 C 274.503906 19.335938 275.042969 19.152344 275.484375 18.78125 C 275.925781 18.417969 276.226562 17.871094 276.382812 17.148438 Z M 278.941406 20.160156 L 278.941406 11.570312 L 285.152344 11.570312 L 285.152344 12.582031 L 280.078125 12.582031 L 280.078125 15.214844 L 284.828125 15.214844 L 284.828125 16.222656 L 280.078125 16.222656 L 280.078125 19.144531 L 285.351562 19.144531 L 285.351562 20.160156 Z M 269.328125 9.296875 "/>
<path fill-rule="nonzero" fill="rgb(21.176471%, 63.529412%, 92.156863%)" fill-opacity="1" d="M 296 10 L 336 10 L 336 22 L 296 22 Z M 296 10 "/>
<path fill-rule="nonzero" fill="rgb(40%, 40%, 40%)" fill-opacity="1" d="M 342.914062 20.160156 L 342.914062 11.570312 L 344.078125 11.570312 L 348.59375 18.316406 L 348.59375 11.570312 L 349.679688 11.570312 L 349.679688 20.160156 L 348.515625 20.160156 L 344.003906 13.410156 L 344.003906 20.160156 Z M 351.554688 20.160156 L 351.554688 11.570312 L 353.265625 11.570312 L 355.296875 17.652344 C 355.480469 18.222656 355.617188 18.648438 355.710938 18.925781 C 355.804688 18.617188 355.957031 18.15625 356.164062 17.546875 L 358.222656 11.570312 L 359.75 11.570312 L 359.75 20.160156 L 358.65625 20.160156 L 358.65625 12.972656 L 356.160156 20.160156 L 355.132812 20.160156 L 352.648438 12.847656 L 352.648438 20.160156 Z M 361.203125 17.402344 L 362.273438 17.308594 C 362.324219 17.738281 362.441406 18.089844 362.628906 18.363281 C 362.808594 18.640625 363.097656 18.863281 363.492188 19.03125 C 363.878906 19.203125 364.320312 19.289062 364.8125 19.285156 C 365.242188 19.289062 365.625 19.222656 365.960938 19.09375 C 366.292969 18.96875 366.539062 18.792969 366.703125 18.566406 C 366.863281 18.339844 366.945312 18.09375 366.945312 17.828125 C 366.945312 17.5625 366.867188 17.328125 366.710938 17.125 C 366.554688 16.921875 366.296875 16.753906 365.9375 16.613281 C 365.707031 16.527344 365.195312 16.386719 364.410156 16.195312 C 363.617188 16.007812 363.066406 15.828125 362.75 15.660156 C 362.335938 15.449219 362.027344 15.183594 361.832031 14.863281 C 361.628906 14.542969 361.53125 14.1875 361.53125 13.792969 C 361.53125 13.359375 361.652344 12.953125 361.898438 12.578125 C 362.144531 12.203125 362.503906 11.917969 362.976562 11.71875 C 363.449219 11.527344 363.976562 11.429688 364.554688 11.425781 C 365.1875 11.429688 365.746094 11.53125 366.238281 11.734375 C 366.722656 11.9375 367.097656 12.238281 367.359375 12.636719 C 367.621094 13.035156 367.761719 13.488281 367.78125 13.988281 L 366.695312 14.074219 C 366.632812 13.53125 366.433594 13.121094 366.097656 12.84375 C 365.757812 12.566406 365.261719 12.425781 364.601562 12.425781 C 363.914062 12.425781 363.410156 12.554688 363.097656 12.804688 C 362.777344 13.0625 362.621094 13.363281 362.625 13.714844 C 362.621094 14.023438 362.734375 14.277344 362.960938 14.476562 C 363.179688 14.679688 363.75 14.886719 364.675781 15.089844 C 365.597656 15.300781 366.230469 15.480469 366.578125 15.636719 C 367.074219 15.867188 367.445312 16.160156 367.683594 16.511719 C 367.917969 16.867188 368.035156 17.273438 368.039062 17.734375 C 368.035156 18.191406 367.90625 18.625 367.648438 19.027344 C 367.386719 19.433594 367.007812 19.746094 366.519531 19.972656 C 366.027344 20.195312 365.476562 20.304688 364.867188 20.308594 C 364.085938 20.304688 363.433594 20.195312 362.910156 19.96875 C 362.382812 19.746094 361.972656 19.40625 361.675781 18.945312 C 361.375 18.492188 361.21875 17.976562 361.203125 17.402344 Z M 369.613281 20.160156 L 369.613281 11.570312 L 375.824219 11.570312 L 375.824219 12.582031 L 370.75 12.582031 L 370.75 15.214844 L 375.5 15.214844 L 375.5 16.222656 L 370.75 16.222656 L 370.75 19.144531 L 376.023438 19.144531 L 376.023438 20.160156 Z M 342 9.296875 "/>
<path fill="none" stroke-width="1" stroke-linecap="butt" stroke-linejoin="miter" stroke="rgb(0%, 0%, 0%)" stroke-opacity="0.0980392" stroke-miterlimit="10" d="M 43 349.5 L 601 349.5 "/>
<path fill-rule="nonzero" fill="rgb(40%, 40%, 40%)" fill-opacity="1" d="M 133.363281 371.558594 L 132.308594 371.558594 L 132.308594 364.839844 C 132.054688 365.082031 131.722656 365.324219 131.308594 365.5625 C 130.894531 365.808594 130.523438 365.988281 130.199219 366.109375 L 130.199219 365.089844 C 130.789062 364.816406 131.304688 364.480469 131.746094 364.082031 C 132.1875 363.6875 132.5 363.304688 132.683594 362.933594 L 133.363281 362.933594 Z M 141.609375 370.542969 L 141.609375 371.558594 L 135.933594 371.558594 C 135.925781 371.304688 135.964844 371.0625 136.054688 370.824219 C 136.199219 370.441406 136.429688 370.058594 136.75 369.683594 C 137.0625 369.308594 137.523438 368.875 138.132812 368.382812 C 139.0625 367.617188 139.695312 367.011719 140.023438 366.566406 C 140.351562 366.121094 140.515625 365.699219 140.515625 365.292969 C 140.515625 364.878906 140.363281 364.527344 140.066406 364.238281 C 139.761719 363.957031 139.375 363.8125 138.898438 363.808594 C 138.390625 363.8125 137.984375 363.964844 137.679688 364.265625 C 137.375 364.574219 137.21875 364.996094 137.21875 365.527344 L 136.132812 365.417969 C 136.203125 364.613281 136.480469 364 136.96875 363.570312 C 137.449219 363.148438 138.101562 362.933594 138.921875 362.933594 C 139.742188 362.933594 140.394531 363.164062 140.878906 363.621094 C 141.359375 364.078125 141.597656 364.644531 141.601562 365.316406 C 141.597656 365.664062 141.527344 366 141.390625 366.332031 C 141.246094 366.667969 141.011719 367.019531 140.6875 367.382812 C 140.359375 367.753906 139.820312 368.257812 139.0625 368.894531 C 138.429688 369.429688 138.023438 369.789062 137.84375 369.976562 C 137.664062 370.164062 137.515625 370.355469 137.398438 370.542969 Z M 128.894531 360.695312 "/>
<path fill-rule="nonzero" fill="rgb(40%, 40%, 40%)" fill-opacity="1" d="M 319.003906 371.558594 L 317.949219 371.558594 L 317.949219 364.839844 C 317.695312 365.082031 317.363281 365.324219 316.949219 365.5625 C 316.535156 365.808594 316.164062 365.988281 315.839844 366.109375 L 315.839844 365.089844 C 316.429688 364.816406 316.945312 364.480469 317.386719 364.082031 C 317.828125 363.6875 318.140625 363.304688 318.324219 362.933594 L 319.003906 362.933594 Z M 327.179688 365.074219 L 326.132812 365.152344 C 326.039062 364.746094 325.90625 364.445312 325.734375 364.253906 C 325.445312 363.953125 325.09375 363.800781 324.679688 363.800781 C 324.34375 363.800781 324.046875 363.894531 323.796875 364.082031 C 323.460938 364.324219 323.199219 364.679688 323.007812 365.144531 C 322.816406 365.609375 322.71875 366.269531 322.710938 367.128906 C 322.964844 366.746094 323.273438 366.460938 323.644531 366.269531 C 324.007812 366.085938 324.394531 365.992188 324.796875 365.988281 C 325.5 365.992188 326.097656 366.25 326.59375 366.765625 C 327.085938 367.28125 327.332031 367.949219 327.335938 368.769531 C 327.332031 369.308594 327.214844 369.8125 326.984375 370.273438 C 326.75 370.738281 326.433594 371.089844 326.027344 371.335938 C 325.621094 371.582031 325.160156 371.703125 324.644531 371.707031 C 323.765625 371.703125 323.046875 371.382812 322.496094 370.738281 C 321.9375 370.089844 321.660156 369.023438 321.664062 367.539062 C 321.660156 365.882812 321.96875 364.675781 322.582031 363.917969 C 323.113281 363.261719 323.832031 362.933594 324.742188 362.933594 C 325.417969 362.933594 325.972656 363.125 326.40625 363.503906 C 326.835938 363.882812 327.09375 364.40625 327.179688 365.074219 Z M 322.875 368.777344 C 322.875 369.140625 322.949219 369.488281 323.105469 369.820312 C 323.253906 370.152344 323.472656 370.40625 323.753906 370.578125 C 324.03125 370.757812 324.320312 370.84375 324.625 370.839844 C 325.070312 370.84375 325.453125 370.664062 325.777344 370.300781 C 326.09375 369.945312 326.253906 369.457031 326.257812 368.832031 C 326.253906 368.242188 326.097656 367.773438 325.78125 367.429688 C 325.460938 367.089844 325.0625 366.917969 324.585938 366.917969 C 324.109375 366.917969 323.703125 367.089844 323.371094 367.429688 C 323.039062 367.773438 322.875 368.222656 322.875 368.777344 Z M 314.535156 360.695312 "/>
<path fill-rule="nonzero" fill="rgb(40%, 40%, 40%)" fill-opacity="1" d="M 506.21875 370.542969 L 506.21875 371.558594 L 500.542969 371.558594 C 500.535156 371.304688 500.574219 371.0625 500.664062 370.824219 C 500.808594 370.441406 501.039062 370.058594 501.359375 369.683594 C 501.671875 369.308594 502.132812 368.875 502.742188 368.382812 C 503.671875 367.617188 504.304688 367.011719 504.632812 366.566406 C 504.960938 366.121094 505.125 365.699219 505.125 365.292969 C 505.125 364.878906 504.972656 364.527344 504.675781 364.238281 C 504.371094 363.957031 503.984375 363.8125 503.507812 363.808594 C 503 363.8125 502.59375 363.964844 502.289062 364.265625 C 501.984375 364.574219 501.828125 364.996094 501.828125 365.527344 L 500.742188 365.417969 C 500.8125 364.613281 501.089844 364 501.578125 363.570312 C 502.058594 363.148438 502.710938 362.933594 503.53125 362.933594 C 504.351562 362.933594 505.003906 363.164062 505.488281 363.621094 C 505.96875 364.078125 506.207031 364.644531 506.210938 365.316406 C 506.207031 365.664062 506.136719 366 506 366.332031 C 505.855469 366.667969 505.621094 367.019531 505.296875 367.382812 C 504.96875 367.753906 504.429688 368.257812 503.671875 368.894531 C 503.039062 369.429688 502.632812 369.789062 502.453125 369.976562 C 502.273438 370.164062 502.125 370.355469 502.007812 370.542969 Z M 507.351562 367.324219 C 507.347656 366.3125 507.453125 365.496094 507.664062 364.871094 C 507.871094 364.253906 508.179688 363.773438 508.59375 363.4375 C 509 363.101562 509.519531 362.933594 510.148438 362.933594 C 510.609375 362.933594 511.015625 363.027344 511.363281 363.210938 C 511.707031 363.398438 511.992188 363.667969 512.222656 364.015625 C 512.445312 364.367188 512.625 364.792969 512.757812 365.292969 C 512.886719 365.796875 512.949219 366.472656 512.953125 367.324219 C 512.949219 368.332031 512.847656 369.144531 512.640625 369.761719 C 512.429688 370.382812 512.117188 370.863281 511.710938 371.199219 C 511.296875 371.539062 510.777344 371.703125 510.148438 371.707031 C 509.316406 371.703125 508.667969 371.410156 508.199219 370.816406 C 507.632812 370.101562 507.347656 368.9375 507.351562 367.324219 Z M 508.433594 367.324219 C 508.433594 368.734375 508.597656 369.671875 508.925781 370.140625 C 509.253906 370.609375 509.660156 370.84375 510.148438 370.839844 C 510.628906 370.84375 511.035156 370.609375 511.371094 370.136719 C 511.699219 369.671875 511.867188 368.734375 511.867188 367.324219 C 511.867188 365.910156 511.699219 364.96875 511.371094 364.503906 C 511.035156 364.042969 510.625 363.8125 510.140625 363.808594 C 509.652344 363.8125 509.265625 364.015625 508.976562 364.421875 C 508.613281 364.945312 508.433594 365.914062 508.433594 367.324219 Z M 500.179688 360.695312 "/>
<path fill="none" stroke-width="1" stroke-linecap="butt" stroke-linejoin="miter" stroke="rgb(0%, 0%, 0%)" stroke-opacity="0.0980392" stroke-miterlimit="10" d="M 43.5 32 L 43.5 350 "/>
<path fill-rule="nonzero" fill="rgb(40%, 40%, 40%)" fill-opacity="1" d="M 25.574219 349.125 C 25.570312 348.113281 25.675781 347.296875 25.886719 346.671875 C 26.09375 346.054688 26.402344 345.574219 26.816406 345.238281 C 27.222656 344.902344 27.742188 344.734375 28.371094 344.734375 C 28.832031 344.734375 29.238281 344.828125 29.585938 345.011719 C 29.929688 345.199219 30.214844 345.46875 30.445312 345.816406 C 30.667969 346.167969 30.847656 346.59375 30.980469 347.09375 C 31.109375 347.597656 31.171875 348.273438 31.175781 349.125 C 31.171875 350.132812 31.070312 350.945312 30.863281 351.5625 C 30.652344 352.183594 30.339844 352.664062 29.933594 353 C 29.519531 353.339844 29 353.503906 28.371094 353.507812 C 27.539062 353.503906 26.890625 353.210938 26.421875 352.617188 C 25.855469 351.902344 25.570312 350.738281 25.574219 349.125 Z M 26.65625 349.125 C 26.65625 350.535156 26.820312 351.472656 27.148438 351.941406 C 27.476562 352.410156 27.882812 352.644531 28.371094 352.640625 C 28.851562 352.644531 29.257812 352.410156 29.59375 351.9375 C 29.921875 351.472656 30.089844 350.535156 30.089844 349.125 C 30.089844 347.710938 29.921875 346.769531 29.59375 346.304688 C 29.257812 345.84375 28.847656 345.613281 28.363281 345.609375 C 27.875 345.613281 27.488281 345.816406 27.199219 346.222656 C 26.835938 346.746094 26.65625 347.714844 26.65625 349.125 Z M 25.074219 342.496094 "/>
<path fill-rule="nonzero" fill="rgb(40%, 40%, 40%)" fill-opacity="1" d="M 29.542969 300.492188 L 28.488281 300.492188 L 28.488281 293.773438 C 28.234375 294.015625 27.902344 294.257812 27.488281 294.496094 C 27.074219 294.742188 26.703125 294.921875 26.378906 295.042969 L 26.378906 294.023438 C 26.96875 293.75 27.484375 293.414062 27.925781 293.015625 C 28.367188 292.621094 28.679688 292.238281 28.863281 291.867188 L 29.542969 291.867188 Z M 25.074219 289.628906 "/>
<path fill-rule="nonzero" fill="rgb(40%, 40%, 40%)" fill-opacity="1" d="M 31.113281 246.609375 L 31.113281 247.625 L 25.4375 247.625 C 25.429688 247.371094 25.46875 247.128906 25.558594 246.890625 C 25.703125 246.507812 25.933594 246.125 26.253906 245.75 C 26.566406 245.375 27.027344 244.941406 27.636719 244.449219 C 28.566406 243.683594 29.199219 243.078125 29.527344 242.632812 C 29.855469 242.1875 30.019531 241.765625 30.019531 241.359375 C 30.019531 240.945312 29.867188 240.59375 29.570312 240.304688 C 29.265625 240.023438 28.878906 239.878906 28.402344 239.875 C 27.894531 239.878906 27.488281 240.03125 27.183594 240.332031 C 26.878906 240.640625 26.722656 241.0625 26.722656 241.59375 L 25.636719 241.484375 C 25.707031 240.679688 25.984375 240.066406 26.472656 239.636719 C 26.953125 239.214844 27.605469 239 28.425781 239 C 29.246094 239 29.898438 239.230469 30.382812 239.6875 C 30.863281 240.144531 31.101562 240.710938 31.105469 241.382812 C 31.101562 241.730469 31.03125 242.066406 30.894531 242.398438 C 30.75 242.734375 30.515625 243.085938 30.191406 243.449219 C 29.863281 243.820312 29.324219 244.324219 28.566406 244.960938 C 27.933594 245.496094 27.527344 245.855469 27.347656 246.042969 C 27.167969 246.230469 27.019531 246.421875 26.902344 246.609375 Z M 25.074219 236.761719 "/>
<path fill-rule="nonzero" fill="rgb(40%, 40%, 40%)" fill-opacity="1" d="M 25.578125 192.496094 L 26.632812 192.355469 C 26.753906 192.953125 26.957031 193.382812 27.25 193.648438 C 27.539062 193.914062 27.894531 194.046875 28.316406 194.042969 C 28.808594 194.046875 29.226562 193.875 29.570312 193.527344 C 29.90625 193.1875 30.078125 192.761719 30.082031 192.246094 C 30.078125 191.765625 29.921875 191.367188 29.609375 191.050781 C 29.292969 190.738281 28.890625 190.578125 28.402344 190.578125 C 28.203125 190.578125 27.953125 190.617188 27.660156 190.695312 L 27.777344 189.769531 C 27.839844 189.777344 27.898438 189.78125 27.945312 189.78125 C 28.394531 189.78125 28.796875 189.664062 29.160156 189.429688 C 29.515625 189.195312 29.695312 188.835938 29.699219 188.347656 C 29.695312 187.960938 29.566406 187.640625 29.304688 187.386719 C 29.039062 187.132812 28.699219 187.003906 28.292969 187.003906 C 27.878906 187.003906 27.539062 187.132812 27.265625 187.390625 C 26.992188 187.648438 26.816406 188.035156 26.738281 188.550781 L 25.683594 188.363281 C 25.8125 187.65625 26.105469 187.109375 26.5625 186.71875 C 27.015625 186.332031 27.582031 186.136719 28.269531 186.136719 C 28.734375 186.136719 29.167969 186.238281 29.5625 186.4375 C 29.953125 186.640625 30.253906 186.914062 30.464844 187.261719 C 30.675781 187.613281 30.78125 187.984375 30.78125 188.371094 C 30.78125 188.742188 30.679688 189.078125 30.480469 189.382812 C 30.28125 189.6875 29.988281 189.929688 29.597656 190.109375 C 30.105469 190.226562 30.5 190.472656 30.78125 190.839844 C 31.0625 191.214844 31.203125 191.675781 31.203125 192.222656 C 31.203125 192.976562 30.929688 193.613281 30.382812 194.132812 C 29.835938 194.65625 29.144531 194.914062 28.308594 194.914062 C 27.550781 194.914062 26.921875 194.691406 26.429688 194.242188 C 25.929688 193.792969 25.648438 193.210938 25.578125 192.496094 Z M 25.074219 183.898438 "/>
<path fill-rule="nonzero" fill="rgb(40%, 40%, 40%)" fill-opacity="1" d="M 28.953125 141.894531 L 28.953125 139.839844 L 25.226562 139.839844 L 25.226562 138.871094 L 29.144531 133.304688 L 30.007812 133.304688 L 30.007812 138.871094 L 31.167969 138.871094 L 31.167969 139.839844 L 30.007812 139.839844 L 30.007812 141.894531 Z M 28.953125 138.871094 L 28.953125 134.996094 L 26.261719 138.871094 Z M 25.074219 131.03125 "/>
<path fill-rule="nonzero" fill="rgb(40%, 40%, 40%)" fill-opacity="1" d="M 25.574219 86.777344 L 26.679688 86.683594 C 26.757812 87.222656 26.945312 87.628906 27.25 87.902344 C 27.546875 88.175781 27.910156 88.3125 28.332031 88.308594 C 28.839844 88.3125 29.269531 88.121094 29.621094 87.734375 C 29.972656 87.355469 30.148438 86.847656 30.148438 86.207031 C 30.148438 85.613281 29.976562 85.136719 29.640625 84.785156 C 29.300781 84.4375 28.859375 84.265625 28.316406 84.261719 C 27.972656 84.265625 27.667969 84.34375 27.394531 84.496094 C 27.121094 84.652344 26.90625 84.851562 26.75 85.097656 L 25.761719 84.964844 L 26.589844 80.554688 L 30.863281 80.554688 L 30.863281 81.5625 L 27.433594 81.5625 L 26.972656 83.871094 C 27.488281 83.511719 28.027344 83.332031 28.597656 83.332031 C 29.34375 83.332031 29.976562 83.59375 30.496094 84.113281 C 31.007812 84.632812 31.265625 85.300781 31.269531 86.113281 C 31.265625 86.894531 31.039062 87.566406 30.589844 88.128906 C 30.035156 88.828125 29.285156 89.171875 28.332031 89.175781 C 27.550781 89.171875 26.910156 88.957031 26.417969 88.519531 C 25.917969 88.085938 25.636719 87.503906 25.574219 86.777344 Z M 25.074219 78.164062 "/>
<path fill-rule="nonzero" fill="rgb(40%, 40%, 40%)" fill-opacity="1" d="M 31.042969 29.675781 L 29.996094 29.753906 C 29.902344 29.347656 29.769531 29.046875 29.597656 28.855469 C 29.308594 28.554688 28.957031 28.402344 28.542969 28.402344 C 28.207031 28.402344 27.910156 28.496094 27.660156 28.683594 C 27.324219 28.925781 27.0625 29.28125 26.871094 29.746094 C 26.679688 30.210938 26.582031 30.871094 26.574219 31.730469 C 26.828125 31.347656 27.136719 31.0625 27.507812 30.871094 C 27.871094 30.6875 28.257812 30.59375 28.660156 30.589844 C 29.363281 30.59375 29.960938 30.851562 30.457031 31.367188 C 30.949219 31.882812 31.195312 32.550781 31.199219 33.371094 C 31.195312 33.910156 31.078125 34.414062 30.847656 34.875 C 30.613281 35.339844 30.296875 35.691406 29.890625 35.9375 C 29.484375 36.183594 29.023438 36.304688 28.507812 36.308594 C 27.628906 36.304688 26.910156 35.984375 26.359375 35.339844 C 25.800781 34.691406 25.523438 33.625 25.527344 32.140625 C 25.523438 30.484375 25.832031 29.277344 26.445312 28.519531 C 26.976562 27.863281 27.695312 27.535156 28.605469 27.535156 C 29.28125 27.535156 29.835938 27.726562 30.269531 28.105469 C 30.699219 28.484375 30.957031 29.007812 31.042969 29.675781 Z M 26.738281 33.378906 C 26.738281 33.742188 26.8125 34.089844 26.96875 34.421875 C 27.117188 34.753906 27.335938 35.007812 27.617188 35.179688 C 27.894531 35.359375 28.183594 35.445312 28.488281 35.441406 C 28.933594 35.445312 29.316406 35.265625 29.640625 34.902344 C 29.957031 34.546875 30.117188 34.058594 30.121094 33.433594 C 30.117188 32.84375 29.960938 32.375 29.644531 32.03125 C 29.324219 31.691406 28.925781 31.519531 28.449219 31.519531 C 27.972656 31.519531 27.566406 31.691406 27.234375 32.03125 C 26.902344 32.375 26.738281 32.824219 26.738281 33.378906 Z M 25.074219 25.296875 "/>
<path fill-rule="nonzero" fill="rgb(21.176471%, 63.529412%, 92.156863%)" fill-opacity="1" d="M 142.609375 149.363281 C 140.949219 149.363281 139.609375 150.707031 139.609375 152.363281 L 139.609375 348.699219 L 206.4375 348.699219 L 206.4375 152.363281 C 206.4375 150.707031 205.09375 149.363281 203.4375 149.363281 L 142.609375 149.363281 "/>
<path fill-rule="nonzero" fill="rgb(21.176471%, 63.529412%, 92.156863%)" fill-opacity="1" d="M 328.25 244.523438 C 326.59375 244.523438 325.25 245.867188 325.25 247.523438 L 325.25 348.699219 L 392.082031 348.699219 L 392.082031 247.523438 C 392.082031 245.867188 390.738281 244.523438 389.082031 244.523438 L 328.25 244.523438 "/>
<path fill-rule="nonzero" fill="rgb(21.176471%, 63.529412%, 92.156863%)" fill-opacity="1" d="M 513.890625 239.976562 C 512.234375 239.976562 510.890625 241.320312 510.890625 242.976562 L 510.890625 348.699219 L 577.722656 348.699219 L 577.722656 242.976562 C 577.722656 241.320312 576.378906 239.976562 574.722656 239.976562 L 513.890625 239.976562 "/>
<path fill-rule="nonzero" fill="rgb(100%, 38.823529%, 51.764706%)" fill-opacity="1" d="M 68.351562 76.40625 C 66.695312 76.40625 65.351562 77.75 65.351562 79.40625 L 65.351562 348.699219 L 132.183594 348.699219 L 132.183594 79.40625 C 132.183594 77.75 130.839844 76.40625 129.183594 76.40625 L 68.351562 76.40625 "/>
<path fill-rule="nonzero" fill="rgb(100%, 38.823529%, 51.764706%)" fill-opacity="1" d="M 253.992188 217.035156 C 252.335938 217.035156 250.992188 218.375 250.992188 220.035156 L 250.992188 348.699219 L 317.824219 348.699219 L 317.824219 220.035156 C 317.824219 218.375 316.480469 217.035156 314.824219 217.035156 L 253.992188 217.035156 "/>
<path fill-rule="nonzero" fill="rgb(100%, 38.823529%, 51.764706%)" fill-opacity="1" d="M 439.636719 232.894531 C 437.976562 232.894531 436.636719 234.238281 436.636719 235.894531 L 436.636719 348.699219 L 503.464844 348.699219 L 503.464844 235.894531 C 503.464844 234.238281 502.121094 232.894531 500.464844 232.894531 L 439.636719 232.894531 "/>
</svg>
